<svg width="80" height="20" viewBox="0 0 80 20" fill="none" xmlns="http://www.w3.org/2000/svg">
<rect x="0.1" y="0.1" width="79.8" height="19.8" rx="5.9" fill="#3CDD2E" fill-opacity="0.15" stroke="#004E16" stroke-width="0.2"/>
<path d="M20.1506 14H18.7528L23.3423 5.27273H24.8636L26.5554 14H25.1577L23.8835 6.85795H23.8153L20.1506 14ZM20.9517 10.5824H25.4858L25.2983 11.6903H20.7642L20.9517 10.5824ZM27.0686 16.4545L28.5771 7.45455H29.8214L29.6467 8.51562H29.7533C29.8498 8.37926 29.9805 8.22159 30.1453 8.04261C30.3129 7.86364 30.5331 7.70739 30.8058 7.57386C31.0785 7.4375 31.418 7.36932 31.8243 7.36932C32.3527 7.36932 32.8001 7.50284 33.1666 7.76989C33.5331 8.03693 33.7944 8.42187 33.9507 8.92472C34.1069 9.42756 34.1268 10.0327 34.0104 10.7401C33.8939 11.4474 33.6751 12.054 33.3541 12.5597C33.0331 13.0625 32.6439 13.4503 32.1865 13.723C31.7319 13.9929 31.239 14.1278 30.7078 14.1278C30.3101 14.1278 29.9962 14.0611 29.766 13.9276C29.5388 13.794 29.3697 13.6378 29.2589 13.4588C29.1481 13.2798 29.0643 13.1207 29.0075 12.9815H28.9308L28.3513 16.4545H27.0686ZM29.2802 10.7273C29.2064 11.1875 29.2064 11.5909 29.2802 11.9375C29.3541 12.2841 29.5018 12.5554 29.7234 12.7514C29.9479 12.9446 30.2433 13.0412 30.6098 13.0412C30.9905 13.0412 31.3243 12.9403 31.6112 12.7386C31.8981 12.5341 32.1354 12.2571 32.3229 11.9077C32.5132 11.5582 32.6453 11.1648 32.7192 10.7273C32.7902 10.2955 32.7888 9.90767 32.7149 9.56392C32.6439 9.22017 32.4976 8.94886 32.276 8.75C32.0544 8.55114 31.7518 8.4517 31.3683 8.4517C30.9962 8.4517 30.6666 8.54687 30.3797 8.73722C30.0956 8.92756 29.8598 9.19318 29.6723 9.53409C29.4848 9.875 29.3541 10.2727 29.2802 10.7273ZM34.2466 16.4545L35.7551 7.45455H36.9994L36.8247 8.51562H36.9312C37.0278 8.37926 37.1585 8.22159 37.3233 8.04261C37.4909 7.86364 37.7111 7.70739 37.9838 7.57386C38.2565 7.4375 38.596 7.36932 39.0022 7.36932C39.5307 7.36932 39.9781 7.50284 40.3446 7.76989C40.7111 8.03693 40.9724 8.42187 41.1287 8.92472C41.2849 9.42756 41.3048 10.0327 41.1883 10.7401C41.0718 11.4474 40.8531 12.054 40.5321 12.5597C40.2111 13.0625 39.8218 13.4503 39.3645 13.723C38.9099 13.9929 38.417 14.1278 37.8858 14.1278C37.488 14.1278 37.1741 14.0611 36.944 13.9276C36.7167 13.794 36.5477 13.6378 36.4369 13.4588C36.3261 13.2798 36.2423 13.1207 36.1855 12.9815H36.1088L35.5292 16.4545H34.2466ZM36.4582 10.7273C36.3843 11.1875 36.3843 11.5909 36.4582 11.9375C36.5321 12.2841 36.6798 12.5554 36.9014 12.7514C37.1258 12.9446 37.4213 13.0412 37.7878 13.0412C38.1684 13.0412 38.5022 12.9403 38.7892 12.7386C39.0761 12.5341 39.3133 12.2571 39.5008 11.9077C39.6912 11.5582 39.8233 11.1648 39.8971 10.7273C39.9682 10.2955 39.9667 9.90767 39.8929 9.56392C39.8218 9.22017 39.6755 8.94886 39.4539 8.75C39.2324 8.55114 38.9298 8.4517 38.5463 8.4517C38.1741 8.4517 37.8446 8.54687 37.5576 8.73722C37.2736 8.92756 37.0378 9.19318 36.8503 9.53409C36.6628 9.875 36.5321 10.2727 36.4582 10.7273ZM41.8294 14L42.9203 7.45455H44.1518L43.9771 8.49432H44.0453C44.2214 8.14205 44.4785 7.86506 44.8166 7.66335C45.1546 7.45881 45.5154 7.35653 45.899 7.35653C45.9814 7.35653 46.0751 7.35937 46.1802 7.36506C46.2853 7.3679 46.3706 7.375 46.4359 7.38636L46.2314 8.60511C46.1831 8.59091 46.095 8.57528 45.9671 8.55824C45.8393 8.53835 45.7072 8.52841 45.5708 8.52841C45.2725 8.52841 44.9956 8.59233 44.7399 8.72017C44.4842 8.84517 44.2697 9.01989 44.0964 9.24432C43.9231 9.46591 43.8109 9.71875 43.7598 10.0028L43.1035 14H41.8294ZM48.7708 14.1321C48.1487 14.1321 47.6288 13.9901 47.2112 13.706C46.7936 13.419 46.4995 13.0185 46.3291 12.5043C46.1614 11.9872 46.133 11.3864 46.2438 10.7017C46.3518 10.0312 46.5691 9.44602 46.8958 8.94602C47.2254 8.44602 47.6373 8.05824 48.1316 7.78267C48.6288 7.5071 49.1813 7.36932 49.7893 7.36932C50.4115 7.36932 50.9299 7.51278 51.3447 7.79972C51.7623 8.08665 52.0563 8.48864 52.2268 9.00568C52.3972 9.52273 52.4271 10.125 52.3163 10.8125C52.2083 11.4773 51.9882 12.0597 51.6558 12.5597C51.3262 13.0568 50.9143 13.4432 50.42 13.7188C49.9257 13.9943 49.3759 14.1321 48.7708 14.1321ZM48.8433 13.0625C49.2524 13.0625 49.6089 12.9545 49.9129 12.7386C50.2197 12.5227 50.4697 12.2358 50.6629 11.8778C50.8561 11.5199 50.9882 11.1278 51.0592 10.7017C51.1245 10.2898 51.1231 9.91335 51.0549 9.57244C50.9896 9.22869 50.8475 8.95312 50.6288 8.74574C50.41 8.53835 50.1061 8.43466 49.7168 8.43466C49.3078 8.43466 48.9484 8.54403 48.6387 8.76278C48.3319 8.97869 48.0819 9.26705 47.8887 9.62784C47.6984 9.98864 47.5691 10.3821 47.5009 10.8082C47.4356 11.2173 47.4356 11.5938 47.5009 11.9375C47.5663 12.2784 47.7083 12.5511 47.9271 12.7557C48.1458 12.9602 48.4512 13.0625 48.8433 13.0625ZM59.442 7.45455L55.9776 14H54.6139L53.327 7.45455H54.6437L55.4619 12.4915H55.5301L58.023 7.45455H59.442ZM61.8899 14.1321C61.2479 14.1321 60.7166 13.9943 60.2962 13.7188C59.8785 13.4403 59.5859 13.0497 59.4183 12.5469C59.2507 12.0412 59.2237 11.4489 59.3373 10.7699C59.4481 10.0994 59.6712 9.50852 60.0064 8.99716C60.3416 8.4858 60.7592 8.08665 61.2592 7.79972C61.7621 7.51278 62.3175 7.36932 62.9254 7.36932C63.2947 7.36932 63.6427 7.4304 63.9694 7.55256C64.299 7.67472 64.5788 7.86648 64.8089 8.12784C65.039 8.3892 65.1981 8.72869 65.2862 9.14631C65.3771 9.56108 65.3743 10.0653 65.2777 10.6591L65.2052 11.1108H59.9979L60.147 10.1562H64.1015C64.1612 9.82102 64.1456 9.52415 64.0547 9.26562C63.9638 9.00426 63.8075 8.7983 63.5859 8.64773C63.3672 8.49716 63.0916 8.42188 62.7592 8.42188C62.4183 8.42188 62.1001 8.51136 61.8047 8.69034C61.5092 8.86932 61.2621 9.09801 61.0632 9.37642C60.8672 9.65199 60.7436 9.93608 60.6925 10.2287L60.5433 11.1023C60.4694 11.5795 60.4822 11.9631 60.5817 12.2528C60.6839 12.5426 60.8629 12.7528 61.1186 12.8835C61.3743 13.0142 61.6939 13.0795 62.0774 13.0795C62.3246 13.0795 62.5533 13.0455 62.7635 12.9773C62.9765 12.9062 63.1655 12.8026 63.3302 12.6662C63.495 12.527 63.6328 12.3537 63.7436 12.1463L64.9112 12.3636C64.755 12.7187 64.5305 13.0298 64.2379 13.2969C63.9453 13.5611 63.6001 13.767 63.2024 13.9148C62.8075 14.0597 62.37 14.1321 61.8899 14.1321ZM68.3541 14.1278C67.8228 14.1278 67.3726 13.9929 67.0032 13.723C66.6368 13.4503 66.3768 13.0625 66.2234 12.5597C66.0728 12.054 66.0558 11.4474 66.1723 10.7401C66.2916 10.0327 66.5118 9.42756 66.8328 8.92472C67.1538 8.42187 67.543 8.03693 68.0004 7.76989C68.4578 7.50284 68.9507 7.36932 69.4791 7.36932C69.8853 7.36932 70.2007 7.4375 70.4251 7.57386C70.6524 7.70739 70.82 7.86364 70.928 8.04261C71.0359 8.22159 71.1169 8.37926 71.1709 8.51562H71.2433L71.7845 5.27273H73.0586L71.6098 14H70.3655L70.5402 12.9815H70.4336C70.3342 13.1207 70.1964 13.2798 70.0203 13.4588C69.847 13.6378 69.6254 13.794 69.3555 13.9276C69.0856 14.0611 68.7518 14.1278 68.3541 14.1278ZM68.7845 13.0412C69.151 13.0412 69.4791 12.9446 69.7689 12.7514C70.0615 12.5554 70.3044 12.2841 70.4976 11.9375C70.6936 11.5909 70.8299 11.1875 70.9066 10.7273C70.9834 10.2727 70.9819 9.875 70.9024 9.53409C70.8228 9.19318 70.6694 8.92756 70.4422 8.73722C70.2149 8.54687 69.9152 8.4517 69.543 8.4517C69.1595 8.4517 68.8257 8.55114 68.5416 8.75C68.2575 8.94886 68.0245 9.22017 67.8427 9.56392C67.6637 9.90767 67.5387 10.2955 67.4677 10.7273C67.3939 11.1648 67.391 11.5582 67.4592 11.9077C67.5274 12.2571 67.6709 12.5341 67.8896 12.7386C68.1084 12.9403 68.4066 13.0412 68.7845 13.0412Z" fill="#043D0A" fill-opacity="0.8"/>
<path d="M7.5 10L10 12.5L14.5 7.5" stroke="#043D0A" stroke-opacity="0.8" stroke-width="0.65"/>
<circle cx="11" cy="10" r="5.75" stroke="#043D0A" stroke-opacity="0.8" stroke-width="0.5"/>
</svg>
