<svg width="380" height="400" viewBox="0 0 380 400" fill="none" xmlns="http://www.w3.org/2000/svg">
<rect x="0.325" y="0.325" width="379.35" height="399.35" rx="21.675" fill="white"/>
<rect x="0.325" y="0.325" width="379.35" height="399.35" rx="21.675" stroke="#D9D9D9" stroke-width="0.65"/>
<g filter="url(#filter0_ii_738_446)">
<path d="M201.954 105.806C226.787 106.314 251.034 113.447 272.191 126.467C293.348 139.487 310.648 157.923 322.304 179.871C333.96 201.818 339.55 226.481 338.496 251.313C337.442 276.145 329.782 300.245 316.308 321.124C302.834 342.003 284.034 358.905 261.85 370.083C239.666 381.261 214.902 386.311 190.115 384.71C165.329 383.11 141.418 374.917 120.854 360.978C100.289 347.04 83.8163 327.861 73.1359 305.422L123.521 281.408C129.93 294.872 139.814 306.379 152.152 314.742C164.491 323.105 178.837 328.021 193.709 328.981C208.581 329.942 223.439 326.912 236.75 320.205C250.06 313.498 261.34 303.357 269.425 290.83C277.509 278.302 282.105 263.842 282.737 248.943C283.37 234.044 280.016 219.246 273.022 206.078C266.029 192.909 255.649 181.848 242.954 174.035C230.26 166.223 215.712 161.944 200.812 161.639L201.954 105.806Z" fill="#32CC2F"/>
</g>
<g clip-path="url(#clip0_738_446)">
<path d="M328.74 315.009V313.458L332.365 310.102C332.673 309.804 332.931 309.536 333.14 309.297C333.352 309.058 333.513 308.825 333.622 308.596C333.732 308.364 333.786 308.114 333.786 307.845C333.786 307.547 333.719 307.29 333.583 307.075C333.447 306.856 333.261 306.688 333.026 306.572C332.791 306.453 332.524 306.394 332.225 306.394C331.914 306.394 331.642 306.456 331.41 306.582C331.178 306.708 330.999 306.889 330.873 307.124C330.747 307.36 330.684 307.64 330.684 307.965H328.641C328.641 307.298 328.792 306.72 329.093 306.229C329.395 305.739 329.818 305.359 330.361 305.091C330.905 304.822 331.531 304.688 332.24 304.688C332.969 304.688 333.604 304.818 334.144 305.076C334.688 305.331 335.111 305.686 335.412 306.14C335.714 306.594 335.865 307.114 335.865 307.701C335.865 308.086 335.788 308.465 335.636 308.84C335.487 309.214 335.22 309.63 334.835 310.087C334.451 310.541 333.909 311.087 333.21 311.723L331.723 313.18V313.249H335.999V315.009H328.74ZM341.322 315.148C340.58 315.148 339.919 315.021 339.339 314.766C338.762 314.507 338.306 314.153 337.971 313.702C337.64 313.248 337.469 312.724 337.459 312.131H339.627C339.64 312.379 339.721 312.598 339.87 312.787C340.023 312.973 340.225 313.117 340.477 313.22C340.729 313.322 341.012 313.374 341.327 313.374C341.655 313.374 341.945 313.316 342.197 313.2C342.449 313.084 342.646 312.923 342.789 312.717C342.931 312.512 343.003 312.275 343.003 312.006C343.003 311.735 342.926 311.494 342.774 311.286C342.625 311.073 342.409 310.908 342.128 310.788C341.849 310.669 341.518 310.609 341.133 310.609H340.184V309.028H341.133C341.458 309.028 341.745 308.972 341.993 308.859C342.245 308.747 342.441 308.591 342.58 308.392C342.719 308.19 342.789 307.955 342.789 307.686C342.789 307.431 342.727 307.207 342.605 307.015C342.486 306.819 342.316 306.667 342.098 306.558C341.882 306.448 341.63 306.394 341.342 306.394C341.05 306.394 340.784 306.447 340.542 306.553C340.3 306.655 340.106 306.803 339.96 306.995C339.814 307.187 339.736 307.413 339.726 307.671H337.663C337.673 307.085 337.84 306.568 338.165 306.12C338.49 305.673 338.928 305.323 339.478 305.071C340.031 304.816 340.656 304.688 341.352 304.688C342.055 304.688 342.669 304.816 343.196 305.071C343.723 305.326 344.133 305.671 344.424 306.105C344.719 306.536 344.865 307.02 344.862 307.557C344.865 308.127 344.688 308.603 344.33 308.984C343.975 309.365 343.513 309.607 342.943 309.71V309.789C343.692 309.885 344.262 310.145 344.653 310.57C345.048 310.991 345.243 311.518 345.24 312.151C345.243 312.731 345.076 313.246 344.738 313.697C344.403 314.148 343.941 314.502 343.351 314.761C342.761 315.019 342.084 315.148 341.322 315.148ZM347.19 315.009L351.411 306.657V306.587H346.494V304.827H353.638V306.612L349.412 315.009H347.19Z" fill="#323232"/>
<path d="M328.614 332.129C328.256 332.123 327.898 332.055 327.54 331.924C327.182 331.793 326.855 331.573 326.56 331.264C326.264 330.951 326.027 330.529 325.848 329.998C325.669 329.464 325.58 328.793 325.58 327.987C325.58 327.214 325.652 326.529 325.797 325.933C325.942 325.333 326.152 324.829 326.428 324.42C326.703 324.008 327.036 323.695 327.425 323.482C327.817 323.269 328.259 323.163 328.75 323.163C329.239 323.163 329.673 323.261 330.054 323.457C330.438 323.65 330.75 323.92 330.991 324.266C331.233 324.613 331.389 325.012 331.46 325.464H330.42C330.324 325.072 330.136 324.746 329.858 324.488C329.58 324.229 329.21 324.1 328.75 324.1C328.074 324.1 327.541 324.394 327.152 324.982C326.766 325.57 326.571 326.396 326.568 327.458H326.636C326.795 327.217 326.984 327.011 327.203 326.84C327.425 326.667 327.669 326.533 327.936 326.44C328.203 326.346 328.486 326.299 328.784 326.299C329.284 326.299 329.741 326.424 330.156 326.674C330.571 326.921 330.903 327.264 331.153 327.701C331.403 328.136 331.528 328.634 331.528 329.197C331.528 329.737 331.408 330.231 331.166 330.68C330.925 331.126 330.585 331.481 330.148 331.745C329.713 332.006 329.202 332.134 328.614 332.129ZM328.614 331.191C328.972 331.191 329.293 331.102 329.577 330.923C329.864 330.744 330.089 330.504 330.254 330.202C330.422 329.901 330.506 329.566 330.506 329.197C330.506 328.836 330.425 328.508 330.263 328.212C330.104 327.914 329.884 327.677 329.602 327.501C329.324 327.325 329.006 327.237 328.648 327.237C328.378 327.237 328.126 327.291 327.893 327.398C327.661 327.504 327.456 327.648 327.28 327.833C327.107 328.018 326.97 328.229 326.871 328.468C326.771 328.704 326.722 328.952 326.722 329.214C326.722 329.56 326.803 329.884 326.964 330.185C327.129 330.487 327.354 330.729 327.638 330.914C327.925 331.099 328.25 331.191 328.614 331.191ZM333.477 332.009L337.38 324.288V324.22H332.88V323.282H338.471V324.271L334.585 332.009H333.477ZM339.31 332.077C339.099 332.077 338.919 332.002 338.768 331.852C338.618 331.701 338.543 331.521 338.543 331.31C338.543 331.1 338.618 330.92 338.768 330.769C338.919 330.619 339.099 330.543 339.31 330.543C339.52 330.543 339.7 330.619 339.851 330.769C340.001 330.92 340.077 331.1 340.077 331.31C340.077 331.45 340.041 331.577 339.97 331.694C339.902 331.81 339.81 331.904 339.693 331.975C339.58 332.043 339.452 332.077 339.31 332.077ZM341.961 332.009L345.865 324.288V324.22H341.365V323.282H346.956V324.271L343.069 332.009H341.961ZM352.993 330.373V329.913C352.993 329.595 353.058 329.303 353.189 329.039C353.322 328.772 353.516 328.559 353.768 328.4C354.024 328.238 354.334 328.157 354.697 328.157C355.067 328.157 355.376 328.238 355.626 328.4C355.876 328.559 356.065 328.772 356.193 329.039C356.321 329.303 356.385 329.595 356.385 329.913V330.373C356.385 330.691 356.32 330.984 356.189 331.251C356.061 331.515 355.871 331.728 355.618 331.89C355.368 332.049 355.061 332.129 354.697 332.129C354.328 332.129 354.017 332.049 353.764 331.89C353.511 331.728 353.32 331.515 353.189 331.251C353.058 330.984 352.993 330.691 352.993 330.373ZM353.862 329.913V330.373C353.862 330.637 353.925 330.874 354.05 331.085C354.175 331.292 354.391 331.396 354.697 331.396C354.996 331.396 355.206 331.292 355.328 331.085C355.453 330.874 355.516 330.637 355.516 330.373V329.913C355.516 329.648 355.456 329.413 355.337 329.205C355.217 328.995 355.004 328.89 354.697 328.89C354.399 328.89 354.185 328.995 354.054 329.205C353.926 329.413 353.862 329.648 353.862 329.913ZM348.646 325.379V324.918C348.646 324.6 348.712 324.309 348.842 324.045C348.976 323.778 349.169 323.565 349.422 323.406C349.678 323.244 349.987 323.163 350.351 323.163C350.72 323.163 351.03 323.244 351.28 323.406C351.53 323.565 351.719 323.778 351.847 324.045C351.974 324.309 352.038 324.6 352.038 324.918V325.379C352.038 325.697 351.973 325.989 351.842 326.256C351.714 326.521 351.524 326.734 351.271 326.896C351.021 327.055 350.714 327.134 350.351 327.134C349.982 327.134 349.67 327.055 349.418 326.896C349.165 326.734 348.973 326.521 348.842 326.256C348.712 325.989 348.646 325.697 348.646 325.379ZM349.516 324.918V325.379C349.516 325.643 349.578 325.88 349.703 326.09C349.828 326.298 350.044 326.401 350.351 326.401C350.649 326.401 350.859 326.298 350.982 326.09C351.107 325.88 351.169 325.643 351.169 325.379V324.918C351.169 324.654 351.109 324.418 350.99 324.211C350.871 324.001 350.658 323.896 350.351 323.896C350.053 323.896 349.838 324.001 349.707 324.211C349.58 324.418 349.516 324.654 349.516 324.918ZM348.97 332.009L354.97 323.282H355.942L349.942 332.009H348.97Z" fill="#767676"/>
</g>
<g filter="url(#filter1_ii_738_446)">
<path d="M73.2099 305.577C60.5075 278.975 56.5474 249.031 61.8974 220.038L116.778 230.178C113.568 247.574 115.944 265.54 123.566 281.502L73.2099 305.577Z" fill="#CE331E"/>
</g>
<g clip-path="url(#clip1_738_446)">
<path d="M36.3612 222.638C35.6188 222.638 34.9576 222.51 34.3776 222.255C33.8009 221.996 33.3451 221.642 33.0104 221.191C32.6789 220.737 32.5083 220.213 32.4983 219.62H34.6659C34.6792 219.869 34.7604 220.087 34.9095 220.276C35.062 220.462 35.2642 220.606 35.5161 220.709C35.768 220.812 36.0513 220.863 36.3662 220.863C36.6943 220.863 36.9843 220.805 37.2362 220.689C37.4881 220.573 37.6853 220.412 37.8279 220.207C37.9704 220.001 38.0416 219.764 38.0416 219.496C38.0416 219.224 37.9654 218.984 37.8129 218.775C37.6638 218.563 37.4484 218.397 37.1666 218.278C36.8882 218.158 36.5568 218.099 36.1723 218.099H35.2227V216.518H36.1723C36.4971 216.518 36.7838 216.461 37.0324 216.349C37.2843 216.236 37.4798 216.08 37.6191 215.881C37.7583 215.679 37.8279 215.444 37.8279 215.175C37.8279 214.92 37.7665 214.696 37.6439 214.504C37.5246 214.309 37.3556 214.156 37.1368 214.047C36.9214 213.937 36.6695 213.883 36.3811 213.883C36.0895 213.883 35.8227 213.936 35.5807 214.042C35.3387 214.145 35.1449 214.292 34.999 214.484C34.8532 214.677 34.7753 214.902 34.7654 215.16H32.7021C32.7121 214.574 32.8795 214.057 33.2043 213.609C33.5291 213.162 33.9666 212.812 34.5168 212.56C35.0703 212.305 35.695 212.178 36.3911 212.178C37.0937 212.178 37.7085 212.305 38.2355 212.56C38.7625 212.816 39.1718 213.16 39.4635 213.594C39.7585 214.025 39.9043 214.509 39.901 215.046C39.9043 215.616 39.727 216.092 39.3691 216.473C39.0144 216.854 38.5521 217.096 37.982 217.199V217.278C38.731 217.374 39.3011 217.635 39.6922 218.059C40.0866 218.48 40.2822 219.007 40.2789 219.64C40.2822 220.22 40.1148 220.735 39.7767 221.186C39.442 221.637 38.9796 221.991 38.3896 222.25C37.7997 222.508 37.1236 222.638 36.3612 222.638ZM45.545 222.638C44.8424 222.638 44.2159 222.508 43.6657 222.25C43.1189 221.991 42.6847 221.635 42.3632 221.181C42.0417 220.727 41.8743 220.207 41.8611 219.62H43.9491C43.9723 220.014 44.1381 220.334 44.4463 220.58C44.7545 220.825 45.1208 220.947 45.545 220.947C45.8831 220.947 46.1814 220.873 46.4399 220.724C46.7017 220.571 46.9056 220.361 47.0514 220.092C47.2006 219.821 47.2751 219.509 47.2751 219.158C47.2751 218.8 47.1989 218.485 47.0464 218.213C46.8973 217.941 46.6901 217.729 46.425 217.577C46.1598 217.424 45.8566 217.346 45.5152 217.343C45.2169 217.343 44.9269 217.404 44.6452 217.527C44.3667 217.65 44.1497 217.817 43.9939 218.029L42.0798 217.686L42.5621 212.317H48.7865V214.077H44.3369L44.0734 216.627H44.1331C44.3121 216.375 44.5822 216.166 44.9434 216.001C45.3047 215.835 45.7091 215.752 46.1565 215.752C46.7697 215.752 47.3166 215.896 47.7971 216.185C48.2777 216.473 48.6572 216.869 48.9356 217.373C49.214 217.873 49.3516 218.45 49.3483 219.103C49.3516 219.789 49.1925 220.399 48.871 220.932C48.5528 221.463 48.107 221.88 47.5336 222.185C46.9636 222.487 46.3007 222.638 45.545 222.638Z" fill="#323232"/>
<path d="M33.456 230.771V239.499H32.3991V231.879H32.348L30.2173 233.294V232.22L32.3991 230.771H33.456ZM38.8125 239.618C38.1705 239.618 37.6236 239.443 37.1719 239.094C36.7202 238.741 36.375 238.231 36.1364 237.564C35.8977 236.893 35.7784 236.084 35.7784 235.135C35.7784 234.192 35.8977 233.386 36.1364 232.719C36.3778 232.048 36.7244 231.537 37.1761 231.185C37.6307 230.83 38.1761 230.652 38.8125 230.652C39.4489 230.652 39.9929 230.83 40.4446 231.185C40.8991 231.537 41.2457 232.048 41.4844 232.719C41.7259 233.386 41.8466 234.192 41.8466 235.135C41.8466 236.084 41.7273 236.893 41.4886 237.564C41.25 238.231 40.9048 238.741 40.4531 239.094C40.0014 239.443 39.4545 239.618 38.8125 239.618ZM38.8125 238.68C39.4489 238.68 39.9432 238.374 40.2955 237.76C40.6477 237.146 40.8239 236.271 40.8239 235.135C40.8239 234.379 40.7429 233.736 40.581 233.205C40.4219 232.673 40.1918 232.268 39.8906 231.99C39.5923 231.712 39.233 231.572 38.8125 231.572C38.1818 231.572 37.6889 231.883 37.3338 232.506C36.9787 233.125 36.8011 234.001 36.8011 235.135C36.8011 235.891 36.8807 236.533 37.0398 237.061C37.1989 237.589 37.4276 237.991 37.7259 238.267C38.027 238.543 38.3892 238.68 38.8125 238.68ZM47.9148 237.862V237.402C47.9148 237.084 47.9801 236.793 48.1108 236.528C48.2443 236.261 48.4375 236.048 48.6903 235.889C48.946 235.727 49.2557 235.646 49.6193 235.646C49.9886 235.646 50.2983 235.727 50.5483 235.889C50.7983 236.048 50.9872 236.261 51.1151 236.528C51.2429 236.793 51.3068 237.084 51.3068 237.402V237.862C51.3068 238.18 51.2415 238.473 51.1108 238.74C50.983 239.004 50.7926 239.217 50.5398 239.379C50.2898 239.538 49.983 239.618 49.6193 239.618C49.25 239.618 48.9389 239.538 48.6861 239.379C48.4332 239.217 48.2415 239.004 48.1108 238.74C47.9801 238.473 47.9148 238.18 47.9148 237.862ZM48.7841 237.402V237.862C48.7841 238.126 48.8466 238.364 48.9716 238.574C49.0966 238.781 49.3125 238.885 49.6193 238.885C49.9176 238.885 50.1278 238.781 50.25 238.574C50.375 238.364 50.4375 238.126 50.4375 237.862V237.402C50.4375 237.138 50.3778 236.902 50.2585 236.695C50.1392 236.484 49.9261 236.379 49.6193 236.379C49.321 236.379 49.1065 236.484 48.9759 236.695C48.848 236.902 48.7841 237.138 48.7841 237.402ZM43.5682 232.868V232.408C43.5682 232.089 43.6335 231.798 43.7642 231.534C43.8977 231.267 44.0909 231.054 44.3438 230.895C44.5994 230.733 44.9091 230.652 45.2727 230.652C45.642 230.652 45.9517 230.733 46.2017 230.895C46.4517 231.054 46.6406 231.267 46.7685 231.534C46.8963 231.798 46.9602 232.089 46.9602 232.408V232.868C46.9602 233.186 46.8949 233.479 46.7642 233.746C46.6364 234.01 46.446 234.223 46.1932 234.385C45.9432 234.544 45.6364 234.624 45.2727 234.624C44.9034 234.624 44.5923 234.544 44.3395 234.385C44.0866 234.223 43.8949 234.01 43.7642 233.746C43.6335 233.479 43.5682 233.186 43.5682 232.868ZM44.4375 232.408V232.868C44.4375 233.132 44.5 233.369 44.625 233.58C44.75 233.787 44.9659 233.891 45.2727 233.891C45.571 233.891 45.7813 233.787 45.9034 233.58C46.0284 233.369 46.0909 233.132 46.0909 232.868V232.408C46.0909 232.143 46.0312 231.908 45.9119 231.7C45.7926 231.49 45.5795 231.385 45.2727 231.385C44.9744 231.385 44.7599 231.49 44.6293 231.7C44.5014 231.908 44.4375 232.143 44.4375 232.408ZM43.892 239.499L49.892 230.771H50.8636L44.8636 239.499H43.892Z" fill="#767676"/>
</g>
<g filter="url(#filter2_ii_738_446)">
<path d="M61.8571 220.257C67.8233 187.633 85.2017 158.199 110.88 137.228C136.558 116.257 168.858 105.118 201.996 105.806L200.837 161.639C180.955 161.226 161.575 167.909 146.168 180.492C130.761 193.075 120.334 210.735 116.754 230.31L61.8571 220.257Z" fill="#9462EC"/>
</g>
<g clip-path="url(#clip2_738_446)">
<path d="M112.352 104L116.573 95.6477V95.5781H111.656V93.8182H118.8V95.603L114.574 104H112.352ZM123.869 104.139C123.103 104.139 122.422 104.015 121.825 103.766C121.232 103.514 120.766 103.171 120.428 102.737C120.09 102.303 119.921 101.811 119.921 101.261C119.921 100.836 120.017 100.447 120.21 100.092C120.405 99.7344 120.67 99.4377 121.005 99.2024C121.34 98.9638 121.714 98.8113 122.129 98.745V98.6754C121.585 98.5661 121.144 98.3026 120.806 97.8849C120.468 97.464 120.299 96.9751 120.299 96.4183C120.299 95.8913 120.453 95.4223 120.761 95.0114C121.07 94.5971 121.492 94.2723 122.029 94.0369C122.569 93.7983 123.183 93.679 123.869 93.679C124.555 93.679 125.166 93.7983 125.703 94.0369C126.243 94.2756 126.668 94.602 126.976 95.0163C127.284 95.4273 127.44 95.8946 127.443 96.4183C127.44 96.9785 127.268 97.4673 126.926 97.8849C126.585 98.3026 126.147 98.5661 125.614 98.6754V98.745C126.021 98.8113 126.391 98.9638 126.722 99.2024C127.057 99.4377 127.322 99.7344 127.518 100.092C127.717 100.447 127.818 100.836 127.821 101.261C127.818 101.811 127.647 102.303 127.309 102.737C126.971 103.171 126.504 103.514 125.907 103.766C125.314 104.015 124.634 104.139 123.869 104.139ZM123.869 102.558C124.21 102.558 124.508 102.497 124.764 102.374C125.019 102.248 125.218 102.076 125.36 101.857C125.506 101.635 125.579 101.38 125.579 101.092C125.579 100.797 125.504 100.536 125.355 100.311C125.206 100.082 125.004 99.9034 124.749 99.7741C124.493 99.6416 124.2 99.5753 123.869 99.5753C123.541 99.5753 123.247 99.6416 122.989 99.7741C122.73 99.9034 122.526 100.082 122.377 100.311C122.231 100.536 122.158 100.797 122.158 101.092C122.158 101.38 122.23 101.635 122.372 101.857C122.515 102.076 122.715 102.248 122.974 102.374C123.232 102.497 123.531 102.558 123.869 102.558ZM123.869 98.0092C124.154 98.0092 124.407 97.9512 124.629 97.8352C124.851 97.7192 125.025 97.5585 125.151 97.353C125.277 97.1475 125.34 96.9105 125.34 96.642C125.34 96.3769 125.277 96.1449 125.151 95.946C125.025 95.7438 124.853 95.5864 124.634 95.4737C124.416 95.3577 124.16 95.2997 123.869 95.2997C123.58 95.2997 123.325 95.3577 123.103 95.4737C122.881 95.5864 122.707 95.7438 122.581 95.946C122.458 96.1449 122.397 96.3769 122.397 96.642C122.397 96.9105 122.46 97.1475 122.586 97.353C122.712 97.5585 122.886 97.7192 123.108 97.8352C123.33 97.9512 123.584 98.0092 123.869 98.0092Z" fill="#323232"/>
<path d="M103.267 121V120.233L106.147 117.08C106.485 116.71 106.764 116.389 106.983 116.116C107.201 115.841 107.363 115.582 107.468 115.341C107.576 115.097 107.63 114.841 107.63 114.574C107.63 114.267 107.556 114.001 107.409 113.777C107.264 113.553 107.065 113.379 106.812 113.257C106.559 113.135 106.275 113.074 105.96 113.074C105.625 113.074 105.332 113.143 105.082 113.283C104.835 113.419 104.643 113.611 104.507 113.858C104.373 114.105 104.306 114.395 104.306 114.727H103.301C103.301 114.216 103.419 113.767 103.654 113.381C103.89 112.994 104.211 112.693 104.618 112.477C105.027 112.261 105.485 112.153 105.994 112.153C106.505 112.153 106.958 112.261 107.353 112.477C107.748 112.693 108.058 112.984 108.282 113.351C108.507 113.717 108.619 114.125 108.619 114.574C108.619 114.895 108.561 115.209 108.444 115.516C108.331 115.82 108.132 116.159 107.848 116.534C107.566 116.906 107.176 117.361 106.676 117.898L104.716 119.994V120.062H108.772V121H103.267ZM110.532 121V120.233L113.413 117.08C113.751 116.71 114.029 116.389 114.248 116.116C114.467 115.841 114.629 115.582 114.734 115.341C114.842 115.097 114.896 114.841 114.896 114.574C114.896 114.267 114.822 114.001 114.674 113.777C114.529 113.553 114.331 113.379 114.078 113.257C113.825 113.135 113.541 113.074 113.225 113.074C112.89 113.074 112.598 113.143 112.348 113.283C112.1 113.419 111.909 113.611 111.772 113.858C111.639 114.105 111.572 114.395 111.572 114.727H110.566C110.566 114.216 110.684 113.767 110.92 113.381C111.156 112.994 111.477 112.693 111.883 112.477C112.292 112.261 112.751 112.153 113.26 112.153C113.771 112.153 114.224 112.261 114.619 112.477C115.014 112.693 115.324 112.984 115.548 113.351C115.772 113.717 115.885 114.125 115.885 114.574C115.885 114.895 115.826 115.209 115.71 115.516C115.596 115.82 115.397 116.159 115.113 116.534C114.832 116.906 114.441 117.361 113.941 117.898L111.981 119.994V120.062H116.038V121H110.532ZM118.548 121.068C118.338 121.068 118.157 120.993 118.007 120.842C117.856 120.692 117.781 120.511 117.781 120.301C117.781 120.091 117.856 119.911 118.007 119.76C118.157 119.609 118.338 119.534 118.548 119.534C118.758 119.534 118.939 119.609 119.089 119.76C119.24 119.911 119.315 120.091 119.315 120.301C119.315 120.44 119.279 120.568 119.208 120.685C119.14 120.801 119.048 120.895 118.931 120.966C118.818 121.034 118.69 121.068 118.548 121.068ZM123.723 121.119C123.161 121.119 122.659 121.023 122.219 120.83C121.782 120.636 121.434 120.368 121.175 120.024C120.919 119.678 120.78 119.276 120.757 118.818H121.831C121.854 119.099 121.951 119.342 122.121 119.547C122.292 119.749 122.515 119.905 122.79 120.016C123.066 120.126 123.371 120.182 123.706 120.182C124.081 120.182 124.414 120.116 124.703 119.986C124.993 119.855 125.221 119.673 125.385 119.44C125.55 119.207 125.632 118.938 125.632 118.631C125.632 118.31 125.553 118.027 125.394 117.783C125.235 117.536 125.002 117.342 124.695 117.203C124.388 117.064 124.013 116.994 123.57 116.994H122.871V116.057H123.57C123.917 116.057 124.221 115.994 124.482 115.869C124.746 115.744 124.952 115.568 125.1 115.341C125.25 115.114 125.326 114.847 125.326 114.54C125.326 114.244 125.26 113.987 125.13 113.768C124.999 113.55 124.814 113.379 124.576 113.257C124.34 113.135 124.061 113.074 123.74 113.074C123.439 113.074 123.155 113.129 122.888 113.24C122.624 113.348 122.408 113.506 122.24 113.713C122.073 113.918 121.982 114.165 121.968 114.455H120.945C120.962 113.997 121.1 113.597 121.358 113.253C121.617 112.906 121.955 112.636 122.373 112.443C122.793 112.25 123.255 112.153 123.757 112.153C124.297 112.153 124.76 112.263 125.147 112.482C125.533 112.697 125.83 112.983 126.037 113.338C126.245 113.693 126.348 114.077 126.348 114.489C126.348 114.98 126.219 115.399 125.961 115.746C125.705 116.092 125.357 116.332 124.917 116.466V116.534C125.468 116.625 125.898 116.859 126.208 117.237C126.517 117.612 126.672 118.077 126.672 118.631C126.672 119.105 126.543 119.531 126.284 119.909C126.029 120.284 125.679 120.58 125.236 120.795C124.793 121.011 124.289 121.119 123.723 121.119ZM132.864 119.364V118.903C132.864 118.585 132.929 118.294 133.06 118.03C133.194 117.763 133.387 117.55 133.64 117.391C133.895 117.229 134.205 117.148 134.569 117.148C134.938 117.148 135.248 117.229 135.498 117.391C135.748 117.55 135.936 117.763 136.064 118.03C136.192 118.294 136.256 118.585 136.256 118.903V119.364C136.256 119.682 136.191 119.974 136.06 120.241C135.932 120.506 135.742 120.719 135.489 120.881C135.239 121.04 134.932 121.119 134.569 121.119C134.199 121.119 133.888 121.04 133.635 120.881C133.382 120.719 133.191 120.506 133.06 120.241C132.929 119.974 132.864 119.682 132.864 119.364ZM133.733 118.903V119.364C133.733 119.628 133.796 119.865 133.921 120.075C134.046 120.283 134.262 120.386 134.569 120.386C134.867 120.386 135.077 120.283 135.199 120.075C135.324 119.865 135.387 119.628 135.387 119.364V118.903C135.387 118.639 135.327 118.403 135.208 118.196C135.088 117.986 134.875 117.881 134.569 117.881C134.27 117.881 134.056 117.986 133.925 118.196C133.797 118.403 133.733 118.639 133.733 118.903ZM128.517 114.369V113.909C128.517 113.591 128.583 113.3 128.713 113.036C128.847 112.768 129.04 112.555 129.293 112.396C129.549 112.234 129.858 112.153 130.222 112.153C130.591 112.153 130.901 112.234 131.151 112.396C131.401 112.555 131.59 112.768 131.718 113.036C131.846 113.3 131.909 113.591 131.909 113.909V114.369C131.909 114.687 131.844 114.98 131.713 115.247C131.586 115.511 131.395 115.724 131.142 115.886C130.892 116.045 130.586 116.125 130.222 116.125C129.853 116.125 129.542 116.045 129.289 115.886C129.036 115.724 128.844 115.511 128.713 115.247C128.583 114.98 128.517 114.687 128.517 114.369ZM129.387 113.909V114.369C129.387 114.634 129.449 114.871 129.574 115.081C129.699 115.288 129.915 115.392 130.222 115.392C130.52 115.392 130.73 115.288 130.853 115.081C130.978 114.871 131.04 114.634 131.04 114.369V113.909C131.04 113.645 130.98 113.409 130.861 113.202C130.742 112.991 130.529 112.886 130.222 112.886C129.924 112.886 129.709 112.991 129.578 113.202C129.451 113.409 129.387 113.645 129.387 113.909ZM128.841 121L134.841 112.273H135.813L129.813 121H128.841Z" fill="#767676"/>
</g>
<path d="M119.979 24H118.348L122.012 13.8182H123.787L127.451 24H125.82L122.942 15.6676H122.862L119.979 24ZM120.252 20.0128H125.542V21.3054H120.252V20.0128ZM131.888 16.3636V17.5568H127.717V16.3636H131.888ZM128.836 14.5341H130.322V21.7578C130.322 22.0462 130.365 22.2633 130.451 22.4091C130.538 22.5516 130.649 22.6494 130.784 22.7024C130.924 22.7521 131.074 22.777 131.237 22.777C131.356 22.777 131.461 22.7687 131.55 22.7521C131.64 22.7356 131.709 22.7223 131.759 22.7124L132.027 23.9403C131.941 23.9735 131.819 24.0066 131.659 24.0398C131.5 24.0762 131.301 24.0961 131.063 24.0994C130.672 24.1061 130.307 24.0365 129.969 23.8906C129.631 23.7448 129.358 23.5194 129.149 23.2145C128.94 22.9096 128.836 22.5268 128.836 22.0661V14.5341ZM137.097 16.3636V17.5568H132.926V16.3636H137.097ZM134.045 14.5341H135.531V21.7578C135.531 22.0462 135.574 22.2633 135.66 22.4091C135.747 22.5516 135.858 22.6494 135.993 22.7024C136.133 22.7521 136.283 22.777 136.446 22.777C136.565 22.777 136.67 22.7687 136.759 22.7521C136.849 22.7356 136.918 22.7223 136.968 22.7124L137.236 23.9403C137.15 23.9735 137.028 24.0066 136.868 24.0398C136.709 24.0762 136.51 24.0961 136.272 24.0994C135.881 24.1061 135.516 24.0365 135.178 23.8906C134.84 23.7448 134.567 23.5194 134.358 23.2145C134.149 22.9096 134.045 22.5268 134.045 22.0661V14.5341ZM141.951 24.1541C141.198 24.1541 140.55 23.9934 140.007 23.6719C139.467 23.3471 139.049 22.8913 138.754 22.3047C138.462 21.7147 138.316 21.0237 138.316 20.2315C138.316 19.4493 138.462 18.7599 138.754 18.1634C139.049 17.5668 139.46 17.1011 139.987 16.7663C140.517 16.4316 141.137 16.2642 141.846 16.2642C142.277 16.2642 142.695 16.3355 143.099 16.478C143.503 16.6205 143.866 16.8442 144.188 17.1491C144.509 17.4541 144.763 17.8501 144.949 18.3374C145.134 18.8213 145.227 19.4096 145.227 20.1023V20.6293H139.157V19.5156H143.77C143.77 19.1245 143.691 18.7782 143.532 18.4766C143.373 18.1716 143.149 17.9313 142.86 17.7557C142.575 17.58 142.241 17.4922 141.856 17.4922C141.439 17.4922 141.074 17.5949 140.762 17.8004C140.454 18.0026 140.216 18.2678 140.047 18.5959C139.881 18.9207 139.798 19.2737 139.798 19.6548V20.5249C139.798 21.0353 139.887 21.4695 140.066 21.8274C140.249 22.1854 140.502 22.4588 140.827 22.6477C141.152 22.8333 141.531 22.9261 141.966 22.9261C142.247 22.9261 142.504 22.8864 142.736 22.8068C142.968 22.724 143.169 22.6013 143.338 22.4389C143.507 22.2765 143.636 22.076 143.725 21.8374L145.132 22.0909C145.02 22.5052 144.818 22.8681 144.526 23.1797C144.238 23.4879 143.875 23.7282 143.437 23.9006C143.003 24.0696 142.507 24.1541 141.951 24.1541ZM148.363 19.4659V24H146.876V16.3636H148.303V17.6065H148.398C148.573 17.2022 148.848 16.8774 149.223 16.6321C149.601 16.3868 150.076 16.2642 150.65 16.2642C151.17 16.2642 151.626 16.3736 152.017 16.5923C152.408 16.8078 152.711 17.1293 152.927 17.5568C153.142 17.9844 153.25 18.513 153.25 19.1428V24H151.763V19.3217C151.763 18.7682 151.619 18.3357 151.331 18.0241C151.042 17.7093 150.646 17.5518 150.143 17.5518C149.798 17.5518 149.491 17.6264 149.223 17.7756C148.958 17.9247 148.747 18.1435 148.591 18.4318C148.439 18.7169 148.363 19.0616 148.363 19.4659ZM158.102 24.1491C157.486 24.1491 156.935 23.9917 156.452 23.6768C155.971 23.3587 155.593 22.9062 155.318 22.3196C155.046 21.7296 154.91 21.022 154.91 20.1967C154.91 19.3714 155.048 18.6655 155.323 18.0788C155.601 17.4922 155.983 17.0431 156.466 16.7315C156.95 16.42 157.499 16.2642 158.112 16.2642C158.586 16.2642 158.967 16.3438 159.256 16.5028C159.547 16.6586 159.773 16.8409 159.932 17.0497C160.094 17.2585 160.22 17.4425 160.309 17.6016H160.399V13.8182H161.885V24H160.434V22.8118H160.309C160.22 22.9742 160.091 23.1598 159.922 23.3686C159.756 23.5774 159.527 23.7597 159.236 23.9155C158.944 24.0713 158.566 24.1491 158.102 24.1491ZM158.43 22.8814C158.858 22.8814 159.219 22.7687 159.514 22.5433C159.812 22.3146 160.038 21.9981 160.19 21.5938C160.346 21.1894 160.424 20.7187 160.424 20.1818C160.424 19.6515 160.348 19.1875 160.195 18.7898C160.043 18.392 159.819 18.0821 159.524 17.8601C159.229 17.638 158.864 17.527 158.43 17.527C157.983 17.527 157.61 17.643 157.312 17.875C157.013 18.107 156.788 18.4235 156.635 18.8246C156.486 19.2256 156.412 19.678 156.412 20.1818C156.412 20.6922 156.488 21.1513 156.64 21.5589C156.793 21.9666 157.018 22.2898 157.317 22.5284C157.618 22.7637 157.989 22.8814 158.43 22.8814ZM166.229 24.169C165.746 24.169 165.308 24.0795 164.917 23.9006C164.526 23.7183 164.216 23.4548 163.987 23.1101C163.762 22.7654 163.649 22.3428 163.649 21.8423C163.649 21.4115 163.732 21.0568 163.898 20.7784C164.063 20.5 164.287 20.2796 164.569 20.1172C164.851 19.9548 165.165 19.8321 165.513 19.7493C165.862 19.6664 166.216 19.6035 166.577 19.5604C167.035 19.5073 167.406 19.4643 167.691 19.4311C167.976 19.3946 168.183 19.3366 168.312 19.2571C168.442 19.1776 168.506 19.0483 168.506 18.8693V18.8345C168.506 18.4003 168.384 18.0639 168.138 17.8253C167.897 17.5866 167.535 17.4673 167.055 17.4673C166.554 17.4673 166.16 17.5784 165.871 17.8004C165.586 18.0192 165.389 18.2628 165.28 18.5312L163.883 18.2131C164.049 17.7491 164.29 17.3745 164.609 17.0895C164.93 16.8011 165.3 16.5923 165.717 16.4631C166.135 16.3305 166.574 16.2642 167.035 16.2642C167.34 16.2642 167.663 16.3007 168.004 16.3736C168.349 16.4432 168.67 16.5724 168.969 16.7614C169.27 16.9503 169.517 17.2204 169.71 17.5717C169.902 17.9197 169.998 18.3722 169.998 18.929V24H168.546V22.956H168.487C168.39 23.1482 168.246 23.3371 168.054 23.5227C167.862 23.7083 167.615 23.8625 167.313 23.9851C167.012 24.1077 166.65 24.169 166.229 24.169ZM166.553 22.9759C166.964 22.9759 167.315 22.8946 167.607 22.7322C167.902 22.5698 168.125 22.3577 168.278 22.0959C168.433 21.8307 168.511 21.5473 168.511 21.2457V20.2614C168.458 20.3144 168.356 20.3641 168.203 20.4105C168.054 20.4536 167.883 20.4917 167.691 20.5249C167.499 20.5547 167.312 20.5829 167.129 20.6094C166.947 20.6326 166.795 20.6525 166.672 20.669C166.384 20.7055 166.12 20.7668 165.881 20.853C165.646 20.9392 165.457 21.0634 165.315 21.2259C165.175 21.3849 165.106 21.5971 165.106 21.8622C165.106 22.2301 165.242 22.5085 165.513 22.6974C165.785 22.883 166.132 22.9759 166.553 22.9759ZM173.464 19.4659V24H171.978V16.3636H173.405V17.6065H173.499C173.675 17.2022 173.95 16.8774 174.324 16.6321C174.702 16.3868 175.178 16.2642 175.751 16.2642C176.272 16.2642 176.727 16.3736 177.118 16.5923C177.51 16.8078 177.813 17.1293 178.028 17.5568C178.244 17.9844 178.351 18.513 178.351 19.1428V24H176.865V19.3217C176.865 18.7682 176.721 18.3357 176.432 18.0241C176.144 17.7093 175.748 17.5518 175.244 17.5518C174.899 17.5518 174.593 17.6264 174.324 17.7756C174.059 17.9247 173.849 18.1435 173.693 18.4318C173.541 18.7169 173.464 19.0616 173.464 19.4659ZM183.562 24.1541C182.823 24.1541 182.186 23.9867 181.653 23.652C181.122 23.3139 180.715 22.8482 180.43 22.255C180.144 21.6617 180.002 20.9822 180.002 20.2166C180.002 19.4411 180.148 18.7566 180.439 18.1634C180.731 17.5668 181.142 17.1011 181.672 16.7663C182.203 16.4316 182.827 16.2642 183.547 16.2642C184.127 16.2642 184.644 16.3719 185.098 16.5874C185.552 16.7995 185.918 17.0978 186.197 17.4822C186.478 17.8667 186.646 18.3158 186.699 18.8295H185.252C185.172 18.4716 184.99 18.1634 184.705 17.9048C184.423 17.6463 184.046 17.517 183.572 17.517C183.157 17.517 182.794 17.6264 182.483 17.8452C182.175 18.0606 181.934 18.3688 181.762 18.7699C181.59 19.1676 181.503 19.6383 181.503 20.1818C181.503 20.7386 181.588 21.2192 181.757 21.6236C181.926 22.0279 182.165 22.3411 182.473 22.5632C182.784 22.7853 183.151 22.8963 183.572 22.8963C183.853 22.8963 184.108 22.8449 184.337 22.7422C184.569 22.6361 184.763 22.4853 184.919 22.2898C185.078 22.0942 185.189 21.8589 185.252 21.5838H186.699C186.646 22.0777 186.485 22.5185 186.216 22.9062C185.948 23.294 185.588 23.599 185.138 23.821C184.69 24.0431 184.165 24.1541 183.562 24.1541ZM191.58 24.1541C190.827 24.1541 190.179 23.9934 189.636 23.6719C189.095 23.3471 188.678 22.8913 188.383 22.3047C188.091 21.7147 187.945 21.0237 187.945 20.2315C187.945 19.4493 188.091 18.7599 188.383 18.1634C188.678 17.5668 189.089 17.1011 189.616 16.7663C190.146 16.4316 190.766 16.2642 191.475 16.2642C191.906 16.2642 192.324 16.3355 192.728 16.478C193.132 16.6205 193.495 16.8442 193.817 17.1491C194.138 17.4541 194.392 17.8501 194.577 18.3374C194.763 18.8213 194.856 19.4096 194.856 20.1023V20.6293H188.786V19.5156H193.399C193.399 19.1245 193.32 18.7782 193.161 18.4766C193.001 18.1716 192.778 17.9313 192.489 17.7557C192.204 17.58 191.87 17.4922 191.485 17.4922C191.067 17.4922 190.703 17.5949 190.391 17.8004C190.083 18.0026 189.844 18.2678 189.675 18.5959C189.51 18.9207 189.427 19.2737 189.427 19.6548V20.5249C189.427 21.0353 189.516 21.4695 189.695 21.8274C189.878 22.1854 190.131 22.4588 190.456 22.6477C190.781 22.8333 191.16 22.9261 191.594 22.9261C191.876 22.9261 192.133 22.8864 192.365 22.8068C192.597 22.724 192.798 22.6013 192.967 22.4389C193.136 22.2765 193.265 22.076 193.354 21.8374L194.761 22.0909C194.649 22.5052 194.446 22.8681 194.155 23.1797C193.866 23.4879 193.504 23.7282 193.066 23.9006C192.632 24.0696 192.136 24.1541 191.58 24.1541ZM203.427 24.1541C202.711 24.1541 202.086 23.9901 201.553 23.6619C201.019 23.3338 200.605 22.8748 200.31 22.2848C200.015 21.6948 199.867 21.0054 199.867 20.2166C199.867 19.4245 200.015 18.7318 200.31 18.1385C200.605 17.5452 201.019 17.0845 201.553 16.7564C202.086 16.4283 202.711 16.2642 203.427 16.2642C204.143 16.2642 204.768 16.4283 205.301 16.7564C205.835 17.0845 206.249 17.5452 206.544 18.1385C206.839 18.7318 206.987 19.4245 206.987 20.2166C206.987 21.0054 206.839 21.6948 206.544 22.2848C206.249 22.8748 205.835 23.3338 205.301 23.6619C204.768 23.9901 204.143 24.1541 203.427 24.1541ZM203.432 22.9062C203.896 22.9062 204.28 22.7836 204.585 22.5384C204.89 22.2931 205.116 21.9666 205.261 21.5589C205.411 21.1513 205.485 20.7022 205.485 20.2116C205.485 19.7244 205.411 19.277 205.261 18.8693C205.116 18.4583 204.89 18.1286 204.585 17.88C204.28 17.6314 203.896 17.5071 203.432 17.5071C202.964 17.5071 202.577 17.6314 202.268 17.88C201.964 18.1286 201.737 18.4583 201.587 18.8693C201.442 19.277 201.369 19.7244 201.369 20.2116C201.369 20.7022 201.442 21.1513 201.587 21.5589C201.737 21.9666 201.964 22.2931 202.268 22.5384C202.577 22.7836 202.964 22.9062 203.432 22.9062ZM214.919 16.3636L212.15 24H210.559L207.784 16.3636H209.38L211.314 22.2401H211.394L213.323 16.3636H214.919ZM219.347 24.1541C218.595 24.1541 217.947 23.9934 217.403 23.6719C216.863 23.3471 216.445 22.8913 216.15 22.3047C215.859 21.7147 215.713 21.0237 215.713 20.2315C215.713 19.4493 215.859 18.7599 216.15 18.1634C216.445 17.5668 216.856 17.1011 217.383 16.7663C217.914 16.4316 218.533 16.2642 219.243 16.2642C219.674 16.2642 220.091 16.3355 220.496 16.478C220.9 16.6205 221.263 16.8442 221.584 17.1491C221.906 17.4541 222.159 17.8501 222.345 18.3374C222.531 18.8213 222.623 19.4096 222.623 20.1023V20.6293H216.553V19.5156H221.167C221.167 19.1245 221.087 18.7782 220.928 18.4766C220.769 18.1716 220.545 17.9313 220.257 17.7557C219.972 17.58 219.637 17.4922 219.253 17.4922C218.835 17.4922 218.47 17.5949 218.159 17.8004C217.851 18.0026 217.612 18.2678 217.443 18.5959C217.277 18.9207 217.194 19.2737 217.194 19.6548V20.5249C217.194 21.0353 217.284 21.4695 217.463 21.8274C217.645 22.1854 217.899 22.4588 218.224 22.6477C218.548 22.8333 218.928 22.9261 219.362 22.9261C219.644 22.9261 219.901 22.8864 220.133 22.8068C220.365 22.724 220.565 22.6013 220.734 22.4389C220.903 22.2765 221.032 22.076 221.122 21.8374L222.529 22.0909C222.416 22.5052 222.214 22.8681 221.922 23.1797C221.634 23.4879 221.271 23.7282 220.834 23.9006C220.399 24.0696 219.904 24.1541 219.347 24.1541ZM224.273 24V16.3636H225.71V17.5767H225.789C225.928 17.1657 226.174 16.8426 226.525 16.6072C226.879 16.3686 227.281 16.2493 227.728 16.2493C227.821 16.2493 227.93 16.2526 228.056 16.2592C228.185 16.2659 228.286 16.2741 228.359 16.2841V17.706C228.3 17.6894 228.194 17.6712 228.041 17.6513C227.889 17.6281 227.736 17.6165 227.584 17.6165C227.232 17.6165 226.919 17.6911 226.644 17.8402C226.372 17.986 226.157 18.1899 225.998 18.4517C225.839 18.7102 225.759 19.0052 225.759 19.3366V24H224.273ZM236.411 16.3636L233.642 24H232.051L229.277 16.3636H230.873L232.806 22.2401H232.886L234.815 16.3636H236.411ZM237.808 24V16.3636H239.294V24H237.808ZM238.559 15.1854C238.3 15.1854 238.078 15.0992 237.892 14.9268C237.71 14.7512 237.619 14.5424 237.619 14.3004C237.619 14.0552 237.71 13.8464 237.892 13.674C238.078 13.4983 238.3 13.4105 238.559 13.4105C238.817 13.4105 239.038 13.4983 239.22 13.674C239.405 13.8464 239.498 14.0552 239.498 14.3004C239.498 14.5424 239.405 14.7512 239.22 14.9268C239.038 15.0992 238.817 15.1854 238.559 15.1854ZM244.585 24.1541C243.833 24.1541 243.185 23.9934 242.642 23.6719C242.101 23.3471 241.684 22.8913 241.389 22.3047C241.097 21.7147 240.951 21.0237 240.951 20.2315C240.951 19.4493 241.097 18.7599 241.389 18.1634C241.684 17.5668 242.095 17.1011 242.622 16.7663C243.152 16.4316 243.772 16.2642 244.481 16.2642C244.912 16.2642 245.329 16.3355 245.734 16.478C246.138 16.6205 246.501 16.8442 246.823 17.1491C247.144 17.4541 247.398 17.8501 247.583 18.3374C247.769 18.8213 247.862 19.4096 247.862 20.1023V20.6293H241.791V19.5156H246.405C246.405 19.1245 246.325 18.7782 246.166 18.4766C246.007 18.1716 245.784 17.9313 245.495 17.7557C245.21 17.58 244.875 17.4922 244.491 17.4922C244.073 17.4922 243.709 17.5949 243.397 17.8004C243.089 18.0026 242.85 18.2678 242.681 18.5959C242.516 18.9207 242.433 19.2737 242.433 19.6548V20.5249C242.433 21.0353 242.522 21.4695 242.701 21.8274C242.883 22.1854 243.137 22.4588 243.462 22.6477C243.787 22.8333 244.166 22.9261 244.6 22.9261C244.882 22.9261 245.139 22.8864 245.371 22.8068C245.603 22.724 245.803 22.6013 245.972 22.4389C246.142 22.2765 246.271 22.076 246.36 21.8374L247.767 22.0909C247.655 22.5052 247.452 22.8681 247.161 23.1797C246.872 23.4879 246.509 23.7282 246.072 23.9006C245.638 24.0696 245.142 24.1541 244.585 24.1541ZM251.153 24L248.906 16.3636H250.442L251.938 21.9716H252.013L253.514 16.3636H255.051L256.542 21.9467H256.617L258.103 16.3636H259.639L257.397 24H255.881L254.33 18.4865H254.215L252.664 24H251.153Z" fill="black"/>
<circle cx="28.5" cy="61.5" r="2.5" fill="#00D021"/>
<circle cx="163.5" cy="61.5" r="2.5" fill="#C01F1F"/>
<circle cx="293.5" cy="61.5" r="2.5" fill="#9462EC"/>
<path d="M36.8608 65V56.2727H40.1335C40.804 56.2727 41.3665 56.3977 41.821 56.6477C42.2784 56.8977 42.6236 57.2415 42.8565 57.679C43.0923 58.1136 43.2102 58.608 43.2102 59.1619C43.2102 59.7216 43.0923 60.2187 42.8565 60.6534C42.6207 61.0881 42.2727 61.4304 41.8125 61.6804C41.3523 61.9276 40.7855 62.0511 40.1122 62.0511H37.9432V60.7514H39.8991C40.2912 60.7514 40.6122 60.6832 40.8622 60.5469C41.1122 60.4105 41.2969 60.223 41.4162 59.9844C41.5384 59.7457 41.5994 59.4716 41.5994 59.1619C41.5994 58.8523 41.5384 58.5795 41.4162 58.3438C41.2969 58.108 41.1108 57.9247 40.858 57.794C40.608 57.6605 40.2855 57.5938 39.8906 57.5938H38.4418V65H36.8608ZM44.2753 65V58.4545H45.771V59.5455H45.8392C45.9585 59.1676 46.1631 58.8764 46.4528 58.6719C46.7454 58.4645 47.0792 58.3608 47.4542 58.3608C47.5395 58.3608 47.6346 58.3651 47.7398 58.3736C47.8477 58.3793 47.9372 58.3892 48.0082 58.4034V59.8224C47.9429 59.7997 47.8392 59.7798 47.6971 59.7628C47.5579 59.7429 47.423 59.733 47.2923 59.733C47.0111 59.733 46.7582 59.794 46.5338 59.9162C46.3122 60.0355 46.1375 60.2017 46.0096 60.4148C45.8818 60.6278 45.8179 60.8736 45.8179 61.152V65H44.2753ZM51.4213 65.1278C50.765 65.1278 50.1983 64.9915 49.721 64.7188C49.2466 64.4432 48.8815 64.054 48.6258 63.5511C48.3701 63.0455 48.2423 62.4503 48.2423 61.7656C48.2423 61.0923 48.3701 60.5014 48.6258 59.9929C48.8843 59.4815 49.2451 59.0838 49.7082 58.7997C50.1713 58.5128 50.7153 58.3693 51.3403 58.3693C51.7437 58.3693 52.1244 58.4347 52.4824 58.5653C52.8432 58.6932 53.1613 58.892 53.4369 59.1619C53.7153 59.4318 53.9341 59.7756 54.0932 60.1932C54.2522 60.608 54.3318 61.1023 54.3318 61.6761V62.1491H48.9667V61.1094H52.8531C52.8503 60.8139 52.7863 60.5511 52.6613 60.321C52.5363 60.0881 52.3616 59.9048 52.1372 59.7713C51.9156 59.6378 51.6571 59.571 51.3616 59.571C51.0463 59.571 50.7693 59.6477 50.5307 59.8011C50.292 59.9517 50.1059 60.1506 49.9724 60.3977C49.8417 60.642 49.775 60.9105 49.7721 61.2031V62.1108C49.7721 62.4915 49.8417 62.8182 49.9809 63.0909C50.1201 63.3608 50.3147 63.5682 50.5647 63.7131C50.8147 63.8551 51.1074 63.9261 51.4426 63.9261C51.667 63.9261 51.8701 63.8949 52.052 63.8324C52.2338 63.767 52.3914 63.6719 52.525 63.5469C52.6585 63.4219 52.7593 63.267 52.8275 63.0824L54.2679 63.2443C54.177 63.625 54.0037 63.9574 53.748 64.2415C53.4951 64.5227 53.1713 64.7415 52.7764 64.8977C52.3815 65.0511 51.9298 65.1278 51.4213 65.1278ZM60.5701 60.1847L59.1639 60.3381C59.1241 60.196 59.0545 60.0625 58.9551 59.9375C58.8585 59.8125 58.7278 59.7116 58.563 59.6349C58.3983 59.5582 58.1965 59.5199 57.9579 59.5199C57.6369 59.5199 57.367 59.5895 57.1483 59.7287C56.9323 59.8679 56.8258 60.0483 56.8287 60.2699C56.8258 60.4602 56.8954 60.6151 57.0375 60.7344C57.1823 60.8537 57.421 60.9517 57.7534 61.0284L58.8698 61.267C59.4892 61.4006 59.9494 61.6122 60.2505 61.902C60.5545 62.1918 60.7079 62.571 60.7108 63.0398C60.7079 63.4517 60.5872 63.8153 60.3485 64.1307C60.1127 64.4432 59.7846 64.6875 59.3642 64.8636C58.9437 65.0398 58.4608 65.1278 57.9153 65.1278C57.1142 65.1278 56.4693 64.9602 55.9806 64.625C55.492 64.2869 55.2008 63.8168 55.1071 63.2145L56.6113 63.0696C56.6795 63.3651 56.8244 63.5881 57.046 63.7386C57.2676 63.8892 57.5559 63.9645 57.911 63.9645C58.2775 63.9645 58.5715 63.8892 58.7931 63.7386C59.0176 63.5881 59.1298 63.402 59.1298 63.1804C59.1298 62.9929 59.0573 62.8381 58.9125 62.7159C58.7704 62.5937 58.5488 62.5 58.2477 62.4347L57.1312 62.2003C56.5034 62.0696 56.0389 61.8494 55.7377 61.5398C55.4366 61.2273 55.2875 60.8324 55.2903 60.3551C55.2875 59.9517 55.3968 59.6023 55.6184 59.3068C55.8429 59.0085 56.1539 58.7784 56.5517 58.6165C56.9522 58.4517 57.4139 58.3693 57.9366 58.3693C58.7037 58.3693 59.3073 58.5327 59.7477 58.8594C60.1909 59.1861 60.465 59.6278 60.5701 60.1847ZM64.6405 65.1278C63.9842 65.1278 63.4175 64.9915 62.9402 64.7188C62.4658 64.4432 62.1007 64.054 61.845 63.5511C61.5894 63.0455 61.4615 62.4503 61.4615 61.7656C61.4615 61.0923 61.5894 60.5014 61.845 59.9929C62.1036 59.4815 62.4644 59.0838 62.9274 58.7997C63.3905 58.5128 63.9345 58.3693 64.5595 58.3693C64.9629 58.3693 65.3436 58.4347 65.7016 58.5653C66.0624 58.6932 66.3806 58.892 66.6561 59.1619C66.9345 59.4318 67.1533 59.7756 67.3124 60.1932C67.4715 60.608 67.551 61.1023 67.551 61.6761V62.1491H62.186V61.1094H66.0723C66.0695 60.8139 66.0056 60.5511 65.8806 60.321C65.7556 60.0881 65.5808 59.9048 65.3564 59.7713C65.1348 59.6378 64.8763 59.571 64.5808 59.571C64.2655 59.571 63.9885 59.6477 63.7499 59.8011C63.5112 59.9517 63.3252 60.1506 63.1916 60.3977C63.061 60.642 62.9942 60.9105 62.9914 61.2031V62.1108C62.9914 62.4915 63.061 62.8182 63.2002 63.0909C63.3394 63.3608 63.534 63.5682 63.784 63.7131C64.034 63.8551 64.3266 63.9261 64.6618 63.9261C64.8862 63.9261 65.0894 63.8949 65.2712 63.8324C65.453 63.767 65.6107 63.6719 65.7442 63.5469C65.8777 63.4219 65.9786 63.267 66.0467 63.0824L67.4871 63.2443C67.3962 63.625 67.2229 63.9574 66.9672 64.2415C66.7144 64.5227 66.3905 64.7415 65.9956 64.8977C65.6007 65.0511 65.149 65.1278 64.6405 65.1278ZM70.1587 61.1648V65H68.6161V58.4545H70.0905V59.5668H70.1672C70.3178 59.2003 70.5578 58.9091 70.8874 58.6932C71.2197 58.4773 71.6303 58.3693 72.1189 58.3693C72.5706 58.3693 72.9641 58.4659 73.2993 58.6591C73.6374 58.8523 73.8987 59.1321 74.0834 59.4986C74.2709 59.8651 74.3632 60.3097 74.3604 60.8324V65H72.8178V61.071C72.8178 60.6335 72.7041 60.2912 72.4768 60.044C72.2524 59.7969 71.9413 59.6733 71.5436 59.6733C71.2737 59.6733 71.0337 59.733 70.8234 59.8523C70.6161 59.9687 70.4527 60.1378 70.3334 60.3594C70.2169 60.581 70.1587 60.8494 70.1587 61.1648ZM78.957 58.4545V59.6477H75.1942V58.4545H78.957ZM76.1232 56.8864H77.6658V63.0312C77.6658 63.2386 77.6971 63.3977 77.7596 63.5085C77.8249 63.6165 77.9101 63.6903 78.0153 63.7301C78.1204 63.7699 78.2368 63.7898 78.3647 63.7898C78.4613 63.7898 78.5493 63.7827 78.6289 63.7685C78.7113 63.7543 78.7738 63.7415 78.8164 63.7301L79.0763 64.9361C78.994 64.9645 78.8761 64.9957 78.7226 65.0298C78.5721 65.0639 78.3874 65.0838 78.1687 65.0895C77.7823 65.1009 77.4343 65.0426 77.1246 64.9148C76.815 64.7841 76.5692 64.5824 76.3874 64.3097C76.2084 64.0369 76.1204 63.696 76.1232 63.2869V56.8864ZM86.0122 58.4545V59.6477H82.2494V58.4545H86.0122ZM83.1784 56.8864H84.721V63.0312C84.721 63.2386 84.7522 63.3977 84.8147 63.5085C84.8801 63.6165 84.9653 63.6903 85.0704 63.7301C85.1755 63.7699 85.292 63.7898 85.4198 63.7898C85.5164 63.7898 85.6045 63.7827 85.6841 63.7685C85.7664 63.7543 85.8289 63.7415 85.8716 63.7301L86.1315 64.9361C86.0491 64.9645 85.9312 64.9957 85.7778 65.0298C85.6272 65.0639 85.4426 65.0838 85.2238 65.0895C84.8375 65.1009 84.4894 65.0426 84.1798 64.9148C83.8701 64.7841 83.6244 64.5824 83.4426 64.3097C83.2636 64.0369 83.1755 63.696 83.1784 63.2869V56.8864ZM89.8471 65.1278C89.2079 65.1278 88.6539 64.9872 88.1852 64.706C87.7164 64.4247 87.3528 64.0312 87.0943 63.5256C86.8386 63.0199 86.7107 62.429 86.7107 61.7528C86.7107 61.0767 86.8386 60.4844 87.0943 59.9759C87.3528 59.4673 87.7164 59.0724 88.1852 58.7912C88.6539 58.5099 89.2079 58.3693 89.8471 58.3693C90.4863 58.3693 91.0403 58.5099 91.509 58.7912C91.9778 59.0724 92.34 59.4673 92.5957 59.9759C92.8542 60.4844 92.9835 61.0767 92.9835 61.7528C92.9835 62.429 92.8542 63.0199 92.5957 63.5256C92.34 64.0312 91.9778 64.4247 91.509 64.706C91.0403 64.9872 90.4863 65.1278 89.8471 65.1278ZM89.8556 63.892C90.2022 63.892 90.492 63.7969 90.7249 63.6065C90.9579 63.4134 91.1312 63.1548 91.2448 62.831C91.3613 62.5071 91.4195 62.1463 91.4195 61.7486C91.4195 61.348 91.3613 60.9858 91.2448 60.6619C91.1312 60.3352 90.9579 60.0753 90.7249 59.8821C90.492 59.6889 90.2022 59.5923 89.8556 59.5923C89.5005 59.5923 89.2051 59.6889 88.9693 59.8821C88.7363 60.0753 88.5616 60.3352 88.4451 60.6619C88.3315 60.9858 88.2747 61.348 88.2747 61.7486C88.2747 62.1463 88.3315 62.5071 88.4451 62.831C88.5616 63.1548 88.7363 63.4134 88.9693 63.6065C89.2051 63.7969 89.5005 63.892 89.8556 63.892ZM96.4817 65.1151C95.9675 65.1151 95.5073 64.983 95.1011 64.7188C94.6948 64.4545 94.3738 64.071 94.138 63.5682C93.9022 63.0653 93.7843 62.4545 93.7843 61.7358C93.7843 61.0085 93.9036 60.3949 94.1423 59.8949C94.3837 59.392 94.709 59.0128 95.1181 58.7571C95.5272 58.4986 95.9832 58.3693 96.486 58.3693C96.8695 58.3693 97.1849 58.4347 97.432 58.5653C97.6792 58.6932 97.8752 58.848 98.0201 59.0298C98.165 59.2088 98.2772 59.3778 98.3567 59.5369H98.4207V56.2727H99.9675V65H98.4505V63.9688H98.3567C98.2772 64.1278 98.1621 64.2969 98.0116 64.4759C97.861 64.652 97.6621 64.8026 97.415 64.9276C97.1678 65.0526 96.8567 65.1151 96.4817 65.1151ZM96.9121 63.8494C97.2388 63.8494 97.5173 63.7614 97.7474 63.5852C97.9775 63.4062 98.1522 63.1577 98.2715 62.8395C98.3908 62.5213 98.4505 62.1506 98.4505 61.7273C98.4505 61.304 98.3908 60.9361 98.2715 60.6236C98.155 60.3111 97.9817 60.0682 97.7516 59.8949C97.5244 59.7216 97.2445 59.6349 96.9121 59.6349C96.5684 59.6349 96.2815 59.7244 96.0513 59.9034C95.8212 60.0824 95.6479 60.3295 95.5315 60.6449C95.415 60.9602 95.3567 61.321 95.3567 61.7273C95.3567 62.1364 95.415 62.5014 95.5315 62.8224C95.6508 63.1406 95.8255 63.392 96.0556 63.5767C96.2886 63.7585 96.5741 63.8494 96.9121 63.8494ZM103.255 65.1321C102.84 65.1321 102.467 65.0582 102.134 64.9105C101.805 64.7599 101.543 64.5384 101.35 64.2457C101.16 63.9531 101.065 63.5923 101.065 63.1634C101.065 62.794 101.133 62.4886 101.269 62.2472C101.405 62.0057 101.592 61.8125 101.827 61.6676C102.063 61.5227 102.329 61.4134 102.624 61.3395C102.923 61.2628 103.231 61.2074 103.549 61.1733C103.932 61.1335 104.244 61.098 104.482 61.0668C104.721 61.0327 104.894 60.9815 105.002 60.9134C105.113 60.8423 105.168 60.733 105.168 60.5852V60.5597C105.168 60.2386 105.073 59.9901 104.883 59.8139C104.692 59.6378 104.418 59.5497 104.06 59.5497C103.682 59.5497 103.383 59.6321 103.161 59.7969C102.942 59.9616 102.795 60.1562 102.718 60.3807L101.278 60.1761C101.391 59.7784 101.579 59.446 101.84 59.179C102.101 58.9091 102.421 58.7074 102.799 58.5739C103.177 58.4375 103.594 58.3693 104.052 58.3693C104.367 58.3693 104.681 58.4062 104.994 58.4801C105.306 58.554 105.592 58.6761 105.85 58.8466C106.109 59.0142 106.316 59.2429 106.472 59.5327C106.631 59.8224 106.711 60.1847 106.711 60.6193V65H105.228V64.1009H105.177C105.083 64.2827 104.951 64.4531 104.78 64.6122C104.613 64.7685 104.401 64.8949 104.146 64.9915C103.893 65.0852 103.596 65.1321 103.255 65.1321ZM103.655 63.9986C103.965 63.9986 104.234 63.9375 104.461 63.8153C104.688 63.6903 104.863 63.5256 104.985 63.321C105.11 63.1165 105.173 62.8935 105.173 62.652V61.8807C105.124 61.9205 105.042 61.9574 104.925 61.9915C104.812 62.0256 104.684 62.0554 104.542 62.081C104.4 62.1065 104.259 62.1293 104.12 62.1491C103.981 62.169 103.86 62.1861 103.758 62.2003C103.528 62.2315 103.322 62.2827 103.14 62.3537C102.958 62.4247 102.815 62.5241 102.709 62.652C102.604 62.777 102.552 62.9389 102.552 63.1378C102.552 63.4219 102.655 63.6364 102.863 63.7812C103.07 63.9261 103.334 63.9986 103.655 63.9986ZM108.746 67.4545C108.536 67.4545 108.342 67.4375 108.163 67.4034C107.986 67.3722 107.846 67.3352 107.741 67.2926L108.099 66.0909C108.323 66.1563 108.523 66.1875 108.7 66.1847C108.876 66.1818 109.031 66.1264 109.164 66.0185C109.3 65.9134 109.415 65.7372 109.509 65.4901L109.641 65.1364L107.268 58.4545H108.904L110.413 63.3977H110.481L111.994 58.4545H113.634L111.013 65.7926C110.891 66.1392 110.729 66.4361 110.528 66.6832C110.326 66.9332 110.079 67.1236 109.786 67.2543C109.496 67.3878 109.15 67.4545 108.746 67.4545Z" fill="black"/>
<path d="M172.982 65H171.294L174.366 56.2727H176.318L179.395 65H177.707L175.376 58.0625H175.308L172.982 65ZM173.037 61.5781H177.639V62.848H173.037V61.5781ZM180.304 65V56.2727H181.847V59.5369H181.911C181.99 59.3778 182.103 59.2088 182.248 59.0298C182.392 58.848 182.588 58.6932 182.836 58.5653C183.083 58.4347 183.398 58.3693 183.782 58.3693C184.287 58.3693 184.743 58.4986 185.15 58.7571C185.559 59.0128 185.883 59.392 186.121 59.8949C186.363 60.3949 186.483 61.0085 186.483 61.7358C186.483 62.4545 186.365 63.0653 186.13 63.5682C185.894 64.071 185.573 64.4545 185.167 64.7188C184.76 64.983 184.3 65.1151 183.786 65.1151C183.411 65.1151 183.1 65.0526 182.853 64.9276C182.606 64.8026 182.407 64.652 182.256 64.4759C182.108 64.2969 181.993 64.1278 181.911 63.9688H181.821V65H180.304ZM181.817 61.7273C181.817 62.1506 181.877 62.5213 181.996 62.8395C182.118 63.1577 182.293 63.4062 182.52 63.5852C182.75 63.7614 183.029 63.8494 183.356 63.8494C183.696 63.8494 183.982 63.7585 184.212 63.5767C184.442 63.392 184.615 63.1406 184.732 62.8224C184.851 62.5014 184.911 62.1364 184.911 61.7273C184.911 61.321 184.853 60.9602 184.736 60.6449C184.62 60.3295 184.446 60.0824 184.216 59.9034C183.986 59.7244 183.699 59.6349 183.356 59.6349C183.026 59.6349 182.746 59.7216 182.516 59.8949C182.286 60.0682 182.111 60.3111 181.992 60.6236C181.875 60.9361 181.817 61.304 181.817 61.7273ZM192.728 60.1847L191.322 60.3381C191.282 60.196 191.212 60.0625 191.113 59.9375C191.016 59.8125 190.886 59.7116 190.721 59.6349C190.556 59.5582 190.355 59.5199 190.116 59.5199C189.795 59.5199 189.525 59.5895 189.306 59.7287C189.09 59.8679 188.984 60.0483 188.987 60.2699C188.984 60.4602 189.053 60.6151 189.195 60.7344C189.34 60.8537 189.579 60.9517 189.911 61.0284L191.028 61.267C191.647 61.4006 192.107 61.6122 192.408 61.902C192.712 62.1918 192.866 62.571 192.869 63.0398C192.866 63.4517 192.745 63.8153 192.507 64.1307C192.271 64.4432 191.943 64.6875 191.522 64.8636C191.102 65.0398 190.619 65.1278 190.073 65.1278C189.272 65.1278 188.627 64.9602 188.139 64.625C187.65 64.2869 187.359 63.8168 187.265 63.2145L188.769 63.0696C188.837 63.3651 188.982 63.5881 189.204 63.7386C189.426 63.8892 189.714 63.9645 190.069 63.9645C190.435 63.9645 190.73 63.8892 190.951 63.7386C191.176 63.5881 191.288 63.402 191.288 63.1804C191.288 62.9929 191.215 62.8381 191.07 62.7159C190.928 62.5937 190.707 62.5 190.406 62.4347L189.289 62.2003C188.661 62.0696 188.197 61.8494 187.896 61.5398C187.595 61.2273 187.445 60.8324 187.448 60.3551C187.445 59.9517 187.555 59.6023 187.776 59.3068C188.001 59.0085 188.312 58.7784 188.71 58.6165C189.11 58.4517 189.572 58.3693 190.095 58.3693C190.862 58.3693 191.465 58.5327 191.906 58.8594C192.349 59.1861 192.623 59.6278 192.728 60.1847ZM196.798 65.1278C196.142 65.1278 195.575 64.9915 195.098 64.7188C194.624 64.4432 194.259 64.054 194.003 63.5511C193.747 63.0455 193.619 62.4503 193.619 61.7656C193.619 61.0923 193.747 60.5014 194.003 59.9929C194.262 59.4815 194.622 59.0838 195.085 58.7997C195.548 58.5128 196.093 58.3693 196.718 58.3693C197.121 58.3693 197.502 58.4347 197.86 58.5653C198.22 58.6932 198.539 58.892 198.814 59.1619C199.093 59.4318 199.311 59.7756 199.47 60.1932C199.629 60.608 199.709 61.1023 199.709 61.6761V62.1491H194.344V61.1094H198.23C198.227 60.8139 198.164 60.5511 198.039 60.321C197.914 60.0881 197.739 59.9048 197.514 59.7713C197.293 59.6378 197.034 59.571 196.739 59.571C196.423 59.571 196.146 59.6477 195.908 59.8011C195.669 59.9517 195.483 60.1506 195.35 60.3977C195.219 60.642 195.152 60.9105 195.149 61.2031V62.1108C195.149 62.4915 195.219 62.8182 195.358 63.0909C195.497 63.3608 195.692 63.5682 195.942 63.7131C196.192 63.8551 196.485 63.9261 196.82 63.9261C197.044 63.9261 197.247 63.8949 197.429 63.8324C197.611 63.767 197.769 63.6719 197.902 63.5469C198.036 63.4219 198.137 63.267 198.205 63.0824L199.645 63.2443C199.554 63.625 199.381 63.9574 199.125 64.2415C198.872 64.5227 198.548 64.7415 198.154 64.8977C197.759 65.0511 197.307 65.1278 196.798 65.1278ZM202.317 61.1648V65H200.774V58.4545H202.248V59.5668H202.325C202.476 59.2003 202.716 58.9091 203.045 58.6932C203.378 58.4773 203.788 58.3693 204.277 58.3693C204.729 58.3693 205.122 58.4659 205.457 58.6591C205.795 58.8523 206.057 59.1321 206.241 59.4986C206.429 59.8651 206.521 60.3097 206.518 60.8324V65H204.976V61.071C204.976 60.6335 204.862 60.2912 204.635 60.044C204.41 59.7969 204.099 59.6733 203.702 59.6733C203.432 59.6733 203.192 59.733 202.981 59.8523C202.774 59.9687 202.611 60.1378 202.491 60.3594C202.375 60.581 202.317 60.8494 202.317 61.1648ZM211.115 58.4545V59.6477H207.352V58.4545H211.115ZM208.281 56.8864H209.824V63.0312C209.824 63.2386 209.855 63.3977 209.918 63.5085C209.983 63.6165 210.068 63.6903 210.173 63.7301C210.278 63.7699 210.395 63.7898 210.523 63.7898C210.619 63.7898 210.707 63.7827 210.787 63.7685C210.869 63.7543 210.932 63.7415 210.974 63.7301L211.234 64.9361C211.152 64.9645 211.034 64.9957 210.881 65.0298C210.73 65.0639 210.545 65.0838 210.327 65.0895C209.94 65.1009 209.592 65.0426 209.283 64.9148C208.973 64.7841 208.727 64.5824 208.545 64.3097C208.366 64.0369 208.278 63.696 208.281 63.2869V56.8864ZM218.17 58.4545V59.6477H214.407V58.4545H218.17ZM215.336 56.8864H216.879V63.0312C216.879 63.2386 216.91 63.3977 216.973 63.5085C217.038 63.6165 217.123 63.6903 217.228 63.7301C217.333 63.7699 217.45 63.7898 217.578 63.7898C217.674 63.7898 217.762 63.7827 217.842 63.7685C217.924 63.7543 217.987 63.7415 218.03 63.7301L218.289 64.9361C218.207 64.9645 218.089 64.9957 217.936 65.0298C217.785 65.0639 217.601 65.0838 217.382 65.0895C216.995 65.1009 216.647 65.0426 216.338 64.9148C216.028 64.7841 215.782 64.5824 215.601 64.3097C215.422 64.0369 215.333 63.696 215.336 63.2869V56.8864ZM222.005 65.1278C221.366 65.1278 220.812 64.9872 220.343 64.706C219.874 64.4247 219.511 64.0312 219.252 63.5256C218.997 63.0199 218.869 62.429 218.869 61.7528C218.869 61.0767 218.997 60.4844 219.252 59.9759C219.511 59.4673 219.874 59.0724 220.343 58.7912C220.812 58.5099 221.366 58.3693 222.005 58.3693C222.644 58.3693 223.198 58.5099 223.667 58.7912C224.136 59.0724 224.498 59.4673 224.754 59.9759C225.012 60.4844 225.141 61.0767 225.141 61.7528C225.141 62.429 225.012 63.0199 224.754 63.5256C224.498 64.0312 224.136 64.4247 223.667 64.706C223.198 64.9872 222.644 65.1278 222.005 65.1278ZM222.014 63.892C222.36 63.892 222.65 63.7969 222.883 63.6065C223.116 63.4134 223.289 63.1548 223.403 62.831C223.519 62.5071 223.578 62.1463 223.578 61.7486C223.578 61.348 223.519 60.9858 223.403 60.6619C223.289 60.3352 223.116 60.0753 222.883 59.8821C222.65 59.6889 222.36 59.5923 222.014 59.5923C221.658 59.5923 221.363 59.6889 221.127 59.8821C220.894 60.0753 220.72 60.3352 220.603 60.6619C220.489 60.9858 220.433 61.348 220.433 61.7486C220.433 62.1463 220.489 62.5071 220.603 62.831C220.72 63.1548 220.894 63.4134 221.127 63.6065C221.363 63.7969 221.658 63.892 222.014 63.892ZM228.64 65.1151C228.126 65.1151 227.665 64.983 227.259 64.7188C226.853 64.4545 226.532 64.071 226.296 63.5682C226.06 63.0653 225.942 62.4545 225.942 61.7358C225.942 61.0085 226.062 60.3949 226.3 59.8949C226.542 59.392 226.867 59.0128 227.276 58.7571C227.685 58.4986 228.141 58.3693 228.644 58.3693C229.028 58.3693 229.343 58.4347 229.59 58.5653C229.837 58.6932 230.033 58.848 230.178 59.0298C230.323 59.2088 230.435 59.3778 230.515 59.5369H230.579V56.2727H232.126V65H230.608V63.9688H230.515C230.435 64.1278 230.32 64.2969 230.17 64.4759C230.019 64.652 229.82 64.8026 229.573 64.9276C229.326 65.0526 229.015 65.1151 228.64 65.1151ZM229.07 63.8494C229.397 63.8494 229.675 63.7614 229.905 63.5852C230.135 63.4062 230.31 63.1577 230.429 62.8395C230.549 62.5213 230.608 62.1506 230.608 61.7273C230.608 61.304 230.549 60.9361 230.429 60.6236C230.313 60.3111 230.14 60.0682 229.91 59.8949C229.682 59.7216 229.403 59.6349 229.07 59.6349C228.726 59.6349 228.439 59.7244 228.209 59.9034C227.979 60.0824 227.806 60.3295 227.689 60.6449C227.573 60.9602 227.515 61.321 227.515 61.7273C227.515 62.1364 227.573 62.5014 227.689 62.8224C227.809 63.1406 227.983 63.392 228.214 63.5767C228.447 63.7585 228.732 63.8494 229.07 63.8494ZM235.413 65.1321C234.998 65.1321 234.625 65.0582 234.292 64.9105C233.963 64.7599 233.701 64.5384 233.508 64.2457C233.318 63.9531 233.223 63.5923 233.223 63.1634C233.223 62.794 233.291 62.4886 233.427 62.2472C233.563 62.0057 233.75 61.8125 233.985 61.6676C234.221 61.5227 234.487 61.4134 234.782 61.3395C235.08 61.2628 235.389 61.2074 235.707 61.1733C236.09 61.1335 236.401 61.098 236.64 61.0668C236.879 61.0327 237.052 60.9815 237.16 60.9134C237.271 60.8423 237.326 60.733 237.326 60.5852V60.5597C237.326 60.2386 237.231 59.9901 237.041 59.8139C236.85 59.6378 236.576 59.5497 236.218 59.5497C235.84 59.5497 235.541 59.6321 235.319 59.7969C235.1 59.9616 234.953 60.1562 234.876 60.3807L233.436 60.1761C233.549 59.7784 233.737 59.446 233.998 59.179C234.259 58.9091 234.579 58.7074 234.957 58.5739C235.335 58.4375 235.752 58.3693 236.21 58.3693C236.525 58.3693 236.839 58.4062 237.151 58.4801C237.464 58.554 237.75 58.6761 238.008 58.8466C238.267 59.0142 238.474 59.2429 238.63 59.5327C238.789 59.8224 238.869 60.1847 238.869 60.6193V65H237.386V64.1009H237.335C237.241 64.2827 237.109 64.4531 236.938 64.6122C236.771 64.7685 236.559 64.8949 236.303 64.9915C236.051 65.0852 235.754 65.1321 235.413 65.1321ZM235.813 63.9986C236.123 63.9986 236.392 63.9375 236.619 63.8153C236.846 63.6903 237.021 63.5256 237.143 63.321C237.268 63.1165 237.33 62.8935 237.33 62.652V61.8807C237.282 61.9205 237.2 61.9574 237.083 61.9915C236.97 62.0256 236.842 62.0554 236.7 62.081C236.558 62.1065 236.417 62.1293 236.278 62.1491C236.139 62.169 236.018 62.1861 235.916 62.2003C235.686 62.2315 235.48 62.2827 235.298 62.3537C235.116 62.4247 234.973 62.5241 234.867 62.652C234.762 62.777 234.71 62.9389 234.71 63.1378C234.71 63.4219 234.813 63.6364 235.021 63.7812C235.228 63.9261 235.492 63.9986 235.813 63.9986ZM240.904 67.4545C240.694 67.4545 240.5 67.4375 240.321 67.4034C240.144 67.3722 240.004 67.3352 239.899 67.2926L240.257 66.0909C240.481 66.1563 240.681 66.1875 240.858 66.1847C241.034 66.1818 241.188 66.1264 241.322 66.0185C241.458 65.9134 241.573 65.7372 241.667 65.4901L241.799 65.1364L239.426 58.4545H241.062L242.571 63.3977H242.639L244.152 58.4545H245.792L243.171 65.7926C243.049 66.1392 242.887 66.4361 242.686 66.6832C242.484 66.9332 242.237 67.1236 241.944 67.2543C241.654 67.3878 241.308 67.4545 240.904 67.4545Z" fill="black"/>
<path d="M309.659 60.6364C309.659 61.5767 309.483 62.3821 309.131 63.0526C308.781 63.7202 308.304 64.2315 307.699 64.5866C307.097 64.9418 306.413 65.1193 305.649 65.1193C304.885 65.1193 304.2 64.9418 303.595 64.5866C302.993 64.2287 302.516 63.7159 302.163 63.0483C301.814 62.3778 301.639 61.5739 301.639 60.6364C301.639 59.696 301.814 58.892 302.163 58.2244C302.516 57.554 302.993 57.0412 303.595 56.6861C304.2 56.331 304.885 56.1534 305.649 56.1534C306.413 56.1534 307.097 56.331 307.699 56.6861C308.304 57.0412 308.781 57.554 309.131 58.2244C309.483 58.892 309.659 59.696 309.659 60.6364ZM308.07 60.6364C308.07 59.9744 307.966 59.4162 307.759 58.9616C307.554 58.5043 307.27 58.1591 306.906 57.9261C306.543 57.6903 306.124 57.5724 305.649 57.5724C305.175 57.5724 304.756 57.6903 304.392 57.9261C304.028 58.1591 303.743 58.5043 303.536 58.9616C303.331 59.4162 303.229 59.9744 303.229 60.6364C303.229 61.2983 303.331 61.858 303.536 62.3153C303.743 62.7699 304.028 63.1151 304.392 63.3509C304.756 63.5838 305.175 63.7003 305.649 63.7003C306.124 63.7003 306.543 63.5838 306.906 63.3509C307.27 63.1151 307.554 62.7699 307.759 62.3153C307.966 61.858 308.07 61.2983 308.07 60.6364ZM312.388 61.1648V65H310.846V58.4545H312.32V59.5668H312.397C312.547 59.2003 312.787 58.9091 313.117 58.6932C313.449 58.4773 313.86 58.3693 314.348 58.3693C314.8 58.3693 315.194 58.4659 315.529 58.6591C315.867 58.8523 316.128 59.1321 316.313 59.4986C316.5 59.8651 316.593 60.3097 316.59 60.8324V65H315.047V61.071C315.047 60.6335 314.934 60.2912 314.706 60.044C314.482 59.7969 314.171 59.6733 313.773 59.6733C313.503 59.6733 313.263 59.733 313.053 59.8523C312.846 59.9687 312.682 60.1378 312.563 60.3594C312.446 60.581 312.388 60.8494 312.388 61.1648ZM322.197 56.2727V65H320.655V56.2727H322.197ZM326.441 65.1278C325.785 65.1278 325.218 64.9915 324.741 64.7188C324.267 64.4432 323.902 64.054 323.646 63.5511C323.39 63.0455 323.262 62.4503 323.262 61.7656C323.262 61.0923 323.39 60.5014 323.646 59.9929C323.904 59.4815 324.265 59.0838 324.728 58.7997C325.191 58.5128 325.735 58.3693 326.36 58.3693C326.764 58.3693 327.144 58.4347 327.502 58.5653C327.863 58.6932 328.181 58.892 328.457 59.1619C328.735 59.4318 328.954 59.7756 329.113 60.1932C329.272 60.608 329.352 61.1023 329.352 61.6761V62.1491H323.987V61.1094H327.873C327.87 60.8139 327.806 60.5511 327.681 60.321C327.556 60.0881 327.382 59.9048 327.157 59.7713C326.936 59.6378 326.677 59.571 326.382 59.571C326.066 59.571 325.789 59.6477 325.551 59.8011C325.312 59.9517 325.126 60.1506 324.992 60.3977C324.862 60.642 324.795 60.9105 324.792 61.2031V62.1108C324.792 62.4915 324.862 62.8182 325.001 63.0909C325.14 63.3608 325.335 63.5682 325.585 63.7131C325.835 63.8551 326.127 63.9261 326.463 63.9261C326.687 63.9261 326.89 63.8949 327.072 63.8324C327.254 63.767 327.411 63.6719 327.545 63.5469C327.678 63.4219 327.779 63.267 327.848 63.0824L329.288 63.2443C329.197 63.625 329.024 63.9574 328.768 64.2415C328.515 64.5227 328.191 64.7415 327.796 64.8977C327.402 65.0511 326.95 65.1278 326.441 65.1278ZM332.3 65.1321C331.886 65.1321 331.512 65.0582 331.18 64.9105C330.85 64.7599 330.589 64.5384 330.396 64.2457C330.205 63.9531 330.11 63.5923 330.11 63.1634C330.11 62.794 330.178 62.4886 330.315 62.2472C330.451 62.0057 330.637 61.8125 330.873 61.6676C331.109 61.5227 331.374 61.4134 331.67 61.3395C331.968 61.2628 332.276 61.2074 332.594 61.1733C332.978 61.1335 333.289 61.098 333.528 61.0668C333.766 61.0327 333.94 60.9815 334.048 60.9134C334.158 60.8423 334.214 60.733 334.214 60.5852V60.5597C334.214 60.2386 334.119 59.9901 333.928 59.8139C333.738 59.6378 333.464 59.5497 333.106 59.5497C332.728 59.5497 332.428 59.6321 332.207 59.7969C331.988 59.9616 331.84 60.1562 331.763 60.3807L330.323 60.1761C330.437 59.7784 330.624 59.446 330.886 59.179C331.147 58.9091 331.467 58.7074 331.844 58.5739C332.222 58.4375 332.64 58.3693 333.097 58.3693C333.413 58.3693 333.726 58.4062 334.039 58.4801C334.351 58.554 334.637 58.6761 334.896 58.8466C335.154 59.0142 335.361 59.2429 335.518 59.5327C335.677 59.8224 335.756 60.1847 335.756 60.6193V65H334.273V64.1009H334.222C334.128 64.2827 333.996 64.4531 333.826 64.6122C333.658 64.7685 333.447 64.8949 333.191 64.9915C332.938 65.0852 332.641 65.1321 332.3 65.1321ZM332.701 63.9986C333.011 63.9986 333.279 63.9375 333.506 63.8153C333.734 63.6903 333.908 63.5256 334.03 63.321C334.155 63.1165 334.218 62.8935 334.218 62.652V61.8807C334.17 61.9205 334.087 61.9574 333.971 61.9915C333.857 62.0256 333.729 62.0554 333.587 62.081C333.445 62.1065 333.305 62.1293 333.165 62.1491C333.026 62.169 332.905 62.1861 332.803 62.2003C332.573 62.2315 332.367 62.2827 332.185 62.3537C332.003 62.4247 331.86 62.5241 331.755 62.652C331.65 62.777 331.597 62.9389 331.597 63.1378C331.597 63.4219 331.701 63.6364 331.908 63.7812C332.116 63.9261 332.38 63.9986 332.701 63.9986ZM342.68 58.4545L340.349 65H338.644L336.313 58.4545H337.958L339.462 63.3168H339.531L341.039 58.4545H342.68ZM346.182 65.1278C345.526 65.1278 344.959 64.9915 344.482 64.7188C344.007 64.4432 343.642 64.054 343.387 63.5511C343.131 63.0455 343.003 62.4503 343.003 61.7656C343.003 61.0923 343.131 60.5014 343.387 59.9929C343.645 59.4815 344.006 59.0838 344.469 58.7997C344.932 58.5128 345.476 58.3693 346.101 58.3693C346.505 58.3693 346.885 58.4347 347.243 58.5653C347.604 58.6932 347.922 58.892 348.198 59.1619C348.476 59.4318 348.695 59.7756 348.854 60.1932C349.013 60.608 349.093 61.1023 349.093 61.6761V62.1491H343.728V61.1094H347.614C347.611 60.8139 347.547 60.5511 347.422 60.321C347.297 60.0881 347.123 59.9048 346.898 59.7713C346.677 59.6378 346.418 59.571 346.123 59.571C345.807 59.571 345.53 59.6477 345.292 59.8011C345.053 59.9517 344.867 60.1506 344.733 60.3977C344.603 60.642 344.536 60.9105 344.533 61.2031V62.1108C344.533 62.4915 344.603 62.8182 344.742 63.0909C344.881 63.3608 345.076 63.5682 345.326 63.7131C345.576 63.8551 345.868 63.9261 346.204 63.9261C346.428 63.9261 346.631 63.8949 346.813 63.8324C346.995 63.767 347.152 63.6719 347.286 63.5469C347.419 63.4219 347.52 63.267 347.588 63.0824L349.029 63.2443C348.938 63.625 348.765 63.9574 348.509 64.2415C348.256 64.5227 347.932 64.7415 347.537 64.8977C347.142 65.0511 346.691 65.1278 346.182 65.1278Z" fill="black"/>
<path d="M70 35H310" stroke="url(#paint0_linear_738_446)" stroke-linecap="round"/>
<defs>
<filter id="filter0_ii_738_446" x="64.1328" y="94.8057" width="281.492" height="295.194" filterUnits="userSpaceOnUse" color-interpolation-filters="sRGB">
<feFlood flood-opacity="0" result="BackgroundImageFix"/>
<feBlend mode="normal" in="SourceGraphic" in2="BackgroundImageFix" result="shape"/>
<feColorMatrix in="SourceAlpha" type="matrix" values="0 0 0 0 0 0 0 0 0 0 0 0 0 0 0 0 0 0 127 0" result="hardAlpha"/>
<feOffset dx="-9" dy="-11"/>
<feGaussianBlur stdDeviation="12"/>
<feComposite in2="hardAlpha" operator="arithmetic" k2="-1" k3="1"/>
<feColorMatrix type="matrix" values="0 0 0 0 0.480127 0 0 0 0 1 0 0 0 0 0.47 0 0 0 1 0"/>
<feBlend mode="normal" in2="shape" result="effect1_innerShadow_738_446"/>
<feColorMatrix in="SourceAlpha" type="matrix" values="0 0 0 0 0 0 0 0 0 0 0 0 0 0 0 0 0 0 127 0" result="hardAlpha"/>
<feMorphology radius="2" operator="erode" in="SourceAlpha" result="effect2_innerShadow_738_446"/>
<feOffset dx="7" dy="5"/>
<feGaussianBlur stdDeviation="20"/>
<feComposite in2="hardAlpha" operator="arithmetic" k2="-1" k3="1"/>
<feColorMatrix type="matrix" values="0 0 0 0 0.0121975 0 0 0 0 0.638333 0 0 0 0 0 0 0 0 0.9 0"/>
<feBlend mode="normal" in2="effect1_innerShadow_738_446" result="effect2_innerShadow_738_446"/>
</filter>
<filter id="filter1_ii_738_446" x="47.5781" y="218.038" width="86.9844" height="87.5391" filterUnits="userSpaceOnUse" color-interpolation-filters="sRGB">
<feFlood flood-opacity="0" result="BackgroundImageFix"/>
<feBlend mode="normal" in="SourceGraphic" in2="BackgroundImageFix" result="shape"/>
<feColorMatrix in="SourceAlpha" type="matrix" values="0 0 0 0 0 0 0 0 0 0 0 0 0 0 0 0 0 0 127 0" result="hardAlpha"/>
<feOffset dx="-12" dy="-2"/>
<feGaussianBlur stdDeviation="15"/>
<feComposite in2="hardAlpha" operator="arithmetic" k2="-1" k3="1"/>
<feColorMatrix type="matrix" values="0 0 0 0 0.661667 0 0 0 0 0.103142 0 0 0 0 0.0286721 0 0 0 0.8 0"/>
<feBlend mode="normal" in2="shape" result="effect1_innerShadow_738_446"/>
<feColorMatrix in="SourceAlpha" type="matrix" values="0 0 0 0 0 0 0 0 0 0 0 0 0 0 0 0 0 0 127 0" result="hardAlpha"/>
<feOffset dx="11"/>
<feGaussianBlur stdDeviation="15"/>
<feComposite in2="hardAlpha" operator="arithmetic" k2="-1" k3="1"/>
<feColorMatrix type="matrix" values="0 0 0 0 0.995 0 0 0 0 0.541397 0 0 0 0 0.480917 0 0 0 0.8 0"/>
<feBlend mode="normal" in2="effect1_innerShadow_738_446" result="effect2_innerShadow_738_446"/>
</filter>
<filter id="filter2_ii_738_446" x="49.8594" y="103.776" width="163.133" height="126.533" filterUnits="userSpaceOnUse" color-interpolation-filters="sRGB">
<feFlood flood-opacity="0" result="BackgroundImageFix"/>
<feBlend mode="normal" in="SourceGraphic" in2="BackgroundImageFix" result="shape"/>
<feColorMatrix in="SourceAlpha" type="matrix" values="0 0 0 0 0 0 0 0 0 0 0 0 0 0 0 0 0 0 127 0" result="hardAlpha"/>
<feOffset dx="-12" dy="-2"/>
<feGaussianBlur stdDeviation="15"/>
<feComposite in2="hardAlpha" operator="arithmetic" k2="-1" k3="1"/>
<feColorMatrix type="matrix" values="0 0 0 0 0.286345 0 0 0 0 0.0295334 0 0 0 0 0.738333 0 0 0 0.8 0"/>
<feBlend mode="normal" in2="shape" result="effect1_innerShadow_738_446"/>
<feColorMatrix in="SourceAlpha" type="matrix" values="0 0 0 0 0 0 0 0 0 0 0 0 0 0 0 0 0 0 127 0" result="hardAlpha"/>
<feOffset dx="11"/>
<feGaussianBlur stdDeviation="15"/>
<feComposite in2="hardAlpha" operator="arithmetic" k2="-1" k3="1"/>
<feColorMatrix type="matrix" values="0 0 0 0 0.706667 0 0 0 0 0.54 0 0 0 0 1 0 0 0 0.8 0"/>
<feBlend mode="normal" in2="effect1_innerShadow_738_446" result="effect2_innerShadow_738_446"/>
</filter>
<linearGradient id="paint0_linear_738_446" x1="70" y1="35.5" x2="310" y2="35.5" gradientUnits="userSpaceOnUse">
<stop stop-opacity="0"/>
<stop offset="0.15" stop-opacity="0.5"/>
<stop offset="0.5"/>
<stop offset="0.85" stop-opacity="0.5"/>
<stop offset="1" stop-opacity="0"/>
</linearGradient>
<clipPath id="clip0_738_446">
<rect width="59.795" height="33.9057" fill="white" transform="translate(311.203 301.009)"/>
</clipPath>
<clipPath id="clip1_738_446">
<rect width="59.795" height="33.9057" fill="white" transform="translate(11 208.499)"/>
</clipPath>
<clipPath id="clip2_738_446">
<rect width="59.795" height="33.9057" fill="white" transform="translate(89.9141 90)"/>
</clipPath>
</defs>
</svg>
