<svg width="16" height="16" viewBox="0 0 16 16" fill="none" xmlns="http://www.w3.org/2000/svg">
<circle cx="8" cy="8" r="7.65" stroke="white" stroke-width="0.7"/>
<path d="M8.376 5.455C8.16333 5.455 7.99467 5.39633 7.87 5.279C7.75267 5.16167 7.694 5.00033 7.694 4.795C7.694 4.56767 7.76733 4.37333 7.914 4.212C8.06067 4.05067 8.25867 3.97 8.508 3.97C8.72067 3.97 8.88567 4.02867 9.003 4.146C9.12767 4.26333 9.19 4.42467 9.19 4.63C9.19 4.85733 9.11667 5.05167 8.97 5.213C8.83067 5.37433 8.63267 5.455 8.376 5.455ZM6.616 6.731L6.671 6.423H8.783L8.101 10.35C8.013 10.8633 7.969 11.2043 7.969 11.373C7.97633 11.5343 8.035 11.615 8.145 11.615C8.24767 11.615 8.35767 11.5563 8.475 11.439C8.59233 11.3217 8.69867 11.1237 8.794 10.845L9.223 11.087C9.06167 11.4243 8.86733 11.67 8.64 11.824C8.41267 11.978 8.15233 12.055 7.859 12.055C7.45567 12.055 7.15867 11.9157 6.968 11.637C6.77733 11.351 6.726 10.9513 6.814 10.438L7.353 7.347C7.397 7.09767 7.41167 6.951 7.397 6.907C7.38233 6.85567 7.32 6.82267 7.21 6.808L6.616 6.731Z" fill="white"/>
</svg>
