<svg width="92" height="20" viewBox="0 0 92 20" fill="none" xmlns="http://www.w3.org/2000/svg">
<path d="M6 0.1H86C89.2585 0.1 91.9 2.74152 91.9 6V14C91.9 17.2585 89.2585 19.9 86 19.9H6C2.74152 19.9 0.1 17.2585 0.1 14V6C0.1 2.74152 2.74152 0.1 6 0.1Z" fill="#F32323" fill-opacity="0.15" stroke="#920000" stroke-width="0.2"/>
<path d="M29.3301 6.22727L28.1227 13.5H27.1142L24.3052 8.16619H24.2413L23.35 13.5H22.2527L23.46 6.22727H24.4757L27.2882 11.5682H27.3556L28.2434 6.22727H29.3301ZM31.7606 13.6101C31.2421 13.6101 30.8089 13.4917 30.4609 13.255C30.1129 13.0159 29.8678 12.6821 29.7258 12.2536C29.5861 11.8227 29.5624 11.322 29.6548 10.7514C29.7447 10.1927 29.9258 9.70502 30.1981 9.28835C30.4727 8.87169 30.816 8.54853 31.2279 8.31889C31.6422 8.08925 32.1027 7.97443 32.6093 7.97443C33.1278 7.97443 33.5598 8.09399 33.9055 8.3331C34.2535 8.57221 34.4985 8.9072 34.6406 9.33807C34.7826 9.76894 34.8075 10.2708 34.7151 10.8438C34.6252 11.3977 34.4417 11.883 34.1647 12.2997C33.8901 12.714 33.5468 13.036 33.1349 13.2656C32.7229 13.4953 32.2648 13.6101 31.7606 13.6101ZM31.821 12.7188C32.1619 12.7188 32.459 12.6288 32.7123 12.4489C32.968 12.2689 33.1763 12.0298 33.3373 11.7315C33.4983 11.4332 33.6084 11.1065 33.6675 10.7514C33.722 10.4081 33.7208 10.0945 33.664 9.81037C33.6095 9.52391 33.4912 9.29427 33.3089 9.12145C33.1266 8.94863 32.8733 8.86222 32.5489 8.86222C32.208 8.86222 31.9085 8.95336 31.6505 9.13565C31.3948 9.31558 31.1865 9.55587 31.0255 9.85653C30.8669 10.1572 30.7592 10.4851 30.7023 10.8402C30.6479 11.1811 30.6479 11.4948 30.7023 11.7812C30.7568 12.0653 30.8752 12.2926 31.0575 12.4631C31.2397 12.6335 31.4942 12.7188 31.821 12.7188ZM38.7188 8.04545L38.5803 8.89773H35.6009L35.7394 8.04545H38.7188ZM36.7515 6.73864H37.8132L36.9539 11.8984C36.9207 12.1044 36.9266 12.2595 36.9716 12.3636C37.0166 12.4654 37.0853 12.5353 37.1776 12.5732C37.2723 12.6087 37.3776 12.6264 37.4936 12.6264C37.5789 12.6264 37.6534 12.6205 37.7174 12.6087C37.7813 12.5968 37.8322 12.5874 37.8701 12.5803L37.9269 13.4574C37.8559 13.4811 37.76 13.5047 37.6392 13.5284C37.5209 13.5545 37.3765 13.5687 37.206 13.571C36.9266 13.5758 36.6745 13.526 36.4496 13.4219C36.2247 13.3153 36.0566 13.1544 35.9453 12.9389C35.8341 12.7211 35.8069 12.4477 35.8637 12.1186L36.7515 6.73864ZM41.9303 13.5H40.7655L44.5901 6.22727H45.8578L47.2677 13.5H46.1029L45.0411 7.5483H44.9843L41.9303 13.5ZM42.5979 10.652H46.3763L46.2201 11.5753H42.4417L42.5979 10.652ZM47.6953 15.5455L48.9524 8.04545H49.9893L49.8438 8.92969H49.9325C50.013 8.81605 50.1219 8.68466 50.2592 8.53551C50.3989 8.38636 50.5824 8.25616 50.8097 8.14489C51.0369 8.03125 51.3198 7.97443 51.6584 7.97443C52.0987 7.97443 52.4716 8.0857 52.777 8.30824C53.0824 8.53078 53.3002 8.85156 53.4304 9.2706C53.5606 9.68963 53.5772 10.1939 53.4801 10.7834C53.383 11.3729 53.2008 11.8783 52.9332 12.2997C52.6657 12.7187 52.3414 13.0419 51.9602 13.2692C51.5814 13.4941 51.1707 13.6065 50.728 13.6065C50.3965 13.6065 50.1349 13.5509 49.9432 13.4396C49.7538 13.3284 49.6129 13.1982 49.5206 13.049C49.4283 12.8999 49.3584 12.7673 49.3111 12.6513H49.2472L48.7642 15.5455H47.6953ZM49.5384 10.7727C49.4768 11.1562 49.4768 11.4924 49.5384 11.7812C49.5999 12.0701 49.723 12.2962 49.9077 12.4595C50.0947 12.6205 50.3409 12.701 50.6463 12.701C50.9635 12.701 51.2417 12.617 51.4808 12.4489C51.7199 12.2784 51.9176 12.0476 52.0739 11.7564C52.2325 11.4652 52.3426 11.1373 52.4041 10.7727C52.4633 10.4129 52.4621 10.0897 52.4006 9.80327C52.3414 9.51681 52.2195 9.29072 52.0348 9.125C51.8501 8.95928 51.598 8.87642 51.2784 8.87642C50.9683 8.87642 50.6937 8.95573 50.4545 9.11435C50.2178 9.27296 50.0213 9.49432 49.8651 9.77841C49.7088 10.0625 49.5999 10.3939 49.5384 10.7727ZM53.677 15.5455L54.9341 8.04545H55.971L55.8254 8.92969H55.9142C55.9947 8.81605 56.1036 8.68466 56.2409 8.53551C56.3806 8.38636 56.564 8.25616 56.7913 8.14489C57.0186 8.03125 57.3015 7.97443 57.64 7.97443C58.0804 7.97443 58.4532 8.0857 58.7586 8.30824C59.064 8.53078 59.2818 8.85156 59.412 9.2706C59.5422 9.68963 59.5588 10.1939 59.4618 10.7834C59.3647 11.3729 59.1824 11.8783 58.9149 12.2997C58.6474 12.7187 58.323 13.0419 57.9419 13.2692C57.5631 13.4941 57.1523 13.6065 56.7096 13.6065C56.3782 13.6065 56.1166 13.5509 55.9248 13.4396C55.7354 13.3284 55.5946 13.1982 55.5022 13.049C55.4099 12.8999 55.3401 12.7673 55.2927 12.6513H55.2288L54.7458 15.5455H53.677ZM55.52 10.7727C55.4584 11.1562 55.4584 11.4924 55.52 11.7812C55.5815 12.0701 55.7047 12.2962 55.8893 12.4595C56.0763 12.6205 56.3225 12.701 56.6279 12.701C56.9452 12.701 57.2234 12.617 57.4625 12.4489C57.7016 12.2784 57.8993 12.0476 58.0555 11.7564C58.2141 11.4652 58.3242 11.1373 58.3858 10.7727C58.4449 10.4129 58.4438 10.0897 58.3822 9.80327C58.323 9.51681 58.2011 9.29072 58.0164 9.125C57.8318 8.95928 57.5797 8.87642 57.26 8.87642C56.9499 8.87642 56.6753 8.95573 56.4362 9.11435C56.1994 9.27296 56.0029 9.49432 55.8467 9.77841C55.6904 10.0625 55.5815 10.3939 55.52 10.7727ZM59.996 13.5L60.905 8.04545H61.9313L61.7857 8.91193H61.8425C61.9893 8.61837 62.2036 8.38755 62.4853 8.21946C62.767 8.04901 63.0677 7.96378 63.3873 7.96378C63.4559 7.96378 63.5341 7.96615 63.6217 7.97088C63.7093 7.97325 63.7803 7.97917 63.8347 7.98864L63.6643 9.00426C63.624 8.99242 63.5506 8.9794 63.4441 8.9652C63.3376 8.94863 63.2275 8.94034 63.1138 8.94034C62.8653 8.94034 62.6344 8.99361 62.4214 9.10014C62.2083 9.20431 62.0296 9.34991 61.8852 9.53693C61.7407 9.72159 61.6472 9.93229 61.6046 10.169L61.0577 13.5H59.996ZM65.7805 13.6101C65.262 13.6101 64.8288 13.4917 64.4808 13.255C64.1328 13.0159 63.8878 12.6821 63.7457 12.2536C63.606 11.8227 63.5824 11.322 63.6747 10.7514C63.7646 10.1927 63.9458 9.70502 64.218 9.28835C64.4926 8.87169 64.8359 8.54853 65.2478 8.31889C65.6621 8.08925 66.1226 7.97443 66.6292 7.97443C67.1477 7.97443 67.5797 8.09399 67.9254 8.3331C68.2734 8.57221 68.5184 8.9072 68.6605 9.33807C68.8025 9.76894 68.8274 10.2708 68.7351 10.8438C68.6451 11.3977 68.4616 11.883 68.1846 12.2997C67.91 12.714 67.5667 13.036 67.1548 13.2656C66.7429 13.4953 66.2848 13.6101 65.7805 13.6101ZM65.8409 12.7188C66.1818 12.7188 66.4789 12.6288 66.7322 12.4489C66.9879 12.2689 67.1962 12.0298 67.3572 11.7315C67.5182 11.4332 67.6283 11.1065 67.6875 10.7514C67.7419 10.4081 67.7407 10.0945 67.6839 9.81037C67.6295 9.52391 67.5111 9.29427 67.3288 9.12145C67.1465 8.94863 66.8932 8.86222 66.5689 8.86222C66.2279 8.86222 65.9285 8.95336 65.6704 9.13565C65.4147 9.31558 65.2064 9.55587 65.0454 9.85653C64.8868 10.1572 64.7791 10.4851 64.7223 10.8402C64.6678 11.1811 64.6678 11.4948 64.7223 11.7812C64.7767 12.0653 64.8951 12.2926 65.0774 12.4631C65.2597 12.6335 65.5142 12.7188 65.8409 12.7188ZM74.6732 8.04545L71.7861 13.5H70.6498L69.5773 8.04545H70.6746L71.3564 12.2429H71.4132L73.4907 8.04545H74.6732ZM76.7131 13.6101C76.178 13.6101 75.7353 13.4953 75.3849 13.2656C75.0369 13.0336 74.7931 12.7081 74.6534 12.2891C74.5137 11.8677 74.4912 11.3741 74.5859 10.8082C74.6783 10.2495 74.8641 9.7571 75.1435 9.33097C75.4228 8.90483 75.7708 8.57221 76.1875 8.3331C76.6065 8.09399 77.0694 7.97443 77.576 7.97443C77.8838 7.97443 78.1738 8.02533 78.446 8.12713C78.7206 8.22893 78.9538 8.38873 79.1456 8.60653C79.3374 8.82434 79.4699 9.10724 79.5433 9.45526C79.6191 9.8009 79.6167 10.2211 79.5362 10.7159L79.4759 11.0923H75.1364L75.2607 10.2969H78.5561C78.6058 10.0175 78.5928 9.77012 78.517 9.55469C78.4413 9.33688 78.3111 9.16525 78.1264 9.03977C77.9441 8.9143 77.7145 8.85156 77.4375 8.85156C77.1534 8.85156 76.8883 8.92614 76.642 9.07528C76.3958 9.22443 76.1899 9.41501 76.0241 9.64702C75.8608 9.87666 75.7578 10.1134 75.7152 10.3572L75.5909 11.0852C75.5294 11.483 75.54 11.8026 75.6229 12.044C75.7081 12.2855 75.8572 12.4607 76.0703 12.5696C76.2834 12.6785 76.5497 12.733 76.8693 12.733C77.0753 12.733 77.2659 12.7045 77.4411 12.6477C77.6186 12.5885 77.776 12.5021 77.9134 12.3885C78.0507 12.2725 78.1655 12.1281 78.2578 11.9553L79.2308 12.1364C79.1006 12.4323 78.9136 12.6915 78.6697 12.9141C78.4259 13.1342 78.1383 13.3059 77.8068 13.429C77.4777 13.5497 77.1132 13.6101 76.7131 13.6101ZM82.0999 13.6065C81.6572 13.6065 81.2819 13.4941 80.9742 13.2692C80.6688 13.0419 80.4522 12.7187 80.3243 12.2997C80.1989 11.8783 80.1846 11.3729 80.2817 10.7834C80.3811 10.1939 80.5646 9.68963 80.8321 9.2706C81.0997 8.85156 81.424 8.53078 81.8051 8.30824C82.1863 8.0857 82.5971 7.97443 83.0374 7.97443C83.3759 7.97443 83.6387 8.03125 83.8257 8.14489C84.0151 8.25616 84.1548 8.38636 84.2448 8.53551C84.3347 8.68466 84.4022 8.81605 84.4472 8.92969H84.5076L84.9586 6.22727H86.0203L84.813 13.5H83.776L83.9216 12.6513H83.8328C83.75 12.7673 83.6352 12.8999 83.4884 13.049C83.344 13.1982 83.1593 13.3284 82.9344 13.4396C82.7095 13.5509 82.4313 13.6065 82.0999 13.6065ZM82.4586 12.701C82.764 12.701 83.0374 12.6205 83.2789 12.4595C83.5227 12.2962 83.7251 12.0701 83.8861 11.7812C84.0495 11.4924 84.1631 11.1562 84.227 10.7727C84.2909 10.3939 84.2898 10.0625 84.2235 9.77841C84.1572 9.49432 84.0293 9.27296 83.8399 9.11435C83.6506 8.95573 83.4008 8.87642 83.0907 8.87642C82.7711 8.87642 82.4929 8.95928 82.2561 9.125C82.0194 9.29072 81.8253 9.51681 81.6738 9.80327C81.5246 10.0897 81.4204 10.4129 81.3613 10.7727C81.2997 11.1373 81.2973 11.4652 81.3542 11.7564C81.411 12.0476 81.5305 12.2784 81.7128 12.4489C81.8951 12.617 82.1437 12.701 82.4586 12.701Z" fill="#920000" fill-opacity="0.8"/>
<path d="M17.524 10C17.524 13.1653 14.8381 15.75 11.5012 15.75C8.16439 15.75 5.47852 13.1653 5.47852 10C5.47852 6.83472 8.16439 4.25 11.5012 4.25C14.8381 4.25 17.524 6.83472 17.524 10Z" stroke="#920000" stroke-opacity="0.8" stroke-width="0.5"/>
<path d="M11.8551 8.072H11.1191V7.336H11.8551V8.072ZM11.8151 13H11.1591V9.04H11.8151V13Z" fill="#920000"/>
</svg>
