<svg width="446" height="232" viewBox="0 0 446 232" fill="none" xmlns="http://www.w3.org/2000/svg">
<g filter="url(#filter0_f_551_5)">
<rect x="60" y="60" width="326" height="112" rx="16" fill="black" fill-opacity="0.1"/>
</g>
<rect x="61.6133" y="60.8271" width="322.772" height="110.345" rx="16" fill="white"/>
<path d="M83 112H363" stroke="url(#paint0_linear_551_5)" stroke-width="1.6" stroke-linecap="round"/>
<path d="M165.65 87.936V91.082C165.65 92.9887 165.173 94.492 164.22 95.592C163.267 96.6773 161.873 97.22 160.04 97.22C158.192 97.22 156.791 96.6773 155.838 95.592C154.899 94.492 154.43 92.9887 154.43 91.082V87.936C154.43 86.0293 154.899 84.5333 155.838 83.448C156.791 82.3627 158.192 81.82 160.04 81.82C161.873 81.82 163.267 82.3627 164.22 83.448C165.173 84.5333 165.65 86.0293 165.65 87.936ZM162.944 87.936C162.944 86.7333 162.709 85.8313 162.24 85.23C161.771 84.614 161.037 84.306 160.04 84.306C159.043 84.306 158.309 84.614 157.84 85.23C157.371 85.8313 157.136 86.7333 157.136 87.936V91.082C157.136 92.2847 157.371 93.194 157.84 93.81C158.309 94.426 159.043 94.734 160.04 94.734C161.037 94.734 161.771 94.426 162.24 93.81C162.709 93.194 162.944 92.2847 162.944 91.082V87.936ZM176.004 97V88.046H171.78V97H169.25V88.046H167.446V85.846H169.25V84.746C169.25 83.5727 169.544 82.612 170.13 81.864C170.732 81.1013 171.722 80.72 173.1 80.72C173.511 80.72 173.9 80.7567 174.266 80.83C174.633 80.8887 174.978 80.9693 175.3 81.072L174.64 83.272C174.142 83.1547 173.687 83.096 173.276 83.096C172.807 83.096 172.44 83.2133 172.176 83.448C171.912 83.6827 171.78 84.1153 171.78 84.746V85.846H176.004V84.68C176.004 83.4627 176.312 82.4653 176.928 81.688C177.544 80.896 178.534 80.5 179.898 80.5C180.397 80.5 180.91 80.5513 181.438 80.654C181.966 80.7567 182.443 80.8887 182.868 81.05L182.252 83.228C181.548 82.9933 180.918 82.876 180.36 82.876C179.774 82.876 179.319 83.008 178.996 83.272C178.688 83.5213 178.534 83.9907 178.534 84.68V85.846H182.01V88.046H178.534V97H176.004ZM186.973 95.02C187.516 95.02 187.963 94.932 188.315 94.756C188.667 94.5653 188.843 94.2867 188.843 93.92C188.843 93.5973 188.726 93.348 188.491 93.172C188.271 92.9813 187.868 92.8127 187.281 92.666L186.027 92.336C185.059 92.0867 184.341 91.6687 183.871 91.082C183.417 90.4953 183.189 89.7987 183.189 88.992C183.189 88.0387 183.519 87.2393 184.179 86.594C184.839 85.9487 185.859 85.626 187.237 85.626C187.795 85.626 188.381 85.692 188.997 85.824C189.613 85.956 190.259 86.1687 190.933 86.462L190.207 88.618C189.591 88.3247 189.034 88.1193 188.535 88.002C188.037 87.8847 187.597 87.826 187.215 87.826C186.174 87.826 185.653 88.178 185.653 88.882C185.653 89.1607 185.741 89.3807 185.917 89.542C186.108 89.7033 186.453 89.85 186.951 89.982L188.205 90.312C189.276 90.5907 190.053 91.016 190.537 91.588C191.036 92.16 191.285 92.8787 191.285 93.744C191.285 94.7707 190.933 95.6067 190.229 96.252C189.54 96.8973 188.447 97.22 186.951 97.22C185.675 97.22 184.333 96.9267 182.925 96.34L183.607 94.25C184.297 94.5287 184.92 94.7267 185.477 94.844C186.035 94.9613 186.533 95.02 186.973 95.02ZM196.479 83.734H193.817V81.116H196.479V83.734ZM196.413 97H193.883V85.846H196.413V97ZM206.608 96.626C206.227 96.802 205.787 96.9413 205.288 97.044C204.789 97.1613 204.283 97.22 203.77 97.22C202.919 97.22 202.237 97.044 201.724 96.692C201.211 96.34 200.837 95.8487 200.602 95.218C200.382 94.5873 200.272 93.8687 200.272 93.062V88.046H198.468V85.846H200.272V82.942H202.802V85.846H206.278V88.046H202.802V93.062C202.802 93.7367 202.927 94.206 203.176 94.47C203.44 94.7193 203.814 94.844 204.298 94.844C204.533 94.844 204.782 94.822 205.046 94.778C205.325 94.7193 205.633 94.624 205.97 94.492L206.608 96.626ZM217.112 96.362C216.35 96.67 215.631 96.89 214.956 97.022C214.282 97.154 213.644 97.22 213.042 97.22C211.385 97.22 210.131 96.7507 209.28 95.812C208.43 94.8733 208.004 93.6267 208.004 92.072V90.752C208.004 89.7107 208.195 88.8087 208.576 88.046C208.958 87.2833 209.5 86.6893 210.204 86.264C210.908 85.8387 211.737 85.626 212.69 85.626C213.468 85.626 214.194 85.7873 214.868 86.11C215.558 86.418 216.115 86.9093 216.54 87.584C216.98 88.244 217.2 89.0947 217.2 90.136C217.2 90.444 217.178 90.774 217.134 91.126C217.09 91.4633 217.017 91.8227 216.914 92.204H210.446C210.476 93.1133 210.703 93.7953 211.128 94.25C211.554 94.7047 212.236 94.932 213.174 94.932C213.673 94.932 214.186 94.8733 214.714 94.756C215.257 94.6387 215.814 94.4627 216.386 94.228L217.112 96.362ZM212.69 87.76C212.016 87.76 211.488 87.98 211.106 88.42C210.74 88.8453 210.527 89.4613 210.468 90.268H214.692C214.707 90.1947 214.714 90.1287 214.714 90.07C214.714 89.9967 214.714 89.9307 214.714 89.872C214.714 89.168 214.516 88.64 214.12 88.288C213.724 87.936 213.248 87.76 212.69 87.76ZM224.453 93.854V80.72H226.983V93.854C226.983 94.074 227.035 94.2867 227.137 94.492C227.255 94.6827 227.475 94.778 227.797 94.778H228.149V97.11H227.533C226.697 97.11 226.059 96.9487 225.619 96.626C225.179 96.3033 224.871 95.8927 224.695 95.394C224.534 94.8953 224.453 94.382 224.453 93.854ZM239.729 90.752V92.072C239.729 93.6267 239.304 94.8733 238.453 95.812C237.603 96.7507 236.4 97.22 234.845 97.22C233.291 97.22 232.088 96.7507 231.237 95.812C230.387 94.8733 229.961 93.6267 229.961 92.072V90.752C229.961 89.1973 230.379 87.958 231.215 87.034C232.066 86.0953 233.276 85.626 234.845 85.626C236.415 85.626 237.617 86.0953 238.453 87.034C239.304 87.958 239.729 89.1973 239.729 90.752ZM237.133 90.752C237.133 89.8573 236.935 89.1607 236.539 88.662C236.143 88.1487 235.579 87.892 234.845 87.892C234.112 87.892 233.547 88.1487 233.151 88.662C232.755 89.1607 232.557 89.8573 232.557 90.752V92.072C232.557 92.9667 232.755 93.6707 233.151 94.184C233.547 94.6973 234.112 94.954 234.845 94.954C235.579 94.954 236.143 94.6973 236.539 94.184C236.935 93.6707 237.133 92.9667 237.133 92.072V90.752ZM244.502 90.774V92.072C244.502 93.0107 244.671 93.7147 245.008 94.184C245.345 94.6533 245.888 94.888 246.636 94.888C247.003 94.888 247.413 94.844 247.868 94.756C248.337 94.6533 248.843 94.4993 249.386 94.294L250.112 96.428C249.452 96.692 248.829 96.89 248.242 97.022C247.655 97.154 247.076 97.22 246.504 97.22C245.037 97.22 243.915 96.7507 243.138 95.812C242.361 94.8733 241.972 93.6267 241.972 92.072V90.774C241.972 89.2047 242.361 87.958 243.138 87.034C243.915 86.0953 245.037 85.626 246.504 85.626C247.061 85.626 247.626 85.692 248.198 85.824C248.77 85.956 249.371 86.1467 250.002 86.396L249.276 88.574C248.22 88.1633 247.34 87.958 246.636 87.958C245.888 87.958 245.345 88.1927 245.008 88.662C244.671 89.1167 244.502 89.8207 244.502 90.774ZM260.875 97.11C260.127 97.11 259.526 96.956 259.071 96.648C258.631 96.34 258.309 95.9587 258.103 95.504C257.473 96.0907 256.864 96.5233 256.277 96.802C255.691 97.0807 255.06 97.22 254.385 97.22C253.403 97.22 252.677 96.9047 252.207 96.274C251.753 95.6433 251.525 94.844 251.525 93.876C251.525 93.2307 251.643 92.666 251.877 92.182C252.127 91.6833 252.53 91.2947 253.087 91.016C253.645 90.7373 254.407 90.598 255.375 90.598C255.757 90.598 256.153 90.6273 256.563 90.686C256.974 90.73 257.385 90.7887 257.795 90.862V89.564C257.795 88.948 257.627 88.53 257.289 88.31C256.952 88.0753 256.497 87.958 255.925 87.958C255.485 87.958 255.001 88.0167 254.473 88.134C253.96 88.2513 253.403 88.4347 252.801 88.684L252.075 86.528C253.557 85.9267 254.899 85.626 256.101 85.626C257.187 85.626 258.023 85.8093 258.609 86.176C259.211 86.5427 259.629 87.0267 259.863 87.628C260.098 88.2293 260.215 88.8747 260.215 89.564V93.854C260.215 94.074 260.274 94.2867 260.391 94.492C260.523 94.6827 260.773 94.778 261.139 94.778H261.381V97.11H260.875ZM253.967 93.832C253.967 94.228 254.055 94.5433 254.231 94.778C254.407 94.998 254.664 95.108 255.001 95.108C255.339 95.108 255.72 95.02 256.145 94.844C256.571 94.668 257.121 94.2573 257.795 93.612V92.666C257.033 92.534 256.285 92.468 255.551 92.468C254.979 92.468 254.569 92.5853 254.319 92.82C254.085 93.0547 253.967 93.392 253.967 93.832ZM270.288 96.626C269.907 96.802 269.467 96.9413 268.968 97.044C268.469 97.1613 267.963 97.22 267.45 97.22C266.599 97.22 265.917 97.044 265.404 96.692C264.891 96.34 264.517 95.8487 264.282 95.218C264.062 94.5873 263.952 93.8687 263.952 93.062V88.046H262.148V85.846H263.952V82.942H266.482V85.846H269.958V88.046H266.482V93.062C266.482 93.7367 266.607 94.206 266.856 94.47C267.12 94.7193 267.494 94.844 267.978 94.844C268.213 94.844 268.462 94.822 268.726 94.778C269.005 94.7193 269.313 94.624 269.65 94.492L270.288 96.626ZM274.918 83.734H272.256V81.116H274.918V83.734ZM274.852 97H272.322V85.846H274.852V97ZM287.468 90.752V92.072C287.468 93.6267 287.042 94.8733 286.192 95.812C285.341 96.7507 284.138 97.22 282.584 97.22C281.029 97.22 279.826 96.7507 278.976 95.812C278.125 94.8733 277.7 93.6267 277.7 92.072V90.752C277.7 89.1973 278.118 87.958 278.954 87.034C279.804 86.0953 281.014 85.626 282.584 85.626C284.153 85.626 285.356 86.0953 286.192 87.034C287.042 87.958 287.468 89.1973 287.468 90.752ZM284.872 90.752C284.872 89.8573 284.674 89.1607 284.278 88.662C283.882 88.1487 283.317 87.892 282.584 87.892C281.85 87.892 281.286 88.1487 280.89 88.662C280.494 89.1607 280.296 89.8573 280.296 90.752V92.072C280.296 92.9667 280.494 93.6707 280.89 94.184C281.286 94.6973 281.85 94.954 282.584 94.954C283.317 94.954 283.882 94.6973 284.278 94.184C284.674 93.6707 284.872 92.9667 284.872 92.072V90.752ZM295.76 87.98C295.394 87.98 294.976 88.068 294.506 88.244C294.037 88.42 293.48 88.7647 292.834 89.278V97H290.304V85.846H292.702V87.342C293.392 86.7407 294.044 86.308 294.66 86.044C295.276 85.7653 295.9 85.626 296.53 85.626C297.601 85.626 298.415 85.9707 298.972 86.66C299.53 87.3347 299.808 88.288 299.808 89.52V97H297.278V89.828C297.278 88.596 296.772 87.98 295.76 87.98Z" fill="black"/>
<path d="M121.228 146L125.449 137.648V137.578H120.532V135.818H127.676V137.603L123.45 146H121.228ZM130.528 146L134.748 137.648V137.578H129.832V135.818H136.976V137.603L132.75 146H130.528Z" fill="black"/>
<circle cx="108" cy="141" r="6" fill="#00D021"/>
<circle cx="317" cy="140" r="6" fill="#848484"/>
<path d="M329.671 144.21V142.515L333.922 135.818H335.384V138.165H334.518L331.839 142.406V142.485H337.879V144.21H329.671ZM334.558 146V143.693L334.598 142.942V135.818H336.616V146H334.558Z" fill="black"/>
<circle cx="216" cy="141" r="6" fill="#C01F1F"/>
<path d="M233.255 135.818V146H231.102V137.862H231.043L228.711 139.323V137.414L231.232 135.818H233.255ZM240.367 146.224C239.512 146.22 238.776 146.01 238.16 145.592C237.547 145.175 237.074 144.57 236.743 143.778C236.415 142.986 236.252 142.033 236.256 140.919C236.256 139.809 236.42 138.862 236.748 138.08C237.079 137.298 237.552 136.703 238.165 136.295C238.781 135.884 239.515 135.679 240.367 135.679C241.219 135.679 241.951 135.884 242.565 136.295C243.181 136.706 243.655 137.303 243.986 138.085C244.318 138.864 244.482 139.809 244.479 140.919C244.479 142.036 244.313 142.991 243.981 143.783C243.653 144.575 243.183 145.18 242.569 145.597C241.956 146.015 241.222 146.224 240.367 146.224ZM240.367 144.439C240.95 144.439 241.416 144.146 241.764 143.559C242.112 142.972 242.284 142.092 242.281 140.919C242.281 140.147 242.202 139.504 242.043 138.99C241.887 138.476 241.665 138.09 241.376 137.832C241.091 137.573 240.755 137.444 240.367 137.444C239.787 137.444 239.323 137.734 238.975 138.314C238.627 138.894 238.451 139.762 238.448 140.919C238.448 141.701 238.526 142.354 238.682 142.878C238.841 143.398 239.065 143.789 239.353 144.051C239.641 144.31 239.979 144.439 240.367 144.439Z" fill="black"/>
<defs>
<filter id="filter0_f_551_5" x="0" y="0" width="446" height="232" filterUnits="userSpaceOnUse" color-interpolation-filters="sRGB">
<feFlood flood-opacity="0" result="BackgroundImageFix"/>
<feBlend mode="normal" in="SourceGraphic" in2="BackgroundImageFix" result="shape"/>
<feGaussianBlur stdDeviation="30" result="effect1_foregroundBlur_551_5"/>
</filter>
<linearGradient id="paint0_linear_551_5" x1="83" y1="112.5" x2="363" y2="112.5" gradientUnits="userSpaceOnUse">
<stop stop-opacity="0"/>
<stop offset="0.15" stop-opacity="0.5"/>
<stop offset="0.5"/>
<stop offset="0.85" stop-opacity="0.5"/>
<stop offset="1" stop-opacity="0"/>
</linearGradient>
</defs>
</svg>
