<svg width="562" height="269" viewBox="0 0 562 269" fill="none" xmlns="http://www.w3.org/2000/svg">
<g filter="url(#filter0_f_592_94)">
<rect x="60" y="60.9272" width="441.992" height="148.073" rx="16" fill="black" fill-opacity="0.1"/>
</g>
<rect x="62.1797" y="62.021" width="437.616" height="145.885" rx="16" fill="white"/>
<path d="M91.1797 119.675H470.805" stroke="url(#paint0_linear_592_94)" stroke-width="1.6" stroke-linecap="round"/>
<path d="M198.744 92.0166V95.1626C198.744 97.0692 198.267 98.5726 197.314 99.6726C196.36 100.758 194.967 101.301 193.134 101.301C191.286 101.301 189.885 100.758 188.932 99.6726C187.993 98.5726 187.524 97.0692 187.524 95.1626V92.0166C187.524 90.1099 187.993 88.6139 188.932 87.5286C189.885 86.4432 191.286 85.9006 193.134 85.9006C194.967 85.9006 196.36 86.4432 197.314 87.5286C198.267 88.6139 198.744 90.1099 198.744 92.0166ZM196.038 92.0166C196.038 90.8139 195.803 89.9119 195.334 89.3106C194.864 88.6946 194.131 88.3866 193.134 88.3866C192.136 88.3866 191.403 88.6946 190.934 89.3106C190.464 89.9119 190.23 90.8139 190.23 92.0166V95.1626C190.23 96.3652 190.464 97.2746 190.934 97.8906C191.403 98.5066 192.136 98.8146 193.134 98.8146C194.131 98.8146 194.864 98.5066 195.334 97.8906C195.803 97.2746 196.038 96.3652 196.038 95.1626V92.0166ZM209.098 101.081V92.1266H204.874V101.081H202.344V92.1266H200.54V89.9266H202.344V88.8266C202.344 87.6532 202.637 86.6926 203.224 85.9446C203.825 85.1819 204.815 84.8006 206.194 84.8006C206.605 84.8006 206.993 84.8372 207.36 84.9106C207.727 84.9692 208.071 85.0499 208.394 85.1526L207.734 87.3526C207.235 87.2352 206.781 87.1766 206.37 87.1766C205.901 87.1766 205.534 87.2939 205.27 87.5286C205.006 87.7632 204.874 88.1959 204.874 88.8266V89.9266H209.098V88.7606C209.098 87.5432 209.406 86.5459 210.022 85.7686C210.638 84.9766 211.628 84.5806 212.992 84.5806C213.491 84.5806 214.004 84.6319 214.532 84.7346C215.06 84.8372 215.537 84.9692 215.962 85.1306L215.346 87.3086C214.642 87.0739 214.011 86.9566 213.454 86.9566C212.867 86.9566 212.413 87.0886 212.09 87.3526C211.782 87.6019 211.628 88.0712 211.628 88.7606V89.9266H215.104V92.1266H211.628V101.081H209.098ZM220.067 99.1006C220.61 99.1006 221.057 99.0126 221.409 98.8366C221.761 98.6459 221.937 98.3672 221.937 98.0006C221.937 97.6779 221.82 97.4286 221.585 97.2526C221.365 97.0619 220.962 96.8932 220.375 96.7466L219.121 96.4166C218.153 96.1672 217.434 95.7492 216.965 95.1626C216.51 94.5759 216.283 93.8792 216.283 93.0726C216.283 92.1192 216.613 91.3199 217.273 90.6746C217.933 90.0292 218.952 89.7066 220.331 89.7066C220.888 89.7066 221.475 89.7726 222.091 89.9046C222.707 90.0366 223.352 90.2492 224.027 90.5426L223.301 92.6986C222.685 92.4052 222.128 92.1999 221.629 92.0826C221.13 91.9652 220.69 91.9066 220.309 91.9066C219.268 91.9066 218.747 92.2586 218.747 92.9626C218.747 93.2412 218.835 93.4612 219.011 93.6226C219.202 93.7839 219.546 93.9306 220.045 94.0626L221.299 94.3926C222.37 94.6712 223.147 95.0966 223.631 95.6686C224.13 96.2406 224.379 96.9592 224.379 97.8246C224.379 98.8512 224.027 99.6872 223.323 100.333C222.634 100.978 221.541 101.301 220.045 101.301C218.769 101.301 217.427 101.007 216.019 100.421L216.701 98.3306C217.39 98.6092 218.014 98.8072 218.571 98.9246C219.128 99.0419 219.627 99.1006 220.067 99.1006ZM229.572 87.8146H226.91V85.1966H229.572V87.8146ZM229.506 101.081H226.976V89.9266H229.506V101.081ZM239.702 100.707C239.321 100.883 238.881 101.022 238.382 101.125C237.883 101.242 237.377 101.301 236.864 101.301C236.013 101.301 235.331 101.125 234.818 100.773C234.305 100.421 233.931 99.9292 233.696 99.2986C233.476 98.6679 233.366 97.9492 233.366 97.1426V92.1266H231.562V89.9266H233.366V87.0226H235.896V89.9266H239.372V92.1266H235.896V97.1426C235.896 97.8172 236.021 98.2866 236.27 98.5506C236.534 98.7999 236.908 98.9246 237.392 98.9246C237.627 98.9246 237.876 98.9026 238.14 98.8586C238.419 98.7999 238.727 98.7046 239.064 98.5726L239.702 100.707ZM250.206 100.443C249.443 100.751 248.725 100.971 248.05 101.103C247.375 101.235 246.737 101.301 246.136 101.301C244.479 101.301 243.225 100.831 242.374 99.8926C241.523 98.9539 241.098 97.7072 241.098 96.1526V94.8326C241.098 93.7912 241.289 92.8892 241.67 92.1266C242.051 91.3639 242.594 90.7699 243.298 90.3446C244.002 89.9192 244.831 89.7066 245.784 89.7066C246.561 89.7066 247.287 89.8679 247.962 90.1906C248.651 90.4986 249.209 90.9899 249.634 91.6646C250.074 92.3246 250.294 93.1752 250.294 94.2166C250.294 94.5246 250.272 94.8546 250.228 95.2066C250.184 95.5439 250.111 95.9032 250.008 96.2846H243.54C243.569 97.1939 243.797 97.8759 244.222 98.3306C244.647 98.7852 245.329 99.0126 246.268 99.0126C246.767 99.0126 247.28 98.9539 247.808 98.8366C248.351 98.7192 248.908 98.5432 249.48 98.3086L250.206 100.443ZM245.784 91.8406C245.109 91.8406 244.581 92.0606 244.2 92.5006C243.833 92.9259 243.621 93.5419 243.562 94.3486H247.786C247.801 94.2752 247.808 94.2092 247.808 94.1506C247.808 94.0772 247.808 94.0112 247.808 93.9526C247.808 93.2486 247.61 92.7206 247.214 92.3686C246.818 92.0166 246.341 91.8406 245.784 91.8406ZM257.547 97.9346V84.8006H260.077V97.9346C260.077 98.1546 260.128 98.3672 260.231 98.5726C260.348 98.7632 260.568 98.8586 260.891 98.8586H261.243V101.191H260.627C259.791 101.191 259.153 101.029 258.713 100.707C258.273 100.384 257.965 99.9732 257.789 99.4746C257.628 98.9759 257.547 98.4626 257.547 97.9346ZM272.823 94.8326V96.1526C272.823 97.7072 272.398 98.9539 271.547 99.8926C270.696 100.831 269.494 101.301 267.939 101.301C266.384 101.301 265.182 100.831 264.331 99.8926C263.48 98.9539 263.055 97.7072 263.055 96.1526V94.8326C263.055 93.2779 263.473 92.0386 264.309 91.1146C265.16 90.1759 266.37 89.7066 267.939 89.7066C269.508 89.7066 270.711 90.1759 271.547 91.1146C272.398 92.0386 272.823 93.2779 272.823 94.8326ZM270.227 94.8326C270.227 93.9379 270.029 93.2412 269.633 92.7426C269.237 92.2292 268.672 91.9726 267.939 91.9726C267.206 91.9726 266.641 92.2292 266.245 92.7426C265.849 93.2412 265.651 93.9379 265.651 94.8326V96.1526C265.651 97.0472 265.849 97.7512 266.245 98.2646C266.641 98.7779 267.206 99.0346 267.939 99.0346C268.672 99.0346 269.237 98.7779 269.633 98.2646C270.029 97.7512 270.227 97.0472 270.227 96.1526V94.8326ZM277.596 94.8546V96.1526C277.596 97.0912 277.765 97.7952 278.102 98.2646C278.439 98.7339 278.982 98.9686 279.73 98.9686C280.097 98.9686 280.507 98.9246 280.962 98.8366C281.431 98.7339 281.937 98.5799 282.48 98.3746L283.206 100.509C282.546 100.773 281.923 100.971 281.336 101.103C280.749 101.235 280.17 101.301 279.598 101.301C278.131 101.301 277.009 100.831 276.232 99.8926C275.455 98.9539 275.066 97.7072 275.066 96.1526V94.8546C275.066 93.2852 275.455 92.0386 276.232 91.1146C277.009 90.1759 278.131 89.7066 279.598 89.7066C280.155 89.7066 280.72 89.7726 281.292 89.9046C281.864 90.0366 282.465 90.2272 283.096 90.4766L282.37 92.6546C281.314 92.2439 280.434 92.0386 279.73 92.0386C278.982 92.0386 278.439 92.2732 278.102 92.7426C277.765 93.1972 277.596 93.9012 277.596 94.8546ZM293.969 101.191C293.221 101.191 292.62 101.037 292.165 100.729C291.725 100.421 291.403 100.039 291.197 99.5846C290.567 100.171 289.958 100.604 289.371 100.883C288.785 101.161 288.154 101.301 287.479 101.301C286.497 101.301 285.771 100.985 285.301 100.355C284.847 99.7239 284.619 98.9246 284.619 97.9566C284.619 97.3112 284.737 96.7466 284.971 96.2626C285.221 95.7639 285.624 95.3752 286.181 95.0966C286.739 94.8179 287.501 94.6786 288.469 94.6786C288.851 94.6786 289.247 94.7079 289.657 94.7666C290.068 94.8106 290.479 94.8692 290.889 94.9426V93.6446C290.889 93.0286 290.721 92.6106 290.383 92.3906C290.046 92.1559 289.591 92.0386 289.019 92.0386C288.579 92.0386 288.095 92.0972 287.567 92.2146C287.054 92.3319 286.497 92.5152 285.895 92.7646L285.169 90.6086C286.651 90.0072 287.993 89.7066 289.195 89.7066C290.281 89.7066 291.117 89.8899 291.703 90.2566C292.305 90.6232 292.723 91.1072 292.957 91.7086C293.192 92.3099 293.309 92.9552 293.309 93.6446V97.9346C293.309 98.1546 293.368 98.3672 293.485 98.5726C293.617 98.7632 293.867 98.8586 294.233 98.8586H294.475V101.191H293.969ZM287.061 97.9126C287.061 98.3086 287.149 98.6239 287.325 98.8586C287.501 99.0786 287.758 99.1886 288.095 99.1886C288.433 99.1886 288.814 99.1006 289.239 98.9246C289.665 98.7486 290.215 98.3379 290.889 97.6926V96.7466C290.127 96.6146 289.379 96.5486 288.645 96.5486C288.073 96.5486 287.663 96.6659 287.413 96.9006C287.179 97.1352 287.061 97.4726 287.061 97.9126ZM303.382 100.707C303 100.883 302.56 101.022 302.062 101.125C301.563 101.242 301.057 101.301 300.544 101.301C299.693 101.301 299.011 101.125 298.498 100.773C297.984 100.421 297.61 99.9292 297.376 99.2986C297.156 98.6679 297.046 97.9492 297.046 97.1426V92.1266H295.242V89.9266H297.046V87.0226H299.576V89.9266H303.052V92.1266H299.576V97.1426C299.576 97.8172 299.7 98.2866 299.95 98.5506C300.214 98.7999 300.588 98.9246 301.072 98.9246C301.306 98.9246 301.556 98.9026 301.82 98.8586C302.098 98.7999 302.406 98.7046 302.744 98.5726L303.382 100.707ZM308.012 87.8146H305.35V85.1966H308.012V87.8146ZM307.946 101.081H305.416V89.9266H307.946V101.081ZM320.561 94.8326V96.1526C320.561 97.7072 320.136 98.9539 319.285 99.8926C318.435 100.831 317.232 101.301 315.677 101.301C314.123 101.301 312.92 100.831 312.069 99.8926C311.219 98.9539 310.793 97.7072 310.793 96.1526V94.8326C310.793 93.2779 311.211 92.0386 312.047 91.1146C312.898 90.1759 314.108 89.7066 315.677 89.7066C317.247 89.7066 318.449 90.1759 319.285 91.1146C320.136 92.0386 320.561 93.2779 320.561 94.8326ZM317.965 94.8326C317.965 93.9379 317.767 93.2412 317.371 92.7426C316.975 92.2292 316.411 91.9726 315.677 91.9726C314.944 91.9726 314.379 92.2292 313.983 92.7426C313.587 93.2412 313.389 93.9379 313.389 94.8326V96.1526C313.389 97.0472 313.587 97.7512 313.983 98.2646C314.379 98.7779 314.944 99.0346 315.677 99.0346C316.411 99.0346 316.975 98.7779 317.371 98.2646C317.767 97.7512 317.965 97.0472 317.965 96.1526V94.8326ZM328.854 92.0606C328.487 92.0606 328.069 92.1486 327.6 92.3246C327.131 92.5006 326.573 92.8452 325.928 93.3586V101.081H323.398V89.9266H325.796V91.4226C326.485 90.8212 327.138 90.3886 327.754 90.1246C328.37 89.8459 328.993 89.7066 329.624 89.7066C330.695 89.7066 331.509 90.0512 332.066 90.7406C332.623 91.4152 332.902 92.3686 332.902 93.6006V101.081H330.372V93.9086C330.372 92.6766 329.866 92.0606 328.854 92.0606Z" fill="black"/>
<circle cx="412.055" cy="163" r="9" fill="#848484"/>
<path d="M431.397 169.42V166.03L439.898 152.636H442.822V157.33H441.092L435.732 165.811V165.97H447.813V169.42H431.397ZM441.171 173V168.386L441.251 166.885V152.636H445.288V173H441.171Z" fill="black"/>
<circle cx="265.055" cy="163" r="9" fill="#C01F1F"/>
<path d="M294.565 152.636V173H290.259V156.723H290.14L285.477 159.646V155.828L290.518 152.636H294.565ZM308.789 173.447C307.079 173.441 305.607 173.02 304.374 172.185C303.148 171.349 302.203 170.14 301.54 168.555C300.884 166.971 300.559 165.065 300.566 162.838C300.566 160.617 300.894 158.725 301.55 157.161C302.213 155.596 303.158 154.406 304.384 153.591C305.617 152.769 307.085 152.358 308.789 152.358C310.492 152.358 311.957 152.769 313.184 153.591C314.417 154.413 315.365 155.606 316.027 157.17C316.69 158.728 317.018 160.617 317.012 162.838C317.012 165.072 316.68 166.981 316.018 168.565C315.361 170.15 314.42 171.359 313.194 172.195C311.967 173.03 310.499 173.447 308.789 173.447ZM308.789 169.878C309.956 169.878 310.887 169.291 311.583 168.118C312.279 166.945 312.624 165.185 312.617 162.838C312.617 161.294 312.458 160.008 312.14 158.98C311.828 157.953 311.384 157.18 310.807 156.663C310.237 156.146 309.564 155.888 308.789 155.888C307.629 155.888 306.701 156.468 306.005 157.628C305.309 158.788 304.957 160.525 304.951 162.838C304.951 164.402 305.107 165.708 305.418 166.756C305.736 167.796 306.184 168.579 306.76 169.102C307.337 169.619 308.013 169.878 308.789 169.878Z" fill="black"/>
<circle cx="117" cy="163" r="9" fill="#00D021"/>
<path d="M138.511 173L146.952 156.295V156.156H137.119V152.636H151.407V156.206L142.955 173H138.511ZM157.11 173L165.552 156.295V156.156H155.718V152.636H170.006V156.206L161.554 173H157.11Z" fill="black"/>
<defs>
<filter id="filter0_f_592_94" x="0" y="0.927246" width="561.992" height="268.073" filterUnits="userSpaceOnUse" color-interpolation-filters="sRGB">
<feFlood flood-opacity="0" result="BackgroundImageFix"/>
<feBlend mode="normal" in="SourceGraphic" in2="BackgroundImageFix" result="shape"/>
<feGaussianBlur stdDeviation="30" result="effect1_foregroundBlur_592_94"/>
</filter>
<linearGradient id="paint0_linear_592_94" x1="91.1797" y1="120.175" x2="470.805" y2="120.175" gradientUnits="userSpaceOnUse">
<stop stop-opacity="0"/>
<stop offset="0.15" stop-opacity="0.5"/>
<stop offset="0.5"/>
<stop offset="0.85" stop-opacity="0.5"/>
<stop offset="1" stop-opacity="0"/>
</linearGradient>
</defs>
</svg>
