<svg width="438" height="291" viewBox="0 0 438 291" fill="none" xmlns="http://www.w3.org/2000/svg">
<rect x="0.179688" y="0.179199" width="437.616" height="290.637" rx="16" fill="white"/>
<path d="M29.1797 56.748H408.805" stroke="url(#paint0_linear_592_94)" stroke-width="1.6" stroke-linecap="round"/>
<path d="M136.744 29.0893V32.2353C136.744 34.142 136.267 35.6453 135.314 36.7453C134.36 37.8307 132.967 38.3733 131.134 38.3733C129.286 38.3733 127.885 37.8307 126.932 36.7453C125.993 35.6453 125.524 34.142 125.524 32.2353V29.0893C125.524 27.1827 125.993 25.6867 126.932 24.6013C127.885 23.516 129.286 22.9733 131.134 22.9733C132.967 22.9733 134.36 23.516 135.314 24.6013C136.267 25.6867 136.744 27.1827 136.744 29.0893ZM134.038 29.0893C134.038 27.8867 133.803 26.9847 133.334 26.3833C132.864 25.7673 132.131 25.4593 131.134 25.4593C130.136 25.4593 129.403 25.7673 128.934 26.3833C128.464 26.9847 128.23 27.8867 128.23 29.0893V32.2353C128.23 33.438 128.464 34.3473 128.934 34.9633C129.403 35.5793 130.136 35.8873 131.134 35.8873C132.131 35.8873 132.864 35.5793 133.334 34.9633C133.803 34.3473 134.038 33.438 134.038 32.2353V29.0893ZM147.098 38.1533V29.1993H142.874V38.1533H140.344V29.1993H138.54V26.9993H140.344V25.8993C140.344 24.726 140.637 23.7653 141.224 23.0173C141.825 22.2547 142.815 21.8733 144.194 21.8733C144.605 21.8733 144.993 21.91 145.36 21.9833C145.727 22.042 146.071 22.1227 146.394 22.2253L145.734 24.4253C145.235 24.308 144.781 24.2493 144.37 24.2493C143.901 24.2493 143.534 24.3667 143.27 24.6013C143.006 24.836 142.874 25.2687 142.874 25.8993V26.9993H147.098V25.8333C147.098 24.616 147.406 23.6187 148.022 22.8413C148.638 22.0493 149.628 21.6533 150.992 21.6533C151.491 21.6533 152.004 21.7047 152.532 21.8073C153.06 21.91 153.537 22.042 153.962 22.2033L153.346 24.3813C152.642 24.1467 152.011 24.0293 151.454 24.0293C150.867 24.0293 150.413 24.1613 150.09 24.4253C149.782 24.6747 149.628 25.144 149.628 25.8333V26.9993H153.104V29.1993H149.628V38.1533H147.098ZM158.067 36.1733C158.61 36.1733 159.057 36.0853 159.409 35.9093C159.761 35.7187 159.937 35.44 159.937 35.0733C159.937 34.7507 159.82 34.5013 159.585 34.3253C159.365 34.1347 158.962 33.966 158.375 33.8193L157.121 33.4893C156.153 33.24 155.434 32.822 154.965 32.2353C154.51 31.6487 154.283 30.952 154.283 30.1453C154.283 29.192 154.613 28.3927 155.273 27.7473C155.933 27.102 156.952 26.7793 158.331 26.7793C158.888 26.7793 159.475 26.8453 160.091 26.9773C160.707 27.1093 161.352 27.322 162.027 27.6153L161.301 29.7713C160.685 29.478 160.128 29.2727 159.629 29.1553C159.13 29.038 158.69 28.9793 158.309 28.9793C157.268 28.9793 156.747 29.3313 156.747 30.0353C156.747 30.314 156.835 30.534 157.011 30.6953C157.202 30.8567 157.546 31.0033 158.045 31.1353L159.299 31.4653C160.37 31.744 161.147 32.1693 161.631 32.7413C162.13 33.3133 162.379 34.032 162.379 34.8973C162.379 35.924 162.027 36.76 161.323 37.4053C160.634 38.0507 159.541 38.3733 158.045 38.3733C156.769 38.3733 155.427 38.08 154.019 37.4933L154.701 35.4033C155.39 35.682 156.014 35.88 156.571 35.9973C157.128 36.1147 157.627 36.1733 158.067 36.1733ZM167.572 24.8873H164.91V22.2693H167.572V24.8873ZM167.506 38.1533H164.976V26.9993H167.506V38.1533ZM177.702 37.7793C177.321 37.9553 176.881 38.0947 176.382 38.1973C175.883 38.3147 175.377 38.3733 174.864 38.3733C174.013 38.3733 173.331 38.1973 172.818 37.8453C172.305 37.4933 171.931 37.002 171.696 36.3713C171.476 35.7407 171.366 35.022 171.366 34.2153V29.1993H169.562V26.9993H171.366V24.0953H173.896V26.9993H177.372V29.1993H173.896V34.2153C173.896 34.89 174.021 35.3593 174.27 35.6233C174.534 35.8727 174.908 35.9973 175.392 35.9973C175.627 35.9973 175.876 35.9753 176.14 35.9313C176.419 35.8727 176.727 35.7773 177.064 35.6453L177.702 37.7793ZM188.206 37.5153C187.443 37.8233 186.725 38.0433 186.05 38.1753C185.375 38.3073 184.737 38.3733 184.136 38.3733C182.479 38.3733 181.225 37.904 180.374 36.9653C179.523 36.0267 179.098 34.78 179.098 33.2253V31.9053C179.098 30.864 179.289 29.962 179.67 29.1993C180.051 28.4367 180.594 27.8427 181.298 27.4173C182.002 26.992 182.831 26.7793 183.784 26.7793C184.561 26.7793 185.287 26.9407 185.962 27.2633C186.651 27.5713 187.209 28.0627 187.634 28.7373C188.074 29.3973 188.294 30.248 188.294 31.2893C188.294 31.5973 188.272 31.9273 188.228 32.2793C188.184 32.6167 188.111 32.976 188.008 33.3573H181.54C181.569 34.2667 181.797 34.9487 182.222 35.4033C182.647 35.858 183.329 36.0853 184.268 36.0853C184.767 36.0853 185.28 36.0267 185.808 35.9093C186.351 35.792 186.908 35.616 187.48 35.3813L188.206 37.5153ZM183.784 28.9133C183.109 28.9133 182.581 29.1333 182.2 29.5733C181.833 29.9987 181.621 30.6147 181.562 31.4213H185.786C185.801 31.348 185.808 31.282 185.808 31.2233C185.808 31.15 185.808 31.084 185.808 31.0253C185.808 30.3213 185.61 29.7933 185.214 29.4413C184.818 29.0893 184.341 28.9133 183.784 28.9133ZM195.547 35.0073V21.8733H198.077V35.0073C198.077 35.2273 198.128 35.44 198.231 35.6453C198.348 35.836 198.568 35.9313 198.891 35.9313H199.243V38.2633H198.627C197.791 38.2633 197.153 38.102 196.713 37.7793C196.273 37.4567 195.965 37.046 195.789 36.5473C195.628 36.0487 195.547 35.5353 195.547 35.0073ZM210.823 31.9053V33.2253C210.823 34.78 210.398 36.0267 209.547 36.9653C208.696 37.904 207.494 38.3733 205.939 38.3733C204.384 38.3733 203.182 37.904 202.331 36.9653C201.48 36.0267 201.055 34.78 201.055 33.2253V31.9053C201.055 30.3507 201.473 29.1113 202.309 28.1873C203.16 27.2487 204.37 26.7793 205.939 26.7793C207.508 26.7793 208.711 27.2487 209.547 28.1873C210.398 29.1113 210.823 30.3507 210.823 31.9053ZM208.227 31.9053C208.227 31.0107 208.029 30.314 207.633 29.8153C207.237 29.302 206.672 29.0453 205.939 29.0453C205.206 29.0453 204.641 29.302 204.245 29.8153C203.849 30.314 203.651 31.0107 203.651 31.9053V33.2253C203.651 34.12 203.849 34.824 204.245 35.3373C204.641 35.8507 205.206 36.1073 205.939 36.1073C206.672 36.1073 207.237 35.8507 207.633 35.3373C208.029 34.824 208.227 34.12 208.227 33.2253V31.9053ZM215.596 31.9273V33.2253C215.596 34.164 215.765 34.868 216.102 35.3373C216.439 35.8067 216.982 36.0413 217.73 36.0413C218.097 36.0413 218.507 35.9973 218.962 35.9093C219.431 35.8067 219.937 35.6527 220.48 35.4473L221.206 37.5813C220.546 37.8453 219.923 38.0433 219.336 38.1753C218.749 38.3073 218.17 38.3733 217.598 38.3733C216.131 38.3733 215.009 37.904 214.232 36.9653C213.455 36.0267 213.066 34.78 213.066 33.2253V31.9273C213.066 30.358 213.455 29.1113 214.232 28.1873C215.009 27.2487 216.131 26.7793 217.598 26.7793C218.155 26.7793 218.72 26.8453 219.292 26.9773C219.864 27.1093 220.465 27.3 221.096 27.5493L220.37 29.7273C219.314 29.3167 218.434 29.1113 217.73 29.1113C216.982 29.1113 216.439 29.346 216.102 29.8153C215.765 30.27 215.596 30.974 215.596 31.9273ZM231.969 38.2633C231.221 38.2633 230.62 38.1093 230.165 37.8013C229.725 37.4933 229.403 37.112 229.197 36.6573C228.567 37.244 227.958 37.6767 227.371 37.9553C226.785 38.234 226.154 38.3733 225.479 38.3733C224.497 38.3733 223.771 38.058 223.301 37.4273C222.847 36.7967 222.619 35.9973 222.619 35.0293C222.619 34.384 222.737 33.8193 222.971 33.3353C223.221 32.8367 223.624 32.448 224.181 32.1693C224.739 31.8907 225.501 31.7513 226.469 31.7513C226.851 31.7513 227.247 31.7807 227.657 31.8393C228.068 31.8833 228.479 31.942 228.889 32.0153V30.7173C228.889 30.1013 228.721 29.6833 228.383 29.4633C228.046 29.2287 227.591 29.1113 227.019 29.1113C226.579 29.1113 226.095 29.17 225.567 29.2873C225.054 29.4047 224.497 29.588 223.895 29.8373L223.169 27.6813C224.651 27.08 225.993 26.7793 227.195 26.7793C228.281 26.7793 229.117 26.9627 229.703 27.3293C230.305 27.696 230.723 28.18 230.957 28.7813C231.192 29.3827 231.309 30.028 231.309 30.7173V35.0073C231.309 35.2273 231.368 35.44 231.485 35.6453C231.617 35.836 231.867 35.9313 232.233 35.9313H232.475V38.2633H231.969ZM225.061 34.9853C225.061 35.3813 225.149 35.6967 225.325 35.9313C225.501 36.1513 225.758 36.2613 226.095 36.2613C226.433 36.2613 226.814 36.1733 227.239 35.9973C227.665 35.8213 228.215 35.4107 228.889 34.7653V33.8193C228.127 33.6873 227.379 33.6213 226.645 33.6213C226.073 33.6213 225.663 33.7387 225.413 33.9733C225.179 34.208 225.061 34.5453 225.061 34.9853ZM241.382 37.7793C241 37.9553 240.56 38.0947 240.062 38.1973C239.563 38.3147 239.057 38.3733 238.544 38.3733C237.693 38.3733 237.011 38.1973 236.498 37.8453C235.984 37.4933 235.61 37.002 235.376 36.3713C235.156 35.7407 235.046 35.022 235.046 34.2153V29.1993H233.242V26.9993H235.046V24.0953H237.576V26.9993H241.052V29.1993H237.576V34.2153C237.576 34.89 237.7 35.3593 237.95 35.6233C238.214 35.8727 238.588 35.9973 239.072 35.9973C239.306 35.9973 239.556 35.9753 239.82 35.9313C240.098 35.8727 240.406 35.7773 240.744 35.6453L241.382 37.7793ZM246.012 24.8873H243.35V22.2693H246.012V24.8873ZM245.946 38.1533H243.416V26.9993H245.946V38.1533ZM258.561 31.9053V33.2253C258.561 34.78 258.136 36.0267 257.285 36.9653C256.435 37.904 255.232 38.3733 253.677 38.3733C252.123 38.3733 250.92 37.904 250.069 36.9653C249.219 36.0267 248.793 34.78 248.793 33.2253V31.9053C248.793 30.3507 249.211 29.1113 250.047 28.1873C250.898 27.2487 252.108 26.7793 253.677 26.7793C255.247 26.7793 256.449 27.2487 257.285 28.1873C258.136 29.1113 258.561 30.3507 258.561 31.9053ZM255.965 31.9053C255.965 31.0107 255.767 30.314 255.371 29.8153C254.975 29.302 254.411 29.0453 253.677 29.0453C252.944 29.0453 252.379 29.302 251.983 29.8153C251.587 30.314 251.389 31.0107 251.389 31.9053V33.2253C251.389 34.12 251.587 34.824 251.983 35.3373C252.379 35.8507 252.944 36.1073 253.677 36.1073C254.411 36.1073 254.975 35.8507 255.371 35.3373C255.767 34.824 255.965 34.12 255.965 33.2253V31.9053ZM266.854 29.1333C266.487 29.1333 266.069 29.2213 265.6 29.3973C265.131 29.5733 264.573 29.918 263.928 30.4313V38.1533H261.398V26.9993H263.796V28.4953C264.485 27.894 265.138 27.4613 265.754 27.1973C266.37 26.9187 266.993 26.7793 267.624 26.7793C268.695 26.7793 269.509 27.124 270.066 27.8133C270.623 28.488 270.902 29.4413 270.902 30.6733V38.1533H268.372V30.9813C268.372 29.7493 267.866 29.1333 266.854 29.1333Z" fill="black"/>
<circle cx="350.055" cy="100.073" r="9" fill="#848484"/>
<path d="M369.397 106.493V103.103L377.898 89.7091H380.822V94.4023H379.092L373.732 102.884V103.043H385.813V106.493H369.397ZM379.171 110.073V105.459L379.251 103.958V89.7091H383.288V110.073H379.171Z" fill="black"/>
<circle cx="203.055" cy="100.073" r="9" fill="#C01F1F"/>
<path d="M232.565 89.7091V110.073H228.259V93.7958H228.14L223.477 96.7191V92.9009L228.518 89.7091H232.565ZM246.789 110.52C245.079 110.514 243.607 110.093 242.374 109.257C241.148 108.422 240.203 107.212 239.54 105.628C238.884 104.044 238.559 102.138 238.566 99.9108C238.566 97.6902 238.894 95.7977 239.55 94.2333C240.213 92.6689 241.158 91.479 242.384 90.6637C243.617 89.8417 245.085 89.4307 246.789 89.4307C248.492 89.4307 249.957 89.8417 251.184 90.6637C252.417 91.4856 253.365 92.6788 254.027 94.2432C254.69 95.801 255.018 97.6902 255.012 99.9108C255.012 102.145 254.68 104.054 254.018 105.638C253.361 107.222 252.42 108.432 251.194 109.267C249.967 110.103 248.499 110.52 246.789 110.52ZM246.789 106.951C247.956 106.951 248.887 106.364 249.583 105.191C250.279 104.017 250.624 102.257 250.617 99.9108C250.617 98.3663 250.458 97.0803 250.14 96.0529C249.828 95.0254 249.384 94.2532 248.807 93.7361C248.237 93.2191 247.564 92.9605 246.789 92.9605C245.629 92.9605 244.701 93.5406 244.005 94.7006C243.309 95.8606 242.957 97.5974 242.951 99.9108C242.951 101.475 243.107 102.781 243.418 103.828C243.736 104.869 244.184 105.651 244.76 106.175C245.337 106.692 246.013 106.951 246.789 106.951Z" fill="black"/>
<circle cx="55" cy="100.073" r="9" fill="#00D021"/>
<path d="M76.5107 110.073L84.9524 93.3682V93.229H75.1186V89.7091H89.407V93.2787L80.9553 110.073H76.5107ZM95.1099 110.073L103.552 93.3682V93.229H93.7178V89.7091H108.006V93.2787L99.5545 110.073H95.1099Z" fill="black"/>
<defs>
<linearGradient id="paint0_linear_592_94" x1="29.1797" y1="57.248" x2="408.805" y2="57.248" gradientUnits="userSpaceOnUse">
<stop stop-opacity="0"/>
<stop offset="0.15" stop-opacity="0.5"/>
<stop offset="0.5"/>
<stop offset="0.85" stop-opacity="0.5"/>
<stop offset="1" stop-opacity="0"/>
</linearGradient>
</defs>
</svg>
