<svg width="446" height="232" viewBox="0 0 446 232" fill="none" xmlns="http://www.w3.org/2000/svg">
<g filter="url(#filter0_f_551_4)">
<rect x="60" y="60" width="326" height="112" rx="16" fill="black" fill-opacity="0.1"/>
</g>
<rect x="61.6133" y="60.8271" width="322.772" height="110.345" rx="16" fill="white"/>
<path d="M83 112H363" stroke="url(#paint0_linear_551_4)" stroke-width="1.6" stroke-linecap="round"/>
<path d="M179.65 87.936V91.082C179.65 92.9887 179.173 94.492 178.22 95.592C177.267 96.6773 175.873 97.22 174.04 97.22C172.192 97.22 170.791 96.6773 169.838 95.592C168.899 94.492 168.43 92.9887 168.43 91.082V87.936C168.43 86.0293 168.899 84.5333 169.838 83.448C170.791 82.3627 172.192 81.82 174.04 81.82C175.873 81.82 177.267 82.3627 178.22 83.448C179.173 84.5333 179.65 86.0293 179.65 87.936ZM176.944 87.936C176.944 86.7333 176.709 85.8313 176.24 85.23C175.771 84.614 175.037 84.306 174.04 84.306C173.043 84.306 172.309 84.614 171.84 85.23C171.371 85.8313 171.136 86.7333 171.136 87.936V91.082C171.136 92.2847 171.371 93.194 171.84 93.81C172.309 94.426 173.043 94.734 174.04 94.734C175.037 94.734 175.771 94.426 176.24 93.81C176.709 93.194 176.944 92.2847 176.944 91.082V87.936ZM188.266 87.98C187.9 87.98 187.482 88.068 187.012 88.244C186.543 88.42 185.986 88.7647 185.34 89.278V97H182.81V85.846H185.208V87.342C185.898 86.7407 186.55 86.308 187.166 86.044C187.782 85.7653 188.406 85.626 189.036 85.626C190.107 85.626 190.921 85.9707 191.478 86.66C192.036 87.3347 192.314 88.288 192.314 89.52V97H189.784V89.828C189.784 88.596 189.278 87.98 188.266 87.98ZM194.805 91.17V88.97H201.493V91.17H194.805ZM206.274 90.774V92.072C206.274 93.0107 206.442 93.7147 206.78 94.184C207.117 94.6533 207.66 94.888 208.408 94.888C208.774 94.888 209.185 94.844 209.64 94.756C210.109 94.6533 210.615 94.4993 211.158 94.294L211.884 96.428C211.224 96.692 210.6 96.89 210.014 97.022C209.427 97.154 208.848 97.22 208.276 97.22C206.809 97.22 205.687 96.7507 204.91 95.812C204.132 94.8733 203.744 93.6267 203.744 92.072V90.774C203.744 89.2047 204.132 87.958 204.91 87.034C205.687 86.0953 206.809 85.626 208.276 85.626C208.833 85.626 209.398 85.692 209.97 85.824C210.542 85.956 211.143 86.1467 211.774 86.396L211.048 88.574C209.992 88.1633 209.112 87.958 208.408 87.958C207.66 87.958 207.117 88.1927 206.78 88.662C206.442 89.1167 206.274 89.8207 206.274 90.774ZM222.647 97.11C221.899 97.11 221.298 96.956 220.843 96.648C220.403 96.34 220.08 95.9587 219.875 95.504C219.244 96.0907 218.636 96.5233 218.049 96.802C217.462 97.0807 216.832 97.22 216.157 97.22C215.174 97.22 214.448 96.9047 213.979 96.274C213.524 95.6433 213.297 94.844 213.297 93.876C213.297 93.2307 213.414 92.666 213.649 92.182C213.898 91.6833 214.302 91.2947 214.859 91.016C215.416 90.7373 216.179 90.598 217.147 90.598C217.528 90.598 217.924 90.6273 218.335 90.686C218.746 90.73 219.156 90.7887 219.567 90.862V89.564C219.567 88.948 219.398 88.53 219.061 88.31C218.724 88.0753 218.269 87.958 217.697 87.958C217.257 87.958 216.773 88.0167 216.245 88.134C215.732 88.2513 215.174 88.4347 214.573 88.684L213.847 86.528C215.328 85.9267 216.67 85.626 217.873 85.626C218.958 85.626 219.794 85.8093 220.381 86.176C220.982 86.5427 221.4 87.0267 221.635 87.628C221.87 88.2293 221.987 88.8747 221.987 89.564V93.854C221.987 94.074 222.046 94.2867 222.163 94.492C222.295 94.6827 222.544 94.778 222.911 94.778H223.153V97.11H222.647ZM215.739 93.832C215.739 94.228 215.827 94.5433 216.003 94.778C216.179 94.998 216.436 95.108 216.773 95.108C217.11 95.108 217.492 95.02 217.917 94.844C218.342 94.668 218.892 94.2573 219.567 93.612V92.666C218.804 92.534 218.056 92.468 217.323 92.468C216.751 92.468 216.34 92.5853 216.091 92.82C215.856 93.0547 215.739 93.392 215.739 93.832ZM227.879 89.278V97H225.349V85.846H227.747V87.32C228.437 86.7187 229.075 86.286 229.661 86.022C230.248 85.758 230.849 85.626 231.465 85.626C232.829 85.626 233.761 86.2273 234.259 87.43C234.993 86.7847 235.675 86.3227 236.305 86.044C236.936 85.7653 237.574 85.626 238.219 85.626C239.246 85.626 240.031 85.9707 240.573 86.66C241.116 87.3347 241.387 88.288 241.387 89.52V97H238.857V89.828C238.857 88.596 238.388 87.98 237.449 87.98C237.083 87.98 236.679 88.068 236.239 88.244C235.799 88.42 235.264 88.7647 234.633 89.278V97H232.103V89.828C232.103 88.596 231.634 87.98 230.695 87.98C230.329 87.98 229.925 88.068 229.485 88.244C229.045 88.42 228.51 88.7647 227.879 89.278ZM249.502 97.22C249.136 97.22 248.762 97.1833 248.38 97.11C248.014 97.0367 247.64 96.934 247.258 96.802V101.686H244.728V85.846H247.126V87.364C247.816 86.6747 248.402 86.2127 248.886 85.978C249.37 85.7433 249.876 85.626 250.404 85.626C251.622 85.626 252.56 86.0807 253.22 86.99C253.88 87.8993 254.21 89.1753 254.21 90.818V92.006C254.21 93.6047 253.807 94.8733 253 95.812C252.194 96.7507 251.028 97.22 249.502 97.22ZM249.722 87.98C249.385 87.98 249.026 88.0827 248.644 88.288C248.278 88.4787 247.816 88.8527 247.258 89.41V94.514C247.977 94.8073 248.637 94.954 249.238 94.954C250.089 94.954 250.698 94.69 251.064 94.162C251.431 93.634 251.614 92.9153 251.614 92.006V90.818C251.614 89.8353 251.446 89.1167 251.108 88.662C250.786 88.2073 250.324 87.98 249.722 87.98ZM263.79 97V95.526C263.116 96.1127 262.485 96.5453 261.898 96.824C261.312 97.088 260.718 97.22 260.116 97.22C259.119 97.22 258.349 96.8827 257.806 96.208C257.264 95.5187 256.992 94.558 256.992 93.326V85.846H259.522V93.018C259.522 94.25 259.977 94.866 260.886 94.866C261.253 94.866 261.649 94.778 262.074 94.602C262.514 94.426 263.042 94.0887 263.658 93.59V85.846H266.188V97H263.79ZM272.796 95.02C273.338 95.02 273.786 94.932 274.138 94.756C274.49 94.5653 274.666 94.2867 274.666 93.92C274.666 93.5973 274.548 93.348 274.314 93.172C274.094 92.9813 273.69 92.8127 273.104 92.666L271.85 92.336C270.882 92.0867 270.163 91.6687 269.694 91.082C269.239 90.4953 269.012 89.7987 269.012 88.992C269.012 88.0387 269.342 87.2393 270.002 86.594C270.662 85.9487 271.681 85.626 273.06 85.626C273.617 85.626 274.204 85.692 274.82 85.824C275.436 85.956 276.081 86.1687 276.756 86.462L276.03 88.618C275.414 88.3247 274.856 88.1193 274.358 88.002C273.859 87.8847 273.419 87.826 273.038 87.826C271.996 87.826 271.476 88.178 271.476 88.882C271.476 89.1607 271.564 89.3807 271.74 89.542C271.93 89.7033 272.275 89.85 272.774 89.982L274.028 90.312C275.098 90.5907 275.876 91.016 276.36 91.588C276.858 92.16 277.108 92.8787 277.108 93.744C277.108 94.7707 276.756 95.6067 276.052 96.252C275.362 96.8973 274.27 97.22 272.774 97.22C271.498 97.22 270.156 96.9267 268.748 96.34L269.43 94.25C270.119 94.5287 270.742 94.7267 271.3 94.844C271.857 94.9613 272.356 95.02 272.796 95.02Z" fill="black"/>
<path d="M120.825 146V144.449L124.45 141.093C124.758 140.795 125.016 140.526 125.225 140.288C125.437 140.049 125.598 139.815 125.707 139.587C125.817 139.355 125.871 139.104 125.871 138.836C125.871 138.538 125.804 138.281 125.668 138.065C125.532 137.847 125.346 137.679 125.111 137.563C124.875 137.444 124.609 137.384 124.31 137.384C123.999 137.384 123.727 137.447 123.495 137.573C123.263 137.699 123.084 137.88 122.958 138.115C122.832 138.35 122.769 138.63 122.769 138.955H120.726C120.726 138.289 120.877 137.711 121.178 137.22C121.48 136.73 121.902 136.35 122.446 136.082C122.99 135.813 123.616 135.679 124.325 135.679C125.054 135.679 125.689 135.808 126.229 136.067C126.773 136.322 127.196 136.677 127.497 137.131C127.799 137.585 127.95 138.105 127.95 138.692C127.95 139.076 127.873 139.456 127.721 139.83C127.572 140.205 127.305 140.621 126.92 141.078C126.536 141.532 125.994 142.077 125.295 142.714L123.808 144.17V144.24H128.084V146H120.825ZM134.773 135.818V146H132.621V137.862H132.561L130.229 139.323V137.414L132.75 135.818H134.773ZM137.893 146V144.449L141.518 141.093C141.826 140.795 142.084 140.526 142.293 140.288C142.505 140.049 142.666 139.815 142.775 139.587C142.885 139.355 142.939 139.104 142.939 138.836C142.939 138.538 142.871 138.281 142.736 138.065C142.6 137.847 142.414 137.679 142.179 137.563C141.943 137.444 141.677 137.384 141.378 137.384C141.067 137.384 140.795 137.447 140.563 137.573C140.331 137.699 140.152 137.88 140.026 138.115C139.9 138.35 139.837 138.63 139.837 138.955H137.794C137.794 138.289 137.945 137.711 138.246 137.22C138.548 136.73 138.97 136.35 139.514 136.082C140.058 135.813 140.684 135.679 141.393 135.679C142.122 135.679 142.757 135.808 143.297 136.067C143.841 136.322 144.264 136.677 144.565 137.131C144.867 137.585 145.018 138.105 145.018 138.692C145.018 139.076 144.941 139.456 144.789 139.83C144.64 140.205 144.373 140.621 143.988 141.078C143.604 141.532 143.062 142.077 142.363 142.714L140.876 144.17V144.24H145.152V146H137.893Z" fill="black"/>
<circle cx="108" cy="141" r="6" fill="#00D021"/>
<circle cx="317" cy="140" r="6" fill="#848484"/>
<path d="M334.255 135.818V146H332.102V137.862H332.043L329.711 139.323V137.414L332.232 135.818H334.255ZM341.805 135.818V146H339.652V137.862H339.592L337.261 139.323V137.414L339.781 135.818H341.805Z" fill="black"/>
<circle cx="216" cy="141" r="6" fill="#C01F1F"/>
<path d="M232.589 146.139C231.846 146.139 231.185 146.012 230.605 145.756C230.028 145.498 229.573 145.143 229.238 144.692C228.906 144.238 228.736 143.715 228.726 143.121H230.893C230.907 143.37 230.988 143.589 231.137 143.778C231.29 143.963 231.492 144.107 231.744 144.21C231.996 144.313 232.279 144.364 232.594 144.364C232.922 144.364 233.212 144.306 233.464 144.19C233.716 144.074 233.913 143.914 234.055 143.708C234.198 143.503 234.269 143.266 234.269 142.997C234.269 142.725 234.193 142.485 234.04 142.276C233.891 142.064 233.676 141.898 233.394 141.779C233.116 141.66 232.784 141.6 232.4 141.6H231.45V140.019H232.4C232.725 140.019 233.011 139.963 233.26 139.85C233.512 139.737 233.707 139.582 233.847 139.383C233.986 139.181 234.055 138.945 234.055 138.677C234.055 138.422 233.994 138.198 233.871 138.006C233.752 137.81 233.583 137.658 233.364 137.548C233.149 137.439 232.897 137.384 232.609 137.384C232.317 137.384 232.05 137.437 231.808 137.543C231.566 137.646 231.372 137.794 231.227 137.986C231.081 138.178 231.003 138.403 230.993 138.662H228.93C228.94 138.075 229.107 137.558 229.432 137.111C229.757 136.663 230.194 136.314 230.744 136.062C231.298 135.807 231.923 135.679 232.619 135.679C233.321 135.679 233.936 135.807 234.463 136.062C234.99 136.317 235.399 136.662 235.691 137.096C235.986 137.527 236.132 138.011 236.129 138.548C236.132 139.118 235.955 139.593 235.597 139.974C235.242 140.356 234.78 140.598 234.21 140.7V140.78C234.959 140.876 235.529 141.136 235.92 141.56C236.314 141.981 236.51 142.508 236.506 143.141C236.51 143.721 236.342 144.237 236.004 144.688C235.67 145.138 235.207 145.493 234.617 145.751C234.027 146.01 233.351 146.139 232.589 146.139ZM238.754 146V144.449L242.378 141.093C242.686 140.795 242.945 140.526 243.154 140.288C243.366 140.049 243.527 139.815 243.636 139.587C243.745 139.355 243.8 139.104 243.8 138.836C243.8 138.538 243.732 138.281 243.596 138.065C243.46 137.847 243.275 137.679 243.039 137.563C242.804 137.444 242.537 137.384 242.239 137.384C241.927 137.384 241.656 137.447 241.424 137.573C241.192 137.699 241.013 137.88 240.887 138.115C240.761 138.35 240.698 138.63 240.698 138.955H238.654C238.654 138.289 238.805 137.711 239.107 137.22C239.408 136.73 239.831 136.35 240.375 136.082C240.918 135.813 241.545 135.679 242.254 135.679C242.983 135.679 243.618 135.808 244.158 136.067C244.701 136.322 245.124 136.677 245.426 137.131C245.727 137.585 245.878 138.105 245.878 138.692C245.878 139.076 245.802 139.456 245.649 139.83C245.5 140.205 245.233 140.621 244.849 141.078C244.465 141.532 243.923 142.077 243.223 142.714L241.737 144.17V144.24H246.012V146H238.754Z" fill="black"/>
<defs>
<filter id="filter0_f_551_4" x="0" y="0" width="446" height="232" filterUnits="userSpaceOnUse" color-interpolation-filters="sRGB">
<feFlood flood-opacity="0" result="BackgroundImageFix"/>
<feBlend mode="normal" in="SourceGraphic" in2="BackgroundImageFix" result="shape"/>
<feGaussianBlur stdDeviation="30" result="effect1_foregroundBlur_551_4"/>
</filter>
<linearGradient id="paint0_linear_551_4" x1="83" y1="112.5" x2="363" y2="112.5" gradientUnits="userSpaceOnUse">
<stop stop-opacity="0"/>
<stop offset="0.15" stop-opacity="0.5"/>
<stop offset="0.5"/>
<stop offset="0.85" stop-opacity="0.5"/>
<stop offset="1" stop-opacity="0"/>
</linearGradient>
</defs>
</svg>
