<svg width="562" height="269" viewBox="0 0 562 269" fill="none" xmlns="http://www.w3.org/2000/svg">
<g filter="url(#filter0_f_592_95)">
<rect x="60" y="60" width="441.992" height="148.073" rx="16" fill="black" fill-opacity="0.1"/>
</g>
<rect x="62.1797" y="61.0938" width="437.616" height="145.885" rx="16" fill="white"/>
<path d="M91.1797 118.748H470.805" stroke="url(#paint0_linear_592_95)" stroke-width="1.6" stroke-linecap="round"/>
<path d="M198.744 91.0893V94.2353C198.744 96.142 198.267 97.6453 197.314 98.7453C196.36 99.8307 194.967 100.373 193.134 100.373C191.286 100.373 189.885 99.8307 188.932 98.7453C187.993 97.6453 187.524 96.142 187.524 94.2353V91.0893C187.524 89.1827 187.993 87.6867 188.932 86.6013C189.885 85.516 191.286 84.9733 193.134 84.9733C194.967 84.9733 196.36 85.516 197.314 86.6013C198.267 87.6867 198.744 89.1827 198.744 91.0893ZM196.038 91.0893C196.038 89.8867 195.803 88.9847 195.334 88.3833C194.864 87.7673 194.131 87.4593 193.134 87.4593C192.136 87.4593 191.403 87.7673 190.934 88.3833C190.464 88.9847 190.23 89.8867 190.23 91.0893V94.2353C190.23 95.438 190.464 96.3473 190.934 96.9633C191.403 97.5793 192.136 97.8873 193.134 97.8873C194.131 97.8873 194.864 97.5793 195.334 96.9633C195.803 96.3473 196.038 95.438 196.038 94.2353V91.0893ZM207.36 91.1333C206.993 91.1333 206.575 91.2213 206.106 91.3973C205.637 91.5733 205.079 91.918 204.434 92.4313V100.153H201.904V88.9993H204.302V90.4953C204.991 89.894 205.644 89.4613 206.26 89.1973C206.876 88.9187 207.499 88.7793 208.13 88.7793C209.201 88.7793 210.015 89.124 210.572 89.8133C211.129 90.488 211.408 91.4413 211.408 92.6733V100.153H208.878V92.9813C208.878 91.7493 208.372 91.1333 207.36 91.1333ZM217.876 98.1733C218.418 98.1733 218.866 98.0853 219.218 97.9093C219.57 97.7187 219.746 97.44 219.746 97.0733C219.746 96.7507 219.628 96.5013 219.394 96.3253C219.174 96.1347 218.77 95.966 218.184 95.8193L216.93 95.4893C215.962 95.24 215.243 94.822 214.774 94.2353C214.319 93.6487 214.092 92.952 214.092 92.1453C214.092 91.192 214.422 90.3927 215.082 89.7473C215.742 89.102 216.761 88.7793 218.14 88.7793C218.697 88.7793 219.284 88.8453 219.9 88.9773C220.516 89.1093 221.161 89.322 221.836 89.6153L221.11 91.7713C220.494 91.478 219.936 91.2727 219.438 91.1553C218.939 91.038 218.499 90.9793 218.118 90.9793C217.076 90.9793 216.556 91.3313 216.556 92.0353C216.556 92.314 216.644 92.534 216.82 92.6953C217.01 92.8567 217.355 93.0033 217.854 93.1353L219.108 93.4653C220.178 93.744 220.956 94.1693 221.44 94.7413C221.938 95.3133 222.188 96.032 222.188 96.8973C222.188 97.924 221.836 98.76 221.132 99.4053C220.442 100.051 219.35 100.373 217.854 100.373C216.578 100.373 215.236 100.08 213.828 99.4933L214.51 97.4033C215.199 97.682 215.822 97.88 216.38 97.9973C216.937 98.1147 217.436 98.1733 217.876 98.1733ZM227.381 86.8873H224.719V84.2693H227.381V86.8873ZM227.315 100.153H224.785V88.9993H227.315V100.153ZM237.511 99.7793C237.129 99.9553 236.689 100.095 236.191 100.197C235.692 100.315 235.186 100.373 234.673 100.373C233.822 100.373 233.14 100.197 232.627 99.8453C232.113 99.4933 231.739 99.002 231.505 98.3713C231.285 97.7407 231.175 97.022 231.175 96.2153V91.1993H229.371V88.9993H231.175V86.0953H233.705V88.9993H237.181V91.1993H233.705V96.2153C233.705 96.89 233.829 97.3593 234.079 97.6233C234.343 97.8727 234.717 97.9973 235.201 97.9973C235.435 97.9973 235.685 97.9753 235.949 97.9313C236.227 97.8727 236.535 97.7773 236.873 97.6453L237.511 99.7793ZM248.015 99.5153C247.252 99.8233 246.533 100.043 245.859 100.175C245.184 100.307 244.546 100.373 243.945 100.373C242.287 100.373 241.033 99.904 240.183 98.9653C239.332 98.0267 238.907 96.78 238.907 95.2253V93.9053C238.907 92.864 239.097 91.962 239.479 91.1993C239.86 90.4367 240.403 89.8427 241.107 89.4173C241.811 88.992 242.639 88.7793 243.593 88.7793C244.37 88.7793 245.096 88.9407 245.771 89.2633C246.46 89.5713 247.017 90.0627 247.443 90.7373C247.883 91.3973 248.103 92.248 248.103 93.2893C248.103 93.5973 248.081 93.9273 248.037 94.2793C247.993 94.6167 247.919 94.976 247.817 95.3573H241.349C241.378 96.2667 241.605 96.9487 242.031 97.4033C242.456 97.858 243.138 98.0853 244.077 98.0853C244.575 98.0853 245.089 98.0267 245.617 97.9093C246.159 97.792 246.717 97.616 247.289 97.3813L248.015 99.5153ZM243.593 90.9133C242.918 90.9133 242.39 91.1333 242.009 91.5733C241.642 91.9987 241.429 92.6147 241.371 93.4213H245.595C245.609 93.348 245.617 93.282 245.617 93.2233C245.617 93.15 245.617 93.084 245.617 93.0253C245.617 92.3213 245.419 91.7933 245.023 91.4413C244.627 91.0893 244.15 90.9133 243.593 90.9133ZM255.356 97.0073V83.8733H257.886V97.0073C257.886 97.2273 257.937 97.44 258.04 97.6453C258.157 97.836 258.377 97.9313 258.7 97.9313H259.052V100.263H258.436C257.6 100.263 256.962 100.102 256.522 99.7793C256.082 99.4567 255.774 99.046 255.598 98.5473C255.436 98.0487 255.356 97.5353 255.356 97.0073ZM270.632 93.9053V95.2253C270.632 96.78 270.206 98.0267 269.356 98.9653C268.505 99.904 267.302 100.373 265.748 100.373C264.193 100.373 262.99 99.904 262.14 98.9653C261.289 98.0267 260.864 96.78 260.864 95.2253V93.9053C260.864 92.3507 261.282 91.1113 262.118 90.1873C262.968 89.2487 264.178 88.7793 265.748 88.7793C267.317 88.7793 268.52 89.2487 269.356 90.1873C270.206 91.1113 270.632 92.3507 270.632 93.9053ZM268.036 93.9053C268.036 93.0107 267.838 92.314 267.442 91.8153C267.046 91.302 266.481 91.0453 265.748 91.0453C265.014 91.0453 264.45 91.302 264.054 91.8153C263.658 92.314 263.46 93.0107 263.46 93.9053V95.2253C263.46 96.12 263.658 96.824 264.054 97.3373C264.45 97.8507 265.014 98.1073 265.748 98.1073C266.481 98.1073 267.046 97.8507 267.442 97.3373C267.838 96.824 268.036 96.12 268.036 95.2253V93.9053ZM275.404 93.9273V95.2253C275.404 96.164 275.573 96.868 275.91 97.3373C276.248 97.8067 276.79 98.0413 277.538 98.0413C277.905 98.0413 278.316 97.9973 278.77 97.9093C279.24 97.8067 279.746 97.6527 280.288 97.4473L281.014 99.5813C280.354 99.8453 279.731 100.043 279.144 100.175C278.558 100.307 277.978 100.373 277.406 100.373C275.94 100.373 274.818 99.904 274.04 98.9653C273.263 98.0267 272.874 96.78 272.874 95.2253V93.9273C272.874 92.358 273.263 91.1113 274.04 90.1873C274.818 89.2487 275.94 88.7793 277.406 88.7793C277.964 88.7793 278.528 88.8453 279.1 88.9773C279.672 89.1093 280.274 89.3 280.904 89.5493L280.178 91.7273C279.122 91.3167 278.242 91.1113 277.538 91.1113C276.79 91.1113 276.248 91.346 275.91 91.8153C275.573 92.27 275.404 92.974 275.404 93.9273ZM291.778 100.263C291.03 100.263 290.428 100.109 289.974 99.8013C289.534 99.4933 289.211 99.112 289.006 98.6573C288.375 99.244 287.766 99.6767 287.18 99.9553C286.593 100.234 285.962 100.373 285.288 100.373C284.305 100.373 283.579 100.058 283.11 99.4273C282.655 98.7967 282.428 97.9973 282.428 97.0293C282.428 96.384 282.545 95.8193 282.78 95.3353C283.029 94.8367 283.432 94.448 283.99 94.1693C284.547 93.8907 285.31 93.7513 286.278 93.7513C286.659 93.7513 287.055 93.7807 287.466 93.8393C287.876 93.8833 288.287 93.942 288.698 94.0153V92.7173C288.698 92.1013 288.529 91.6833 288.192 91.4633C287.854 91.2287 287.4 91.1113 286.828 91.1113C286.388 91.1113 285.904 91.17 285.376 91.2873C284.862 91.4047 284.305 91.588 283.704 91.8373L282.978 89.6813C284.459 89.08 285.801 88.7793 287.004 88.7793C288.089 88.7793 288.925 88.9627 289.512 89.3293C290.113 89.696 290.531 90.18 290.766 90.7813C291 91.3827 291.118 92.028 291.118 92.7173V97.0073C291.118 97.2273 291.176 97.44 291.294 97.6453C291.426 97.836 291.675 97.9313 292.042 97.9313H292.284V100.263H291.778ZM284.87 96.9853C284.87 97.3813 284.958 97.6967 285.134 97.9313C285.31 98.1513 285.566 98.2613 285.904 98.2613C286.241 98.2613 286.622 98.1733 287.048 97.9973C287.473 97.8213 288.023 97.4107 288.698 96.7653V95.8193C287.935 95.6873 287.187 95.6213 286.454 95.6213C285.882 95.6213 285.471 95.7387 285.222 95.9733C284.987 96.208 284.87 96.5453 284.87 96.9853ZM301.19 99.7793C300.809 99.9553 300.369 100.095 299.87 100.197C299.372 100.315 298.866 100.373 298.352 100.373C297.502 100.373 296.82 100.197 296.306 99.8453C295.793 99.4933 295.419 99.002 295.184 98.3713C294.964 97.7407 294.854 97.022 294.854 96.2153V91.1993H293.05V88.9993H294.854V86.0953H297.384V88.9993H300.86V91.1993H297.384V96.2153C297.384 96.89 297.509 97.3593 297.758 97.6233C298.022 97.8727 298.396 97.9973 298.88 97.9973C299.115 97.9973 299.364 97.9753 299.628 97.9313C299.907 97.8727 300.215 97.7773 300.552 97.6453L301.19 99.7793ZM305.82 86.8873H303.158V84.2693H305.82V86.8873ZM305.754 100.153H303.224V88.9993H305.754V100.153ZM318.37 93.9053V95.2253C318.37 96.78 317.945 98.0267 317.094 98.9653C316.243 99.904 315.041 100.373 313.486 100.373C311.931 100.373 310.729 99.904 309.878 98.9653C309.027 98.0267 308.602 96.78 308.602 95.2253V93.9053C308.602 92.3507 309.02 91.1113 309.856 90.1873C310.707 89.2487 311.917 88.7793 313.486 88.7793C315.055 88.7793 316.258 89.2487 317.094 90.1873C317.945 91.1113 318.37 92.3507 318.37 93.9053ZM315.774 93.9053C315.774 93.0107 315.576 92.314 315.18 91.8153C314.784 91.302 314.219 91.0453 313.486 91.0453C312.753 91.0453 312.188 91.302 311.792 91.8153C311.396 92.314 311.198 93.0107 311.198 93.9053V95.2253C311.198 96.12 311.396 96.824 311.792 97.3373C312.188 97.8507 312.753 98.1073 313.486 98.1073C314.219 98.1073 314.784 97.8507 315.18 97.3373C315.576 96.824 315.774 96.12 315.774 95.2253V93.9053ZM326.663 91.1333C326.296 91.1333 325.878 91.2213 325.409 91.3973C324.939 91.5733 324.382 91.918 323.737 92.4313V100.153H321.207V88.9993H323.605V90.4953C324.294 89.894 324.947 89.4613 325.563 89.1973C326.179 88.9187 326.802 88.7793 327.433 88.7793C328.503 88.7793 329.317 89.124 329.875 89.8133C330.432 90.488 330.711 91.4413 330.711 92.6733V100.153H328.181V92.9813C328.181 91.7493 327.675 91.1333 326.663 91.1333Z" fill="black"/>
<circle cx="412.055" cy="162.073" r="9" fill="#848484"/>
<path d="M440.565 151.709V172.073H436.259V155.796H436.14L431.477 158.719V154.901L436.518 151.709H440.565ZM455.664 151.709V172.073H451.358V155.796H451.239L446.576 158.719V154.901L451.617 151.709H455.664Z" fill="black"/>
<circle cx="265.055" cy="162.073" r="9" fill="#C01F1F"/>
<path d="M293.232 172.351C291.747 172.351 290.425 172.096 289.265 171.586C288.112 171.068 287.2 170.359 286.531 169.458C285.868 168.55 285.526 167.502 285.506 166.316H289.842C289.868 166.813 290.031 167.25 290.329 167.628C290.634 167.999 291.038 168.288 291.542 168.493C292.046 168.699 292.612 168.801 293.242 168.801C293.898 168.801 294.478 168.685 294.982 168.453C295.486 168.221 295.88 167.9 296.165 167.489C296.451 167.078 296.593 166.604 296.593 166.067C296.593 165.524 296.441 165.043 296.136 164.625C295.837 164.201 295.406 163.87 294.843 163.631C294.286 163.392 293.623 163.273 292.854 163.273H290.955V160.111H292.854C293.504 160.111 294.077 159.998 294.575 159.773C295.078 159.548 295.469 159.236 295.748 158.838C296.026 158.434 296.165 157.963 296.165 157.426C296.165 156.916 296.043 156.469 295.798 156.084C295.559 155.693 295.221 155.388 294.783 155.169C294.353 154.951 293.849 154.841 293.272 154.841C292.689 154.841 292.155 154.947 291.671 155.159C291.187 155.365 290.799 155.66 290.508 156.044C290.216 156.429 290.06 156.88 290.04 157.397H285.914C285.934 156.223 286.269 155.189 286.918 154.294C287.568 153.399 288.443 152.7 289.543 152.196C290.65 151.686 291.9 151.431 293.292 151.431C294.697 151.431 295.927 151.686 296.981 152.196C298.035 152.707 298.853 153.396 299.437 154.265C300.027 155.126 300.318 156.094 300.312 157.168C300.318 158.308 299.964 159.259 299.248 160.022C298.539 160.784 297.614 161.268 296.474 161.473V161.632C297.972 161.825 299.112 162.345 299.894 163.193C300.683 164.035 301.074 165.089 301.067 166.355C301.074 167.515 300.739 168.546 300.063 169.448C299.394 170.349 298.469 171.059 297.289 171.576C296.109 172.093 294.757 172.351 293.232 172.351ZM305.562 172.073V168.97L312.811 162.259C313.427 161.662 313.944 161.125 314.362 160.648C314.786 160.171 315.108 159.703 315.326 159.246C315.545 158.782 315.655 158.282 315.655 157.745C315.655 157.148 315.519 156.634 315.247 156.203C314.975 155.766 314.604 155.431 314.133 155.199C313.663 154.961 313.129 154.841 312.532 154.841C311.909 154.841 311.366 154.967 310.902 155.219C310.438 155.471 310.08 155.832 309.828 156.303C309.576 156.774 309.45 157.334 309.45 157.983H305.363C305.363 156.651 305.665 155.494 306.268 154.513C306.871 153.532 307.717 152.773 308.804 152.236C309.891 151.699 311.144 151.431 312.562 151.431C314.021 151.431 315.29 151.689 316.371 152.206C317.458 152.717 318.303 153.426 318.906 154.334C319.509 155.242 319.811 156.283 319.811 157.456C319.811 158.225 319.658 158.984 319.353 159.733C319.055 160.482 318.522 161.314 317.753 162.229C316.984 163.137 315.9 164.228 314.501 165.5L311.528 168.414V168.553H320.079V172.073H305.562Z" fill="black"/>
<circle cx="117" cy="162.073" r="9" fill="#00D021"/>
<path d="M137.705 172.073V168.97L144.954 162.259C145.57 161.662 146.087 161.125 146.505 160.648C146.929 160.171 147.251 159.703 147.469 159.246C147.688 158.782 147.798 158.282 147.798 157.745C147.798 157.148 147.662 156.634 147.39 156.203C147.118 155.766 146.747 155.431 146.276 155.199C145.806 154.961 145.272 154.841 144.675 154.841C144.052 154.841 143.509 154.967 143.045 155.219C142.581 155.471 142.223 155.832 141.971 156.303C141.719 156.774 141.593 157.334 141.593 157.983H137.506C137.506 156.651 137.808 155.494 138.411 154.513C139.014 153.532 139.86 152.773 140.947 152.236C142.034 151.699 143.287 151.431 144.705 151.431C146.164 151.431 147.433 151.689 148.513 152.206C149.601 152.717 150.446 153.426 151.049 154.334C151.652 155.242 151.954 156.283 151.954 157.456C151.954 158.225 151.801 158.984 151.496 159.733C151.198 160.482 150.665 161.314 149.896 162.229C149.127 163.137 148.043 164.228 146.644 165.5L143.671 168.414V168.553H152.222V172.073H137.705ZM165.601 151.709V172.073H161.296V155.796H161.177L156.513 158.719V154.901L161.554 151.709H165.601ZM171.841 172.073V168.97L179.09 162.259C179.706 161.662 180.223 161.125 180.641 160.648C181.065 160.171 181.387 159.703 181.605 159.246C181.824 158.782 181.934 158.282 181.934 157.745C181.934 157.148 181.798 156.634 181.526 156.203C181.254 155.766 180.883 155.431 180.412 155.199C179.942 154.961 179.408 154.841 178.811 154.841C178.188 154.841 177.645 154.967 177.181 155.219C176.717 155.471 176.359 155.832 176.107 156.303C175.855 156.774 175.729 157.334 175.729 157.983H171.642C171.642 156.651 171.944 155.494 172.547 154.513C173.15 153.532 173.996 152.773 175.083 152.236C176.17 151.699 177.423 151.431 178.841 151.431C180.3 151.431 181.569 151.689 182.649 152.206C183.737 152.717 184.582 153.426 185.185 154.334C185.788 155.242 186.09 156.283 186.09 157.456C186.09 158.225 185.937 158.984 185.632 159.733C185.334 160.482 184.8 161.314 184.032 162.229C183.263 163.137 182.179 164.228 180.78 165.5L177.807 168.414V168.553H186.358V172.073H171.841Z" fill="black"/>
<defs>
<filter id="filter0_f_592_95" x="0" y="0" width="561.992" height="268.073" filterUnits="userSpaceOnUse" color-interpolation-filters="sRGB">
<feFlood flood-opacity="0" result="BackgroundImageFix"/>
<feBlend mode="normal" in="SourceGraphic" in2="BackgroundImageFix" result="shape"/>
<feGaussianBlur stdDeviation="30" result="effect1_foregroundBlur_592_95"/>
</filter>
<linearGradient id="paint0_linear_592_95" x1="91.1797" y1="119.248" x2="470.805" y2="119.248" gradientUnits="userSpaceOnUse">
<stop stop-opacity="0"/>
<stop offset="0.15" stop-opacity="0.5"/>
<stop offset="0.5"/>
<stop offset="0.85" stop-opacity="0.5"/>
<stop offset="1" stop-opacity="0"/>
</linearGradient>
</defs>
</svg>
