<svg width="594" height="417" viewBox="0 0 594 417" fill="none" xmlns="http://www.w3.org/2000/svg">
<g filter="url(#filter0_f_551_3)">
<rect x="60" y="60" width="473.89" height="297" rx="16" fill="black" fill-opacity="0.1"/>
</g>
<rect x="62.3438" y="62.1943" width="469.198" height="292.611" rx="16" fill="white"/>
<path d="M212.208 87L211.452 84.606H207.258L206.502 87H204.36L208.446 74.76H210.354L214.458 87H212.208ZM208.428 80.862L207.87 82.626H210.822L210.264 80.862L209.364 77.766L208.428 80.862ZM221.907 86.694C221.595 86.838 221.235 86.952 220.827 87.036C220.419 87.132 220.005 87.18 219.585 87.18C218.889 87.18 218.331 87.036 217.911 86.748C217.491 86.46 217.185 86.058 216.993 85.542C216.813 85.026 216.723 84.438 216.723 83.778V79.674H215.247V77.874H216.723V75.498H218.793V77.874H221.637V79.674H218.793V83.778C218.793 84.33 218.895 84.714 219.099 84.93C219.315 85.134 219.621 85.236 220.017 85.236C220.209 85.236 220.413 85.218 220.629 85.182C220.857 85.134 221.109 85.056 221.385 84.948L221.907 86.694ZM229.421 86.694C229.109 86.838 228.749 86.952 228.341 87.036C227.933 87.132 227.519 87.18 227.099 87.18C226.403 87.18 225.845 87.036 225.425 86.748C225.005 86.46 224.699 86.058 224.507 85.542C224.327 85.026 224.237 84.438 224.237 83.778V79.674H222.761V77.874H224.237V75.498H226.307V77.874H229.151V79.674H226.307V83.778C226.307 84.33 226.409 84.714 226.613 84.93C226.829 85.134 227.135 85.236 227.531 85.236C227.723 85.236 227.927 85.218 228.143 85.182C228.371 85.134 228.623 85.056 228.899 84.948L229.421 86.694ZM238.375 86.478C237.751 86.73 237.163 86.91 236.611 87.018C236.059 87.126 235.537 87.18 235.045 87.18C233.689 87.18 232.663 86.796 231.967 86.028C231.271 85.26 230.923 84.24 230.923 82.968V81.888C230.923 81.036 231.079 80.298 231.391 79.674C231.703 79.05 232.147 78.564 232.723 78.216C233.299 77.868 233.977 77.694 234.757 77.694C235.393 77.694 235.987 77.826 236.539 78.09C237.103 78.342 237.559 78.744 237.907 79.296C238.267 79.836 238.447 80.532 238.447 81.384C238.447 81.636 238.429 81.906 238.393 82.194C238.357 82.47 238.297 82.764 238.213 83.076H232.921C232.945 83.82 233.131 84.378 233.479 84.75C233.827 85.122 234.385 85.308 235.153 85.308C235.561 85.308 235.981 85.26 236.413 85.164C236.857 85.068 237.313 84.924 237.781 84.732L238.375 86.478ZM234.757 79.44C234.205 79.44 233.773 79.62 233.461 79.98C233.161 80.328 232.987 80.832 232.939 81.492H236.395C236.407 81.432 236.413 81.378 236.413 81.33C236.413 81.27 236.413 81.216 236.413 81.168C236.413 80.592 236.251 80.16 235.927 79.872C235.603 79.584 235.213 79.44 234.757 79.44ZM245.656 79.62C245.356 79.62 245.014 79.692 244.63 79.836C244.246 79.98 243.79 80.262 243.262 80.682V87H241.192V77.874H243.154V79.098C243.718 78.606 244.252 78.252 244.756 78.036C245.26 77.808 245.77 77.694 246.286 77.694C247.162 77.694 247.828 77.976 248.284 78.54C248.74 79.092 248.968 79.872 248.968 80.88V87H246.898V81.132C246.898 80.124 246.484 79.62 245.656 79.62ZM257.41 87V85.758C256.858 86.31 256.378 86.688 255.97 86.892C255.574 87.084 255.16 87.18 254.728 87.18C253.744 87.18 252.976 86.808 252.424 86.064C251.884 85.32 251.614 84.276 251.614 82.932V81.96C251.614 80.652 251.944 79.614 252.604 78.846C253.264 78.078 254.218 77.694 255.466 77.694C255.778 77.694 256.084 77.724 256.384 77.784C256.696 77.844 257.002 77.928 257.302 78.036V73.68H259.372V87H257.41ZM253.738 82.932C253.738 83.736 253.87 84.324 254.134 84.696C254.41 85.068 254.794 85.254 255.286 85.254C255.562 85.254 255.856 85.176 256.168 85.02C256.48 84.852 256.858 84.54 257.302 84.084V79.908C256.714 79.668 256.174 79.548 255.682 79.548C254.986 79.548 254.488 79.764 254.188 80.196C253.888 80.628 253.738 81.216 253.738 81.96V82.932ZM269.496 87.09C268.884 87.09 268.392 86.964 268.02 86.712C267.66 86.46 267.396 86.148 267.228 85.776C266.712 86.256 266.214 86.61 265.734 86.838C265.254 87.066 264.738 87.18 264.186 87.18C263.382 87.18 262.788 86.922 262.404 86.406C262.032 85.89 261.846 85.236 261.846 84.444C261.846 83.916 261.942 83.454 262.134 83.058C262.338 82.65 262.668 82.332 263.124 82.104C263.58 81.876 264.204 81.762 264.996 81.762C265.308 81.762 265.632 81.786 265.968 81.834C266.304 81.87 266.64 81.918 266.976 81.978V80.916C266.976 80.412 266.838 80.07 266.562 79.89C266.286 79.698 265.914 79.602 265.446 79.602C265.086 79.602 264.69 79.65 264.258 79.746C263.838 79.842 263.382 79.992 262.89 80.196L262.296 78.432C263.508 77.94 264.606 77.694 265.59 77.694C266.478 77.694 267.162 77.844 267.642 78.144C268.134 78.444 268.476 78.84 268.668 79.332C268.86 79.824 268.956 80.352 268.956 80.916V84.426C268.956 84.606 269.004 84.78 269.1 84.948C269.208 85.104 269.412 85.182 269.712 85.182H269.91V87.09H269.496ZM263.844 84.408C263.844 84.732 263.916 84.99 264.06 85.182C264.204 85.362 264.414 85.452 264.69 85.452C264.966 85.452 265.278 85.38 265.626 85.236C265.974 85.092 266.424 84.756 266.976 84.228V83.454C266.352 83.346 265.74 83.292 265.14 83.292C264.672 83.292 264.336 83.388 264.132 83.58C263.94 83.772 263.844 84.048 263.844 84.408ZM276.531 79.62C276.231 79.62 275.889 79.692 275.505 79.836C275.121 79.98 274.665 80.262 274.137 80.682V87H272.067V77.874H274.029V79.098C274.593 78.606 275.127 78.252 275.631 78.036C276.135 77.808 276.645 77.694 277.161 77.694C278.037 77.694 278.703 77.976 279.159 78.54C279.615 79.092 279.843 79.872 279.843 80.88V87H277.773V81.132C277.773 80.124 277.359 79.62 276.531 79.62ZM284.523 81.906V82.968C284.523 83.736 284.661 84.312 284.937 84.696C285.213 85.08 285.657 85.272 286.269 85.272C286.569 85.272 286.905 85.236 287.277 85.164C287.661 85.08 288.075 84.954 288.519 84.786L289.113 86.532C288.573 86.748 288.063 86.91 287.583 87.018C287.103 87.126 286.629 87.18 286.161 87.18C284.961 87.18 284.043 86.796 283.407 86.028C282.771 85.26 282.453 84.24 282.453 82.968V81.906C282.453 80.622 282.771 79.602 283.407 78.846C284.043 78.078 284.961 77.694 286.161 77.694C286.617 77.694 287.079 77.748 287.547 77.856C288.015 77.964 288.507 78.12 289.023 78.324L288.429 80.106C287.565 79.77 286.845 79.602 286.269 79.602C285.657 79.602 285.213 79.794 284.937 80.178C284.661 80.55 284.523 81.126 284.523 81.906ZM298.297 86.478C297.673 86.73 297.085 86.91 296.533 87.018C295.981 87.126 295.459 87.18 294.967 87.18C293.611 87.18 292.585 86.796 291.889 86.028C291.193 85.26 290.845 84.24 290.845 82.968V81.888C290.845 81.036 291.001 80.298 291.313 79.674C291.625 79.05 292.069 78.564 292.645 78.216C293.221 77.868 293.899 77.694 294.679 77.694C295.315 77.694 295.909 77.826 296.461 78.09C297.025 78.342 297.481 78.744 297.829 79.296C298.189 79.836 298.369 80.532 298.369 81.384C298.369 81.636 298.351 81.906 298.315 82.194C298.279 82.47 298.219 82.764 298.135 83.076H292.843C292.867 83.82 293.053 84.378 293.401 84.75C293.749 85.122 294.307 85.308 295.075 85.308C295.483 85.308 295.903 85.26 296.335 85.164C296.779 85.068 297.235 84.924 297.703 84.732L298.297 86.478ZM294.679 79.44C294.127 79.44 293.695 79.62 293.383 79.98C293.083 80.328 292.909 80.832 292.861 81.492H296.317C296.329 81.432 296.335 81.378 296.335 81.33C296.335 81.27 296.335 81.216 296.335 81.168C296.335 80.592 296.173 80.16 295.849 79.872C295.525 79.584 295.135 79.44 294.679 79.44ZM312.547 81.888V82.968C312.547 84.24 312.199 85.26 311.503 86.028C310.807 86.796 309.823 87.18 308.551 87.18C307.279 87.18 306.295 86.796 305.599 86.028C304.903 85.26 304.555 84.24 304.555 82.968V81.888C304.555 80.616 304.897 79.602 305.581 78.846C306.277 78.078 307.267 77.694 308.551 77.694C309.835 77.694 310.819 78.078 311.503 78.846C312.199 79.602 312.547 80.616 312.547 81.888ZM310.423 81.888C310.423 81.156 310.261 80.586 309.937 80.178C309.613 79.758 309.151 79.548 308.551 79.548C307.951 79.548 307.489 79.758 307.165 80.178C306.841 80.586 306.679 81.156 306.679 81.888V82.968C306.679 83.7 306.841 84.276 307.165 84.696C307.489 85.116 307.951 85.326 308.551 85.326C309.151 85.326 309.613 85.116 309.937 84.696C310.261 84.276 310.423 83.7 310.423 82.968V81.888ZM322.307 77.874L319.067 87H317.177L313.937 77.874H316.025L317.591 82.428L318.185 84.318L318.761 82.428L320.255 77.874H322.307ZM331.149 86.478C330.525 86.73 329.937 86.91 329.385 87.018C328.833 87.126 328.311 87.18 327.819 87.18C326.463 87.18 325.437 86.796 324.741 86.028C324.045 85.26 323.697 84.24 323.697 82.968V81.888C323.697 81.036 323.853 80.298 324.165 79.674C324.477 79.05 324.921 78.564 325.497 78.216C326.073 77.868 326.751 77.694 327.531 77.694C328.167 77.694 328.761 77.826 329.313 78.09C329.877 78.342 330.333 78.744 330.681 79.296C331.041 79.836 331.221 80.532 331.221 81.384C331.221 81.636 331.203 81.906 331.167 82.194C331.131 82.47 331.071 82.764 330.987 83.076H325.695C325.719 83.82 325.905 84.378 326.253 84.75C326.601 85.122 327.159 85.308 327.927 85.308C328.335 85.308 328.755 85.26 329.187 85.164C329.631 85.068 330.087 84.924 330.555 84.732L331.149 86.478ZM327.531 79.44C326.979 79.44 326.547 79.62 326.235 79.98C325.935 80.328 325.761 80.832 325.713 81.492H329.169C329.181 81.432 329.187 81.378 329.187 81.33C329.187 81.27 329.187 81.216 329.187 81.168C329.187 80.592 329.025 80.16 328.701 79.872C328.377 79.584 327.987 79.44 327.531 79.44ZM339.114 79.764C338.55 79.764 338.01 79.854 337.494 80.034C336.99 80.202 336.504 80.478 336.036 80.862V87H333.966V77.874H335.928V79.278C336.54 78.702 337.086 78.294 337.566 78.054C338.046 77.814 338.562 77.694 339.114 77.694V79.764ZM348.541 77.874L345.301 87H343.411L340.171 77.874H342.259L343.825 82.428L344.419 84.318L344.995 82.428L346.489 77.874H348.541ZM352.753 76.146H350.575V74.004H352.753V76.146ZM352.699 87H350.629V77.874H352.699V87ZM362.841 86.478C362.217 86.73 361.629 86.91 361.077 87.018C360.525 87.126 360.003 87.18 359.511 87.18C358.155 87.18 357.129 86.796 356.433 86.028C355.737 85.26 355.389 84.24 355.389 82.968V81.888C355.389 81.036 355.545 80.298 355.857 79.674C356.169 79.05 356.613 78.564 357.189 78.216C357.765 77.868 358.443 77.694 359.223 77.694C359.859 77.694 360.453 77.826 361.005 78.09C361.569 78.342 362.025 78.744 362.373 79.296C362.733 79.836 362.913 80.532 362.913 81.384C362.913 81.636 362.895 81.906 362.859 82.194C362.823 82.47 362.763 82.764 362.679 83.076H357.387C357.411 83.82 357.597 84.378 357.945 84.75C358.293 85.122 358.851 85.308 359.619 85.308C360.027 85.308 360.447 85.26 360.879 85.164C361.323 85.068 361.779 84.924 362.247 84.732L362.841 86.478ZM359.223 79.44C358.671 79.44 358.239 79.62 357.927 79.98C357.627 80.328 357.453 80.832 357.405 81.492H360.861C360.873 81.432 360.879 81.378 360.879 81.33C360.879 81.27 360.879 81.216 360.879 81.168C360.879 80.592 360.717 80.16 360.393 79.872C360.069 79.584 359.679 79.44 359.223 79.44ZM376.928 77.874L374.588 87H372.338L370.826 80.142L369.224 87H366.974L364.634 77.874H366.758L367.64 81.492L368.252 84.786L369.8 77.874H371.888L373.49 84.858L374.066 81.51L374.93 77.874H376.928Z" fill="black"/>
<path d="M77.9922 95.8452H515.91" stroke="url(#paint0_linear_551_3)" stroke-width="1.6" stroke-linecap="round"/>
<path fill-rule="evenodd" clip-rule="evenodd" d="M370.676 185.948C348.329 176.018 323.331 170.461 296.945 170.461C201.931 170.461 124.906 242.515 124.906 331.397H187.469C187.47 274.836 236.485 228.984 296.949 228.984C313.735 228.984 329.639 232.518 343.857 238.834L370.676 185.948Z" fill="#00D021"/>
<path fill-rule="evenodd" clip-rule="evenodd" d="M461.47 283.848C466.496 298.966 469.204 315.039 469.204 331.704L406.648 331.704C406.648 320.274 404.646 309.282 400.953 299.017L461.47 283.848Z" fill="#848484"/>
<path fill-rule="evenodd" clip-rule="evenodd" d="M400.722 298.915C391.207 272.502 370.491 250.909 343.859 239.078L370.678 186.192C413.701 205.311 446.896 240.642 461.24 283.746L400.722 298.915Z" fill="#C01F1F"/>
<ellipse cx="98.3248" cy="121.449" rx="4.69198" ry="4.38916" fill="#00D021"/>
<path d="M110.504 121V110.12H114.088C115.229 110.12 116.083 110.408 116.648 110.984C117.224 111.56 117.512 112.328 117.512 113.288V114.136C117.512 115.096 117.224 115.869 116.648 116.456C116.083 117.032 115.229 117.32 114.088 117.32H112.424V121H110.504ZM114.088 111.96H112.424V115.48H114.088C114.557 115.48 114.915 115.363 115.16 115.128C115.416 114.893 115.544 114.563 115.544 114.136V113.288C115.544 112.872 115.416 112.547 115.16 112.312C114.915 112.077 114.557 111.96 114.088 111.96ZM123.871 114.568C123.37 114.568 122.89 114.648 122.431 114.808C121.983 114.957 121.551 115.203 121.135 115.544V121H119.295V112.888H121.039V114.136C121.583 113.624 122.069 113.261 122.495 113.048C122.922 112.835 123.381 112.728 123.871 112.728V114.568ZM131.643 120.536C131.088 120.76 130.565 120.92 130.075 121.016C129.584 121.112 129.12 121.16 128.683 121.16C127.477 121.16 126.565 120.819 125.947 120.136C125.328 119.453 125.019 118.547 125.019 117.416V116.456C125.019 115.699 125.157 115.043 125.435 114.488C125.712 113.933 126.107 113.501 126.619 113.192C127.131 112.883 127.733 112.728 128.427 112.728C128.992 112.728 129.52 112.845 130.011 113.08C130.512 113.304 130.917 113.661 131.227 114.152C131.547 114.632 131.707 115.251 131.707 116.008C131.707 116.232 131.691 116.472 131.659 116.728C131.627 116.973 131.573 117.235 131.499 117.512H126.795C126.816 118.173 126.981 118.669 127.291 119C127.6 119.331 128.096 119.496 128.779 119.496C129.141 119.496 129.515 119.453 129.899 119.368C130.293 119.283 130.699 119.155 131.115 118.984L131.643 120.536ZM128.427 114.28C127.936 114.28 127.552 114.44 127.275 114.76C127.008 115.069 126.853 115.517 126.811 116.104H129.883C129.893 116.051 129.899 116.003 129.899 115.96C129.899 115.907 129.899 115.859 129.899 115.816C129.899 115.304 129.755 114.92 129.467 114.664C129.179 114.408 128.832 114.28 128.427 114.28ZM136.099 119.56C136.493 119.56 136.819 119.496 137.075 119.368C137.331 119.229 137.459 119.027 137.459 118.76C137.459 118.525 137.373 118.344 137.203 118.216C137.043 118.077 136.749 117.955 136.323 117.848L135.411 117.608C134.707 117.427 134.184 117.123 133.843 116.696C133.512 116.269 133.347 115.763 133.347 115.176C133.347 114.483 133.587 113.901 134.067 113.432C134.547 112.963 135.288 112.728 136.291 112.728C136.696 112.728 137.123 112.776 137.571 112.872C138.019 112.968 138.488 113.123 138.979 113.336L138.451 114.904C138.003 114.691 137.597 114.541 137.235 114.456C136.872 114.371 136.552 114.328 136.275 114.328C135.517 114.328 135.139 114.584 135.139 115.096C135.139 115.299 135.203 115.459 135.331 115.576C135.469 115.693 135.72 115.8 136.083 115.896L136.995 116.136C137.773 116.339 138.339 116.648 138.691 117.064C139.053 117.48 139.235 118.003 139.235 118.632C139.235 119.379 138.979 119.987 138.467 120.456C137.965 120.925 137.171 121.16 136.083 121.16C135.155 121.16 134.179 120.947 133.155 120.52L133.651 119C134.152 119.203 134.605 119.347 135.011 119.432C135.416 119.517 135.779 119.56 136.099 119.56ZM147.283 120.536C146.729 120.76 146.206 120.92 145.715 121.016C145.225 121.112 144.761 121.16 144.323 121.16C143.118 121.16 142.206 120.819 141.587 120.136C140.969 119.453 140.659 118.547 140.659 117.416V116.456C140.659 115.699 140.798 115.043 141.075 114.488C141.353 113.933 141.747 113.501 142.259 113.192C142.771 112.883 143.374 112.728 144.067 112.728C144.633 112.728 145.161 112.845 145.651 113.08C146.153 113.304 146.558 113.661 146.867 114.152C147.187 114.632 147.347 115.251 147.347 116.008C147.347 116.232 147.331 116.472 147.299 116.728C147.267 116.973 147.214 117.235 147.139 117.512H142.435C142.457 118.173 142.622 118.669 142.931 119C143.241 119.331 143.737 119.496 144.419 119.496C144.782 119.496 145.155 119.453 145.539 119.368C145.934 119.283 146.339 119.155 146.755 118.984L147.283 120.536ZM144.067 114.28C143.577 114.28 143.193 114.44 142.915 114.76C142.649 115.069 142.494 115.517 142.451 116.104H145.523C145.534 116.051 145.539 116.003 145.539 115.96C145.539 115.907 145.539 115.859 145.539 115.816C145.539 115.304 145.395 114.92 145.107 114.664C144.819 114.408 144.473 114.28 144.067 114.28ZM153.435 114.44C153.168 114.44 152.864 114.504 152.523 114.632C152.182 114.76 151.776 115.011 151.307 115.384V121H149.467V112.888H151.211V113.976C151.712 113.539 152.187 113.224 152.635 113.032C153.083 112.829 153.536 112.728 153.995 112.728C154.774 112.728 155.366 112.979 155.771 113.48C156.176 113.971 156.379 114.664 156.379 115.56V121H154.539V115.784C154.539 114.888 154.171 114.44 153.435 114.44ZM163.691 120.728C163.414 120.856 163.094 120.957 162.731 121.032C162.368 121.117 162 121.16 161.627 121.16C161.008 121.16 160.512 121.032 160.139 120.776C159.766 120.52 159.494 120.163 159.323 119.704C159.163 119.245 159.083 118.723 159.083 118.136V114.488H157.771V112.888H159.083V110.776H160.923V112.888H163.451V114.488H160.923V118.136C160.923 118.627 161.014 118.968 161.195 119.16C161.387 119.341 161.659 119.432 162.011 119.432C162.182 119.432 162.363 119.416 162.555 119.384C162.758 119.341 162.982 119.272 163.227 119.176L163.691 120.728ZM115.144 139.728C114.867 139.856 114.547 139.957 114.184 140.032C113.821 140.117 113.453 140.16 113.08 140.16C112.461 140.16 111.965 140.032 111.592 139.776C111.219 139.52 110.947 139.163 110.776 138.704C110.616 138.245 110.536 137.723 110.536 137.136V133.488H109.224V131.888H110.536V129.776H112.376V131.888H114.904V133.488H112.376V137.136C112.376 137.627 112.467 137.968 112.648 138.16C112.84 138.341 113.112 138.432 113.464 138.432C113.635 138.432 113.816 138.416 114.008 138.384C114.211 138.341 114.435 138.272 114.68 138.176L115.144 139.728ZM123.263 135.456V136.416C123.263 137.547 122.954 138.453 122.335 139.136C121.717 139.819 120.842 140.16 119.711 140.16C118.581 140.16 117.706 139.819 117.087 139.136C116.469 138.453 116.159 137.547 116.159 136.416V135.456C116.159 134.325 116.463 133.424 117.071 132.752C117.69 132.069 118.57 131.728 119.711 131.728C120.853 131.728 121.727 132.069 122.335 132.752C122.954 133.424 123.263 134.325 123.263 135.456ZM121.375 135.456C121.375 134.805 121.231 134.299 120.943 133.936C120.655 133.563 120.245 133.376 119.711 133.376C119.178 133.376 118.767 133.563 118.479 133.936C118.191 134.299 118.047 134.805 118.047 135.456V136.416C118.047 137.067 118.191 137.579 118.479 137.952C118.767 138.325 119.178 138.512 119.711 138.512C120.245 138.512 120.655 138.325 120.943 137.952C121.231 137.579 121.375 137.067 121.375 136.416V135.456ZM130.079 140V138.896C129.588 139.387 129.161 139.723 128.799 139.904C128.447 140.075 128.079 140.16 127.695 140.16C126.82 140.16 126.137 139.829 125.647 139.168C125.167 138.507 124.927 137.579 124.927 136.384V135.52C124.927 134.357 125.22 133.435 125.807 132.752C126.393 132.069 127.241 131.728 128.351 131.728C128.628 131.728 128.9 131.755 129.167 131.808C129.444 131.861 129.716 131.936 129.983 132.032V128.16H131.823V140H130.079ZM126.815 136.384C126.815 137.099 126.932 137.621 127.167 137.952C127.412 138.283 127.753 138.448 128.191 138.448C128.436 138.448 128.697 138.379 128.975 138.24C129.252 138.091 129.588 137.813 129.983 137.408V133.696C129.46 133.483 128.98 133.376 128.543 133.376C127.924 133.376 127.481 133.568 127.215 133.952C126.948 134.336 126.815 134.859 126.815 135.52V136.384ZM140.502 140.08C139.958 140.08 139.52 139.968 139.19 139.744C138.87 139.52 138.635 139.243 138.486 138.912C138.027 139.339 137.584 139.653 137.158 139.856C136.731 140.059 136.272 140.16 135.782 140.16C135.067 140.16 134.539 139.931 134.198 139.472C133.867 139.013 133.702 138.432 133.702 137.728C133.702 137.259 133.787 136.848 133.958 136.496C134.139 136.133 134.432 135.851 134.838 135.648C135.243 135.445 135.798 135.344 136.502 135.344C136.779 135.344 137.067 135.365 137.366 135.408C137.664 135.44 137.963 135.483 138.262 135.536V134.592C138.262 134.144 138.139 133.84 137.894 133.68C137.648 133.509 137.318 133.424 136.902 133.424C136.582 133.424 136.23 133.467 135.846 133.552C135.472 133.637 135.067 133.771 134.63 133.952L134.102 132.384C135.179 131.947 136.155 131.728 137.03 131.728C137.819 131.728 138.427 131.861 138.854 132.128C139.291 132.395 139.595 132.747 139.766 133.184C139.936 133.621 140.022 134.091 140.022 134.592V137.712C140.022 137.872 140.064 138.027 140.15 138.176C140.246 138.315 140.427 138.384 140.694 138.384H140.87V140.08H140.502ZM135.478 137.696C135.478 137.984 135.542 138.213 135.67 138.384C135.798 138.544 135.984 138.624 136.23 138.624C136.475 138.624 136.752 138.56 137.062 138.432C137.371 138.304 137.771 138.005 138.262 137.536V136.848C137.707 136.752 137.163 136.704 136.63 136.704C136.214 136.704 135.915 136.789 135.734 136.96C135.563 137.131 135.478 137.376 135.478 137.696ZM145.513 140.8C145.161 141.781 144.713 142.485 144.169 142.912C143.625 143.349 142.878 143.568 141.929 143.568V141.728C142.494 141.707 142.937 141.579 143.257 141.344C143.587 141.12 143.833 140.805 143.993 140.4L144.137 140.032L141.241 131.888H143.065L144.457 135.936L145.001 137.648L145.529 135.936L146.857 131.888H148.681L145.513 140.8Z" fill="black"/>
<ellipse cx="263.325" cy="121.449" rx="4.69198" ry="4.38916" fill="#C01F1F"/>
<path d="M285.296 121L284.624 118.872H280.896L280.224 121H278.32L281.952 110.12H283.648L287.296 121H285.296ZM281.936 115.544L281.44 117.112H284.064L283.568 115.544L282.768 112.792L281.936 115.544ZM295.705 117.368C295.705 118.531 295.417 119.453 294.841 120.136C294.265 120.819 293.423 121.16 292.313 121.16C291.161 121.16 289.993 120.84 288.809 120.2V109.16H290.649V113.96C291.14 113.469 291.561 113.144 291.913 112.984C292.265 112.813 292.628 112.728 293.001 112.728C293.855 112.728 294.516 113.059 294.985 113.72C295.465 114.381 295.705 115.309 295.705 116.504V117.368ZM292.505 114.44C292.249 114.44 291.977 114.515 291.689 114.664C291.412 114.813 291.065 115.107 290.649 115.544V119.176C290.937 119.293 291.199 119.379 291.433 119.432C291.679 119.485 291.919 119.512 292.153 119.512C292.751 119.512 293.177 119.32 293.433 118.936C293.689 118.552 293.817 118.029 293.817 117.368V116.504C293.817 115.789 293.7 115.267 293.465 114.936C293.241 114.605 292.921 114.44 292.505 114.44ZM300.099 119.56C300.493 119.56 300.819 119.496 301.075 119.368C301.331 119.229 301.459 119.027 301.459 118.76C301.459 118.525 301.373 118.344 301.203 118.216C301.043 118.077 300.749 117.955 300.323 117.848L299.411 117.608C298.707 117.427 298.184 117.123 297.843 116.696C297.512 116.269 297.347 115.763 297.347 115.176C297.347 114.483 297.587 113.901 298.067 113.432C298.547 112.963 299.288 112.728 300.291 112.728C300.696 112.728 301.123 112.776 301.571 112.872C302.019 112.968 302.488 113.123 302.979 113.336L302.451 114.904C302.003 114.691 301.597 114.541 301.235 114.456C300.872 114.371 300.552 114.328 300.275 114.328C299.517 114.328 299.139 114.584 299.139 115.096C299.139 115.299 299.203 115.459 299.331 115.576C299.469 115.693 299.72 115.8 300.083 115.896L300.995 116.136C301.773 116.339 302.339 116.648 302.691 117.064C303.053 117.48 303.235 118.003 303.235 118.632C303.235 119.379 302.979 119.987 302.467 120.456C301.965 120.925 301.171 121.16 300.083 121.16C299.155 121.16 298.179 120.947 297.155 120.52L297.651 119C298.152 119.203 298.605 119.347 299.011 119.432C299.416 119.517 299.779 119.56 300.099 119.56ZM311.283 120.536C310.729 120.76 310.206 120.92 309.715 121.016C309.225 121.112 308.761 121.16 308.323 121.16C307.118 121.16 306.206 120.819 305.587 120.136C304.969 119.453 304.659 118.547 304.659 117.416V116.456C304.659 115.699 304.798 115.043 305.075 114.488C305.353 113.933 305.747 113.501 306.259 113.192C306.771 112.883 307.374 112.728 308.067 112.728C308.633 112.728 309.161 112.845 309.651 113.08C310.153 113.304 310.558 113.661 310.867 114.152C311.187 114.632 311.347 115.251 311.347 116.008C311.347 116.232 311.331 116.472 311.299 116.728C311.267 116.973 311.214 117.235 311.139 117.512H306.435C306.457 118.173 306.622 118.669 306.931 119C307.241 119.331 307.737 119.496 308.419 119.496C308.782 119.496 309.155 119.453 309.539 119.368C309.934 119.283 310.339 119.155 310.755 118.984L311.283 120.536ZM308.067 114.28C307.577 114.28 307.193 114.44 306.915 114.76C306.649 115.069 306.494 115.517 306.451 116.104H309.523C309.534 116.051 309.539 116.003 309.539 115.96C309.539 115.907 309.539 115.859 309.539 115.816C309.539 115.304 309.395 114.92 309.107 114.664C308.819 114.408 308.473 114.28 308.067 114.28ZM317.435 114.44C317.168 114.44 316.864 114.504 316.523 114.632C316.182 114.76 315.776 115.011 315.307 115.384V121H313.467V112.888H315.211V113.976C315.712 113.539 316.187 113.224 316.635 113.032C317.083 112.829 317.536 112.728 317.995 112.728C318.774 112.728 319.366 112.979 319.771 113.48C320.176 113.971 320.379 114.664 320.379 115.56V121H318.539V115.784C318.539 114.888 318.171 114.44 317.435 114.44ZM327.691 120.728C327.414 120.856 327.094 120.957 326.731 121.032C326.368 121.117 326 121.16 325.627 121.16C325.008 121.16 324.512 121.032 324.139 120.776C323.766 120.52 323.494 120.163 323.323 119.704C323.163 119.245 323.083 118.723 323.083 118.136V114.488H321.771V112.888H323.083V110.776H324.923V112.888H327.451V114.488H324.923V118.136C324.923 118.627 325.014 118.968 325.195 119.16C325.387 119.341 325.659 119.432 326.011 119.432C326.182 119.432 326.363 119.416 326.555 119.384C326.758 119.341 326.982 119.272 327.227 119.176L327.691 120.728ZM284.144 139.728C283.867 139.856 283.547 139.957 283.184 140.032C282.821 140.117 282.453 140.16 282.08 140.16C281.461 140.16 280.965 140.032 280.592 139.776C280.219 139.52 279.947 139.163 279.776 138.704C279.616 138.245 279.536 137.723 279.536 137.136V133.488H278.224V131.888H279.536V129.776H281.376V131.888H283.904V133.488H281.376V137.136C281.376 137.627 281.467 137.968 281.648 138.16C281.84 138.341 282.112 138.432 282.464 138.432C282.635 138.432 282.816 138.416 283.008 138.384C283.211 138.341 283.435 138.272 283.68 138.176L284.144 139.728ZM292.263 135.456V136.416C292.263 137.547 291.954 138.453 291.335 139.136C290.717 139.819 289.842 140.16 288.711 140.16C287.581 140.16 286.706 139.819 286.087 139.136C285.469 138.453 285.159 137.547 285.159 136.416V135.456C285.159 134.325 285.463 133.424 286.071 132.752C286.69 132.069 287.57 131.728 288.711 131.728C289.853 131.728 290.727 132.069 291.335 132.752C291.954 133.424 292.263 134.325 292.263 135.456ZM290.375 135.456C290.375 134.805 290.231 134.299 289.943 133.936C289.655 133.563 289.245 133.376 288.711 133.376C288.178 133.376 287.767 133.563 287.479 133.936C287.191 134.299 287.047 134.805 287.047 135.456V136.416C287.047 137.067 287.191 137.579 287.479 137.952C287.767 138.325 288.178 138.512 288.711 138.512C289.245 138.512 289.655 138.325 289.943 137.952C290.231 137.579 290.375 137.067 290.375 136.416V135.456ZM299.079 140V138.896C298.588 139.387 298.161 139.723 297.799 139.904C297.447 140.075 297.079 140.16 296.695 140.16C295.82 140.16 295.137 139.829 294.647 139.168C294.167 138.507 293.927 137.579 293.927 136.384V135.52C293.927 134.357 294.22 133.435 294.807 132.752C295.393 132.069 296.241 131.728 297.351 131.728C297.628 131.728 297.9 131.755 298.167 131.808C298.444 131.861 298.716 131.936 298.983 132.032V128.16H300.823V140H299.079ZM295.815 136.384C295.815 137.099 295.932 137.621 296.167 137.952C296.412 138.283 296.753 138.448 297.191 138.448C297.436 138.448 297.697 138.379 297.975 138.24C298.252 138.091 298.588 137.813 298.983 137.408V133.696C298.46 133.483 297.98 133.376 297.543 133.376C296.924 133.376 296.481 133.568 296.215 133.952C295.948 134.336 295.815 134.859 295.815 135.52V136.384ZM309.502 140.08C308.958 140.08 308.52 139.968 308.19 139.744C307.87 139.52 307.635 139.243 307.486 138.912C307.027 139.339 306.584 139.653 306.158 139.856C305.731 140.059 305.272 140.16 304.782 140.16C304.067 140.16 303.539 139.931 303.198 139.472C302.867 139.013 302.702 138.432 302.702 137.728C302.702 137.259 302.787 136.848 302.958 136.496C303.139 136.133 303.432 135.851 303.838 135.648C304.243 135.445 304.798 135.344 305.502 135.344C305.779 135.344 306.067 135.365 306.366 135.408C306.664 135.44 306.963 135.483 307.262 135.536V134.592C307.262 134.144 307.139 133.84 306.894 133.68C306.648 133.509 306.318 133.424 305.902 133.424C305.582 133.424 305.23 133.467 304.846 133.552C304.472 133.637 304.067 133.771 303.63 133.952L303.102 132.384C304.179 131.947 305.155 131.728 306.03 131.728C306.819 131.728 307.427 131.861 307.854 132.128C308.291 132.395 308.595 132.747 308.766 133.184C308.936 133.621 309.022 134.091 309.022 134.592V137.712C309.022 137.872 309.064 138.027 309.15 138.176C309.246 138.315 309.427 138.384 309.694 138.384H309.87V140.08H309.502ZM304.478 137.696C304.478 137.984 304.542 138.213 304.67 138.384C304.798 138.544 304.984 138.624 305.23 138.624C305.475 138.624 305.752 138.56 306.062 138.432C306.371 138.304 306.771 138.005 307.262 137.536V136.848C306.707 136.752 306.163 136.704 305.63 136.704C305.214 136.704 304.915 136.789 304.734 136.96C304.563 137.131 304.478 137.376 304.478 137.696ZM314.513 140.8C314.161 141.781 313.713 142.485 313.169 142.912C312.625 143.349 311.878 143.568 310.929 143.568V141.728C311.494 141.707 311.937 141.579 312.257 141.344C312.587 141.12 312.833 140.805 312.993 140.4L313.137 140.032L310.241 131.888H312.065L313.457 135.936L314.001 137.648L314.529 135.936L315.857 131.888H317.681L314.513 140.8Z" fill="black"/>
<ellipse cx="423.637" cy="121.449" rx="4.69198" ry="4.38916" fill="#848484"/>
<path d="M444.2 114.408V116.696C444.2 118.083 443.853 119.176 443.16 119.976C442.467 120.765 441.453 121.16 440.12 121.16C438.776 121.16 437.757 120.765 437.064 119.976C436.381 119.176 436.04 118.083 436.04 116.696V114.408C436.04 113.021 436.381 111.933 437.064 111.144C437.757 110.355 438.776 109.96 440.12 109.96C441.453 109.96 442.467 110.355 443.16 111.144C443.853 111.933 444.2 113.021 444.2 114.408ZM442.232 114.408C442.232 113.533 442.061 112.877 441.72 112.44C441.379 111.992 440.845 111.768 440.12 111.768C439.395 111.768 438.861 111.992 438.52 112.44C438.179 112.877 438.008 113.533 438.008 114.408V116.696C438.008 117.571 438.179 118.232 438.52 118.68C438.861 119.128 439.395 119.352 440.12 119.352C440.845 119.352 441.379 119.128 441.72 118.68C442.061 118.232 442.232 117.571 442.232 116.696V114.408ZM450.466 114.44C450.2 114.44 449.896 114.504 449.554 114.632C449.213 114.76 448.808 115.011 448.338 115.384V121H446.498V112.888H448.242V113.976C448.744 113.539 449.218 113.224 449.666 113.032C450.114 112.829 450.568 112.728 451.026 112.728C451.805 112.728 452.397 112.979 452.802 113.48C453.208 113.971 453.41 114.664 453.41 115.56V121H451.57V115.784C451.57 114.888 451.202 114.44 450.466 114.44ZM436.216 137.712V128.16H438.056V137.712C438.056 137.872 438.093 138.027 438.168 138.176C438.253 138.315 438.413 138.384 438.648 138.384H438.904V140.08H438.456C437.848 140.08 437.384 139.963 437.064 139.728C436.744 139.493 436.52 139.195 436.392 138.832C436.275 138.469 436.216 138.096 436.216 137.712ZM446.846 139.536C446.291 139.76 445.769 139.92 445.278 140.016C444.787 140.112 444.323 140.16 443.886 140.16C442.681 140.16 441.769 139.819 441.15 139.136C440.531 138.453 440.222 137.547 440.222 136.416V135.456C440.222 134.699 440.361 134.043 440.638 133.488C440.915 132.933 441.31 132.501 441.822 132.192C442.334 131.883 442.937 131.728 443.63 131.728C444.195 131.728 444.723 131.845 445.214 132.08C445.715 132.304 446.121 132.661 446.43 133.152C446.75 133.632 446.91 134.251 446.91 135.008C446.91 135.232 446.894 135.472 446.862 135.728C446.83 135.973 446.777 136.235 446.702 136.512H441.998C442.019 137.173 442.185 137.669 442.494 138C442.803 138.331 443.299 138.496 443.982 138.496C444.345 138.496 444.718 138.453 445.102 138.368C445.497 138.283 445.902 138.155 446.318 137.984L446.846 139.536ZM443.63 133.28C443.139 133.28 442.755 133.44 442.478 133.76C442.211 134.069 442.057 134.517 442.014 135.104H445.086C445.097 135.051 445.102 135.003 445.102 134.96C445.102 134.907 445.102 134.859 445.102 134.816C445.102 134.304 444.958 133.92 444.67 133.664C444.382 133.408 444.035 133.28 443.63 133.28ZM455.174 140.08C454.63 140.08 454.192 139.968 453.862 139.744C453.542 139.52 453.307 139.243 453.158 138.912C452.699 139.339 452.256 139.653 451.83 139.856C451.403 140.059 450.944 140.16 450.454 140.16C449.739 140.16 449.211 139.931 448.87 139.472C448.539 139.013 448.374 138.432 448.374 137.728C448.374 137.259 448.459 136.848 448.63 136.496C448.811 136.133 449.104 135.851 449.51 135.648C449.915 135.445 450.47 135.344 451.174 135.344C451.451 135.344 451.739 135.365 452.038 135.408C452.336 135.44 452.635 135.483 452.934 135.536V134.592C452.934 134.144 452.811 133.84 452.566 133.68C452.32 133.509 451.99 133.424 451.574 133.424C451.254 133.424 450.902 133.467 450.518 133.552C450.144 133.637 449.739 133.771 449.302 133.952L448.774 132.384C449.851 131.947 450.827 131.728 451.702 131.728C452.491 131.728 453.099 131.861 453.526 132.128C453.963 132.395 454.267 132.747 454.438 133.184C454.608 133.621 454.694 134.091 454.694 134.592V137.712C454.694 137.872 454.736 138.027 454.822 138.176C454.918 138.315 455.099 138.384 455.366 138.384H455.542V140.08H455.174ZM450.15 137.696C450.15 137.984 450.214 138.213 450.342 138.384C450.47 138.544 450.656 138.624 450.902 138.624C451.147 138.624 451.424 138.56 451.734 138.432C452.043 138.304 452.443 138.005 452.934 137.536V136.848C452.379 136.752 451.835 136.704 451.302 136.704C450.886 136.704 450.587 136.789 450.406 136.96C450.235 137.131 450.15 137.376 450.15 137.696ZM463.353 131.888L460.473 140H458.793L455.913 131.888H457.769L459.161 135.936L459.689 137.616L460.201 135.936L461.529 131.888H463.353ZM470.893 139.536C470.338 139.76 469.815 139.92 469.325 140.016C468.834 140.112 468.37 140.16 467.933 140.16C466.727 140.16 465.815 139.819 465.197 139.136C464.578 138.453 464.269 137.547 464.269 136.416V135.456C464.269 134.699 464.407 134.043 464.685 133.488C464.962 132.933 465.357 132.501 465.869 132.192C466.381 131.883 466.983 131.728 467.677 131.728C468.242 131.728 468.77 131.845 469.261 132.08C469.762 132.304 470.167 132.661 470.477 133.152C470.797 133.632 470.957 134.251 470.957 135.008C470.957 135.232 470.941 135.472 470.909 135.728C470.877 135.973 470.823 136.235 470.749 136.512H466.045C466.066 137.173 466.231 137.669 466.541 138C466.85 138.331 467.346 138.496 468.029 138.496C468.391 138.496 468.765 138.453 469.149 138.368C469.543 138.283 469.949 138.155 470.365 137.984L470.893 139.536ZM467.677 133.28C467.186 133.28 466.802 133.44 466.525 133.76C466.258 134.069 466.103 134.517 466.061 135.104H469.133C469.143 135.051 469.149 135.003 469.149 134.96C469.149 134.907 469.149 134.859 469.149 134.816C469.149 134.304 469.005 133.92 468.717 133.664C468.429 133.408 468.082 133.28 467.677 133.28Z" fill="black"/>
<path d="M125.287 210V206.966L131.653 201.392C132.131 200.96 132.537 200.565 132.872 200.207C133.207 199.844 133.463 199.48 133.639 199.116C133.815 198.747 133.903 198.347 133.903 197.915C133.903 197.432 133.798 197.02 133.588 196.679C133.378 196.332 133.088 196.065 132.719 195.878C132.349 195.69 131.926 195.597 131.449 195.597C130.966 195.597 130.543 195.696 130.179 195.895C129.815 196.088 129.531 196.369 129.327 196.739C129.128 197.108 129.028 197.557 129.028 198.085H125.031C125.031 196.898 125.298 195.872 125.832 195.009C126.366 194.145 127.116 193.48 128.082 193.014C129.054 192.543 130.182 192.307 131.466 192.307C132.79 192.307 133.94 192.528 134.918 192.972C135.895 193.415 136.651 194.034 137.185 194.83C137.724 195.619 137.994 196.537 137.994 197.582C137.994 198.247 137.861 198.906 137.594 199.56C137.327 200.213 136.847 200.935 136.153 201.724C135.466 202.514 134.489 203.46 133.222 204.562L131.134 206.489V206.599H138.207V210H125.287ZM147.41 210.239C146.052 210.239 144.839 210.023 143.771 209.591C142.708 209.153 141.873 208.562 141.265 207.818C140.663 207.068 140.362 206.222 140.362 205.278C140.362 204.557 140.535 203.895 140.881 203.293C141.228 202.69 141.697 202.19 142.288 201.793C142.884 201.389 143.549 201.131 144.282 201.017V200.881C143.322 200.705 142.535 200.259 141.921 199.543C141.313 198.827 141.009 197.989 141.009 197.028C141.009 196.119 141.285 195.31 141.836 194.599C142.393 193.889 143.151 193.33 144.112 192.92C145.077 192.511 146.177 192.307 147.41 192.307C148.643 192.307 149.739 192.511 150.7 192.92C151.665 193.33 152.424 193.889 152.975 194.599C153.532 195.31 153.81 196.119 153.81 197.028C153.81 197.994 153.501 198.835 152.881 199.551C152.268 200.261 151.487 200.705 150.538 200.881V201.017C151.265 201.131 151.924 201.389 152.515 201.793C153.112 202.19 153.583 202.69 153.93 203.293C154.282 203.895 154.458 204.557 154.458 205.278C154.458 206.222 154.154 207.068 153.546 207.818C152.938 208.562 152.103 209.153 151.04 209.591C149.984 210.023 148.773 210.239 147.41 210.239ZM147.41 207.247C147.927 207.247 148.381 207.151 148.773 206.957C149.165 206.759 149.472 206.483 149.694 206.131C149.921 205.778 150.035 205.381 150.035 204.938C150.035 204.483 149.921 204.08 149.694 203.727C149.467 203.375 149.154 203.099 148.756 202.901C148.364 202.696 147.915 202.594 147.41 202.594C146.91 202.594 146.461 202.696 146.063 202.901C145.665 203.099 145.353 203.375 145.126 203.727C144.898 204.08 144.785 204.483 144.785 204.938C144.785 205.381 144.896 205.778 145.117 206.131C145.344 206.477 145.654 206.75 146.046 206.949C146.444 207.148 146.898 207.247 147.41 207.247ZM147.41 199.619C147.853 199.619 148.245 199.528 148.586 199.347C148.933 199.165 149.202 198.912 149.396 198.588C149.594 198.264 149.694 197.898 149.694 197.489C149.694 197.08 149.594 196.719 149.396 196.406C149.202 196.094 148.935 195.849 148.594 195.673C148.254 195.491 147.859 195.401 147.41 195.401C146.967 195.401 146.572 195.491 146.225 195.673C145.879 195.849 145.609 196.094 145.415 196.406C145.222 196.719 145.126 197.08 145.126 197.489C145.126 197.898 145.222 198.264 145.415 198.588C145.614 198.906 145.887 199.159 146.234 199.347C146.58 199.528 146.972 199.619 147.41 199.619ZM163.381 192.307C164.336 192.307 165.248 192.463 166.117 192.776C166.987 193.082 167.762 193.574 168.444 194.25C169.126 194.92 169.663 195.804 170.055 196.901C170.447 197.997 170.643 199.335 170.643 200.915C170.648 202.369 170.478 203.673 170.131 204.827C169.785 205.974 169.288 206.952 168.64 207.759C167.998 208.565 167.225 209.182 166.322 209.608C165.418 210.028 164.41 210.239 163.296 210.239C162.069 210.239 160.987 210.003 160.049 209.531C159.117 209.054 158.37 208.412 157.808 207.605C157.251 206.798 156.918 205.895 156.81 204.895H160.961C161.092 205.474 161.367 205.912 161.788 206.207C162.208 206.497 162.711 206.642 163.296 206.642C164.364 206.642 165.163 206.179 165.691 205.253C166.219 204.327 166.484 203.068 166.484 201.477H166.381C166.137 202 165.79 202.449 165.342 202.824C164.898 203.199 164.384 203.486 163.799 203.685C163.214 203.884 162.597 203.983 161.95 203.983C160.904 203.983 159.981 203.744 159.18 203.267C158.384 202.79 157.759 202.134 157.305 201.298C156.856 200.463 156.629 199.509 156.623 198.435C156.617 197.23 156.898 196.168 157.467 195.247C158.035 194.321 158.827 193.599 159.844 193.082C160.862 192.56 162.04 192.301 163.381 192.307ZM163.407 195.545C162.884 195.545 162.418 195.668 162.009 195.912C161.606 196.156 161.288 196.486 161.055 196.901C160.822 197.315 160.708 197.781 160.714 198.298C160.719 198.815 160.836 199.281 161.063 199.696C161.296 200.111 161.612 200.44 162.009 200.685C162.413 200.929 162.873 201.051 163.39 201.051C163.776 201.051 164.134 200.98 164.464 200.838C164.793 200.696 165.08 200.5 165.325 200.25C165.569 199.994 165.759 199.699 165.896 199.364C166.038 199.028 166.106 198.67 166.1 198.29C166.094 197.784 165.975 197.324 165.742 196.909C165.509 196.494 165.188 196.165 164.779 195.92C164.376 195.67 163.918 195.545 163.407 195.545Z" fill="black"/>
<path d="M436.163 223.861V220.297L443.91 208.091H447.077V212.929H445.239L440.706 220.112V220.26H451.924V223.861H436.163ZM445.295 227V222.771L445.387 221.211V208.091H449.662V227H445.295ZM454.32 227V223.713L461.217 217.675C461.734 217.207 462.174 216.779 462.537 216.391C462.9 215.997 463.177 215.603 463.368 215.21C463.559 214.809 463.654 214.375 463.654 213.908C463.654 213.384 463.541 212.938 463.313 212.569C463.085 212.193 462.771 211.904 462.371 211.701C461.971 211.498 461.512 211.396 460.995 211.396C460.472 211.396 460.014 211.504 459.62 211.719C459.226 211.929 458.918 212.233 458.696 212.634C458.481 213.034 458.373 213.52 458.373 214.092H454.043C454.043 212.806 454.332 211.695 454.911 210.759C455.489 209.824 456.302 209.103 457.348 208.599C458.401 208.088 459.623 207.832 461.014 207.832C462.448 207.832 463.694 208.072 464.753 208.553C465.812 209.033 466.631 209.704 467.209 210.565C467.794 211.421 468.086 212.415 468.086 213.548C468.086 214.268 467.942 214.982 467.652 215.69C467.363 216.397 466.843 217.179 466.092 218.035C465.347 218.89 464.288 219.915 462.916 221.109L460.654 223.196V223.316H468.317V227H454.32Z" fill="black"/>
<path d="M487.358 300.545V318H483.148V304.483H483.045L479.142 306.869V303.222L483.446 300.545H487.358ZM497.898 318.239C496.626 318.239 495.495 318.009 494.506 317.548C493.518 317.088 492.737 316.455 492.163 315.648C491.594 314.841 491.299 313.915 491.276 312.869H495.367C495.401 313.511 495.663 314.028 496.151 314.42C496.64 314.807 497.222 315 497.898 315C498.427 315 498.896 314.884 499.305 314.651C499.714 314.418 500.035 314.091 500.268 313.67C500.501 313.244 500.614 312.756 500.609 312.205C500.614 311.642 500.498 311.151 500.259 310.73C500.026 310.31 499.702 309.983 499.288 309.75C498.879 309.511 498.407 309.392 497.873 309.392C497.367 309.386 496.887 309.497 496.433 309.724C495.984 309.952 495.643 310.261 495.41 310.653L491.685 309.955L492.444 300.545H503.643V303.946H495.913L495.512 308.062H495.614C495.904 307.58 496.37 307.182 497.012 306.869C497.66 306.551 498.396 306.392 499.219 306.392C500.265 306.392 501.197 306.636 502.015 307.125C502.839 307.608 503.487 308.278 503.958 309.136C504.435 309.994 504.674 310.977 504.674 312.085C504.674 313.284 504.39 314.347 503.822 315.273C503.259 316.199 502.469 316.926 501.452 317.455C500.441 317.977 499.256 318.239 497.898 318.239Z" fill="black"/>
<defs>
<filter id="filter0_f_551_3" x="0" y="0" width="593.891" height="417" filterUnits="userSpaceOnUse" color-interpolation-filters="sRGB">
<feFlood flood-opacity="0" result="BackgroundImageFix"/>
<feBlend mode="normal" in="SourceGraphic" in2="BackgroundImageFix" result="shape"/>
<feGaussianBlur stdDeviation="30" result="effect1_foregroundBlur_551_3"/>
</filter>
<linearGradient id="paint0_linear_551_3" x1="77.9922" y1="96.3452" x2="515.91" y2="96.3452" gradientUnits="userSpaceOnUse">
<stop stop-opacity="0"/>
<stop offset="0.15" stop-opacity="0.5"/>
<stop offset="0.5"/>
<stop offset="0.85" stop-opacity="0.5"/>
<stop offset="1" stop-opacity="0"/>
</linearGradient>
</defs>
</svg>
