<svg width="726" height="526" viewBox="0 0 726 526" fill="none" xmlns="http://www.w3.org/2000/svg">
<g filter="url(#filter0_f_551_3)">
<rect x="60" y="60" width="606" height="406" rx="16" fill="black" fill-opacity="0.1"/>
</g>
<rect x="63" y="63" width="600" height="400" rx="16" fill="white"/>
<path d="M267.032 94L266.108 91.074H260.982L260.058 94H257.44L262.434 79.04H264.766L269.782 94H267.032ZM262.412 86.498L261.73 88.654H265.338L264.656 86.498L263.556 82.714L262.412 86.498ZM278.886 93.626C278.505 93.802 278.065 93.9413 277.566 94.044C277.067 94.1613 276.561 94.22 276.048 94.22C275.197 94.22 274.515 94.044 274.002 93.692C273.489 93.34 273.115 92.8487 272.88 92.218C272.66 91.5873 272.55 90.8687 272.55 90.062V85.046H270.746V82.846H272.55V79.942H275.08V82.846H278.556V85.046H275.08V90.062C275.08 90.7367 275.205 91.206 275.454 91.47C275.718 91.7193 276.092 91.844 276.576 91.844C276.811 91.844 277.06 91.822 277.324 91.778C277.603 91.7193 277.911 91.624 278.248 91.492L278.886 93.626ZM288.07 93.626C287.689 93.802 287.249 93.9413 286.75 94.044C286.252 94.1613 285.746 94.22 285.232 94.22C284.382 94.22 283.7 94.044 283.186 93.692C282.673 93.34 282.299 92.8487 282.064 92.218C281.844 91.5873 281.734 90.8687 281.734 90.062V85.046H279.93V82.846H281.734V79.942H284.264V82.846H287.74V85.046H284.264V90.062C284.264 90.7367 284.389 91.206 284.638 91.47C284.902 91.7193 285.276 91.844 285.76 91.844C285.995 91.844 286.244 91.822 286.508 91.778C286.787 91.7193 287.095 91.624 287.432 91.492L288.07 93.626ZM299.014 93.362C298.252 93.67 297.533 93.89 296.858 94.022C296.184 94.154 295.546 94.22 294.944 94.22C293.287 94.22 292.033 93.7507 291.182 92.812C290.332 91.8733 289.906 90.6267 289.906 89.072V87.752C289.906 86.7107 290.097 85.8087 290.478 85.046C290.86 84.2833 291.402 83.6893 292.106 83.264C292.81 82.8387 293.639 82.626 294.592 82.626C295.37 82.626 296.096 82.7873 296.77 83.11C297.46 83.418 298.017 83.9093 298.442 84.584C298.882 85.244 299.102 86.0947 299.102 87.136C299.102 87.444 299.08 87.774 299.036 88.126C298.992 88.4633 298.919 88.8227 298.816 89.204H292.348C292.378 90.1133 292.605 90.7953 293.03 91.25C293.456 91.7047 294.138 91.932 295.076 91.932C295.575 91.932 296.088 91.8733 296.616 91.756C297.159 91.6387 297.716 91.4627 298.288 91.228L299.014 93.362ZM294.592 84.76C293.918 84.76 293.39 84.98 293.008 85.42C292.642 85.8453 292.429 86.4613 292.37 87.268H296.594C296.609 87.1947 296.616 87.1287 296.616 87.07C296.616 86.9967 296.616 86.9307 296.616 86.872C296.616 86.168 296.418 85.64 296.022 85.288C295.626 84.936 295.15 84.76 294.592 84.76ZM307.913 84.98C307.546 84.98 307.128 85.068 306.659 85.244C306.19 85.42 305.632 85.7647 304.987 86.278V94H302.457V82.846H304.855V84.342C305.544 83.7407 306.197 83.308 306.813 83.044C307.429 82.7653 308.052 82.626 308.683 82.626C309.754 82.626 310.568 82.9707 311.125 83.66C311.682 84.3347 311.961 85.288 311.961 86.52V94H309.431V86.828C309.431 85.596 308.925 84.98 307.913 84.98ZM322.279 94V92.482C321.604 93.1567 321.017 93.6187 320.519 93.868C320.035 94.1027 319.529 94.22 319.001 94.22C317.798 94.22 316.859 93.7653 316.185 92.856C315.525 91.9467 315.195 90.6707 315.195 89.028V87.84C315.195 86.2413 315.598 84.9727 316.405 84.034C317.211 83.0953 318.377 82.626 319.903 82.626C320.284 82.626 320.658 82.6627 321.025 82.736C321.406 82.8093 321.78 82.912 322.147 83.044V77.72H324.677V94H322.279ZM317.791 89.028C317.791 90.0107 317.952 90.7293 318.275 91.184C318.612 91.6387 319.081 91.866 319.683 91.866C320.02 91.866 320.379 91.7707 320.761 91.58C321.142 91.3747 321.604 90.9933 322.147 90.436V85.332C321.428 85.0387 320.768 84.892 320.167 84.892C319.316 84.892 318.707 85.156 318.341 85.684C317.974 86.212 317.791 86.9307 317.791 87.84V89.028ZM337.051 94.11C336.303 94.11 335.701 93.956 335.247 93.648C334.807 93.34 334.484 92.9587 334.279 92.504C333.648 93.0907 333.039 93.5233 332.453 93.802C331.866 94.0807 331.235 94.22 330.561 94.22C329.578 94.22 328.852 93.9047 328.383 93.274C327.928 92.6433 327.701 91.844 327.701 90.876C327.701 90.2307 327.818 89.666 328.053 89.182C328.302 88.6833 328.705 88.2947 329.263 88.016C329.82 87.7373 330.583 87.598 331.551 87.598C331.932 87.598 332.328 87.6273 332.739 87.686C333.149 87.73 333.56 87.7887 333.971 87.862V86.564C333.971 85.948 333.802 85.53 333.465 85.31C333.127 85.0753 332.673 84.958 332.101 84.958C331.661 84.958 331.177 85.0167 330.649 85.134C330.135 85.2513 329.578 85.4347 328.977 85.684L328.251 83.528C329.732 82.9267 331.074 82.626 332.277 82.626C333.362 82.626 334.198 82.8093 334.785 83.176C335.386 83.5427 335.804 84.0267 336.039 84.628C336.273 85.2293 336.391 85.8747 336.391 86.564V90.854C336.391 91.074 336.449 91.2867 336.567 91.492C336.699 91.6827 336.948 91.778 337.315 91.778H337.557V94.11H337.051ZM330.143 90.832C330.143 91.228 330.231 91.5433 330.407 91.778C330.583 91.998 330.839 92.108 331.177 92.108C331.514 92.108 331.895 92.02 332.321 91.844C332.746 91.668 333.296 91.2573 333.971 90.612V89.666C333.208 89.534 332.46 89.468 331.727 89.468C331.155 89.468 330.744 89.5853 330.495 89.82C330.26 90.0547 330.143 90.392 330.143 90.832ZM345.649 84.98C345.282 84.98 344.864 85.068 344.395 85.244C343.926 85.42 343.368 85.7647 342.723 86.278V94H340.193V82.846H342.591V84.342C343.28 83.7407 343.933 83.308 344.549 83.044C345.165 82.7653 345.788 82.626 346.419 82.626C347.49 82.626 348.304 82.9707 348.861 83.66C349.418 84.3347 349.697 85.288 349.697 86.52V94H347.167V86.828C347.167 85.596 346.661 84.98 345.649 84.98ZM355.417 87.774V89.072C355.417 90.0107 355.585 90.7147 355.923 91.184C356.26 91.6533 356.803 91.888 357.551 91.888C357.917 91.888 358.328 91.844 358.783 91.756C359.252 91.6533 359.758 91.4993 360.301 91.294L361.027 93.428C360.367 93.692 359.743 93.89 359.157 94.022C358.57 94.154 357.991 94.22 357.419 94.22C355.952 94.22 354.83 93.7507 354.053 92.812C353.275 91.8733 352.887 90.6267 352.887 89.072V87.774C352.887 86.2047 353.275 84.958 354.053 84.034C354.83 83.0953 355.952 82.626 357.419 82.626C357.976 82.626 358.541 82.692 359.113 82.824C359.685 82.956 360.286 83.1467 360.917 83.396L360.191 85.574C359.135 85.1633 358.255 84.958 357.551 84.958C356.803 84.958 356.26 85.1927 355.923 85.662C355.585 86.1167 355.417 86.8207 355.417 87.774ZM372.252 93.362C371.489 93.67 370.771 93.89 370.096 94.022C369.421 94.154 368.783 94.22 368.182 94.22C366.525 94.22 365.271 93.7507 364.42 92.812C363.569 91.8733 363.144 90.6267 363.144 89.072V87.752C363.144 86.7107 363.335 85.8087 363.716 85.046C364.097 84.2833 364.64 83.6893 365.344 83.264C366.048 82.8387 366.877 82.626 367.83 82.626C368.607 82.626 369.333 82.7873 370.008 83.11C370.697 83.418 371.255 83.9093 371.68 84.584C372.12 85.244 372.34 86.0947 372.34 87.136C372.34 87.444 372.318 87.774 372.274 88.126C372.23 88.4633 372.157 88.8227 372.054 89.204H365.586C365.615 90.1133 365.843 90.7953 366.268 91.25C366.693 91.7047 367.375 91.932 368.314 91.932C368.813 91.932 369.326 91.8733 369.854 91.756C370.397 91.6387 370.954 91.4627 371.526 91.228L372.252 93.362ZM367.83 84.76C367.155 84.76 366.627 84.98 366.246 85.42C365.879 85.8453 365.667 86.4613 365.608 87.268H369.832C369.847 87.1947 369.854 87.1287 369.854 87.07C369.854 86.9967 369.854 86.9307 369.854 86.872C369.854 86.168 369.656 85.64 369.26 85.288C368.864 84.936 368.387 84.76 367.83 84.76ZM389.669 87.752V89.072C389.669 90.6267 389.244 91.8733 388.393 92.812C387.542 93.7507 386.34 94.22 384.785 94.22C383.23 94.22 382.028 93.7507 381.177 92.812C380.326 91.8733 379.901 90.6267 379.901 89.072V87.752C379.901 86.1973 380.319 84.958 381.155 84.034C382.006 83.0953 383.216 82.626 384.785 82.626C386.354 82.626 387.557 83.0953 388.393 84.034C389.244 84.958 389.669 86.1973 389.669 87.752ZM387.073 87.752C387.073 86.8573 386.875 86.1607 386.479 85.662C386.083 85.1487 385.518 84.892 384.785 84.892C384.052 84.892 383.487 85.1487 383.091 85.662C382.695 86.1607 382.497 86.8573 382.497 87.752V89.072C382.497 89.9667 382.695 90.6707 383.091 91.184C383.487 91.6973 384.052 91.954 384.785 91.954C385.518 91.954 386.083 91.6973 386.479 91.184C386.875 90.6707 387.073 89.9667 387.073 89.072V87.752ZM401.597 82.846L397.637 94H395.327L391.367 82.846H393.919L395.833 88.412L396.559 90.722L397.263 88.412L399.089 82.846H401.597ZM412.405 93.362C411.642 93.67 410.923 93.89 410.249 94.022C409.574 94.154 408.936 94.22 408.335 94.22C406.677 94.22 405.423 93.7507 404.573 92.812C403.722 91.8733 403.297 90.6267 403.297 89.072V87.752C403.297 86.7107 403.487 85.8087 403.869 85.046C404.25 84.2833 404.793 83.6893 405.497 83.264C406.201 82.8387 407.029 82.626 407.983 82.626C408.76 82.626 409.486 82.7873 410.161 83.11C410.85 83.418 411.407 83.9093 411.833 84.584C412.273 85.244 412.493 86.0947 412.493 87.136C412.493 87.444 412.471 87.774 412.427 88.126C412.383 88.4633 412.309 88.8227 412.207 89.204H405.739C405.768 90.1133 405.995 90.7953 406.421 91.25C406.846 91.7047 407.528 91.932 408.467 91.932C408.965 91.932 409.479 91.8733 410.007 91.756C410.549 91.6387 411.107 91.4627 411.679 91.228L412.405 93.362ZM407.983 84.76C407.308 84.76 406.78 84.98 406.399 85.42C406.032 85.8453 405.819 86.4613 405.761 87.268H409.985C409.999 87.1947 410.007 87.1287 410.007 87.07C410.007 86.9967 410.007 86.9307 410.007 86.872C410.007 86.168 409.809 85.64 409.413 85.288C409.017 84.936 408.54 84.76 407.983 84.76ZM422.139 85.156C421.45 85.156 420.79 85.266 420.159 85.486C419.543 85.6913 418.949 86.0287 418.377 86.498V94H415.847V82.846H418.245V84.562C418.993 83.858 419.661 83.3593 420.247 83.066C420.834 82.7727 421.465 82.626 422.139 82.626V85.156ZM433.661 82.846L429.701 94H427.391L423.431 82.846H425.983L427.897 88.412L428.623 90.722L429.327 88.412L431.153 82.846H433.661ZM438.81 80.734H436.148V78.116H438.81V80.734ZM438.744 94H436.214V82.846H438.744V94ZM451.139 93.362C450.377 93.67 449.658 93.89 448.983 94.022C448.309 94.154 447.671 94.22 447.069 94.22C445.412 94.22 444.158 93.7507 443.307 92.812C442.457 91.8733 442.031 90.6267 442.031 89.072V87.752C442.031 86.7107 442.222 85.8087 442.603 85.046C442.985 84.2833 443.527 83.6893 444.231 83.264C444.935 82.8387 445.764 82.626 446.717 82.626C447.495 82.626 448.221 82.7873 448.895 83.11C449.585 83.418 450.142 83.9093 450.567 84.584C451.007 85.244 451.227 86.0947 451.227 87.136C451.227 87.444 451.205 87.774 451.161 88.126C451.117 88.4633 451.044 88.8227 450.941 89.204H444.473C444.503 90.1133 444.73 90.7953 445.155 91.25C445.581 91.7047 446.263 91.932 447.201 91.932C447.7 91.932 448.213 91.8733 448.741 91.756C449.284 91.6387 449.841 91.4627 450.413 91.228L451.139 93.362ZM446.717 84.76C446.043 84.76 445.515 84.98 445.133 85.42C444.767 85.8453 444.554 86.4613 444.495 87.268H448.719C448.734 87.1947 448.741 87.1287 448.741 87.07C448.741 86.9967 448.741 86.9307 448.741 86.872C448.741 86.168 448.543 85.64 448.147 85.288C447.751 84.936 447.275 84.76 446.717 84.76ZM468.356 82.846L465.496 94H462.746L460.898 85.618L458.94 94H456.19L453.33 82.846H455.926L457.004 87.268L457.752 91.294L459.644 82.846H462.196L464.154 91.382L464.858 87.29L465.914 82.846H468.356Z" fill="black"/>
<path d="M83 109H643" stroke="url(#paint0_linear_551_3)" stroke-width="1.6" stroke-linecap="round"/>
<path fill-rule="evenodd" clip-rule="evenodd" d="M457.277 232.167C428.703 218.594 396.738 211 363 211C241.498 211 143 309.497 143 431H223C223 353.68 285.68 291 363 291C384.465 291 404.803 295.831 422.982 304.464L457.277 232.167Z" fill="#00D021"/>
<path fill-rule="evenodd" clip-rule="evenodd" d="M503.281 431.418H583.281C583.281 408.637 579.819 386.666 573.392 366L496 386.737C500.722 400.769 503.281 415.794 503.281 431.418Z" fill="#848484"/>
<path fill-rule="evenodd" clip-rule="evenodd" d="M495.718 386.593L573.111 365.856C554.766 306.932 512.315 258.634 457.296 232.5L423 304.797C457.058 320.969 483.549 350.487 495.718 386.593Z" fill="#C01F1F"/>
<circle cx="109" cy="144" r="6" fill="#00D021"/>
<path d="M124.692 151V138.76H128.724C130.008 138.76 130.968 139.084 131.604 139.732C132.252 140.38 132.576 141.244 132.576 142.324V143.278C132.576 144.358 132.252 145.228 131.604 145.888C130.968 146.536 130.008 146.86 128.724 146.86H126.852V151H124.692ZM128.724 140.83H126.852V144.79H128.724C129.252 144.79 129.654 144.658 129.93 144.394C130.218 144.13 130.362 143.758 130.362 143.278V142.324C130.362 141.856 130.218 141.49 129.93 141.226C129.654 140.962 129.252 140.83 128.724 140.83ZM139.73 143.764C139.166 143.764 138.626 143.854 138.11 144.034C137.606 144.202 137.12 144.478 136.652 144.862V151H134.582V141.874H136.544V143.278C137.156 142.702 137.702 142.294 138.182 142.054C138.662 141.814 139.178 141.694 139.73 141.694V143.764ZM148.473 150.478C147.849 150.73 147.261 150.91 146.709 151.018C146.157 151.126 145.635 151.18 145.143 151.18C143.787 151.18 142.761 150.796 142.065 150.028C141.369 149.26 141.021 148.24 141.021 146.968V145.888C141.021 145.036 141.177 144.298 141.489 143.674C141.801 143.05 142.245 142.564 142.821 142.216C143.397 141.868 144.075 141.694 144.855 141.694C145.491 141.694 146.085 141.826 146.637 142.09C147.201 142.342 147.657 142.744 148.005 143.296C148.365 143.836 148.545 144.532 148.545 145.384C148.545 145.636 148.527 145.906 148.491 146.194C148.455 146.47 148.395 146.764 148.311 147.076H143.019C143.043 147.82 143.229 148.378 143.577 148.75C143.925 149.122 144.483 149.308 145.251 149.308C145.659 149.308 146.079 149.26 146.511 149.164C146.955 149.068 147.411 148.924 147.879 148.732L148.473 150.478ZM144.855 143.44C144.303 143.44 143.871 143.62 143.559 143.98C143.259 144.328 143.085 144.832 143.037 145.492H146.493C146.505 145.432 146.511 145.378 146.511 145.33C146.511 145.27 146.511 145.216 146.511 145.168C146.511 144.592 146.349 144.16 146.025 143.872C145.701 143.584 145.311 143.44 144.855 143.44ZM153.486 149.38C153.93 149.38 154.296 149.308 154.584 149.164C154.872 149.008 155.016 148.78 155.016 148.48C155.016 148.216 154.92 148.012 154.728 147.868C154.548 147.712 154.218 147.574 153.738 147.454L152.712 147.184C151.92 146.98 151.332 146.638 150.948 146.158C150.576 145.678 150.39 145.108 150.39 144.448C150.39 143.668 150.66 143.014 151.2 142.486C151.74 141.958 152.574 141.694 153.702 141.694C154.158 141.694 154.638 141.748 155.142 141.856C155.646 141.964 156.174 142.138 156.726 142.378L156.132 144.142C155.628 143.902 155.172 143.734 154.764 143.638C154.356 143.542 153.996 143.494 153.684 143.494C152.832 143.494 152.406 143.782 152.406 144.358C152.406 144.586 152.478 144.766 152.622 144.898C152.778 145.03 153.06 145.15 153.468 145.258L154.494 145.528C155.37 145.756 156.006 146.104 156.402 146.572C156.81 147.04 157.014 147.628 157.014 148.336C157.014 149.176 156.726 149.86 156.15 150.388C155.586 150.916 154.692 151.18 153.468 151.18C152.424 151.18 151.326 150.94 150.174 150.46L150.732 148.75C151.296 148.978 151.806 149.14 152.262 149.236C152.718 149.332 153.126 149.38 153.486 149.38ZM166.069 150.478C165.445 150.73 164.857 150.91 164.305 151.018C163.753 151.126 163.231 151.18 162.739 151.18C161.383 151.18 160.357 150.796 159.661 150.028C158.965 149.26 158.617 148.24 158.617 146.968V145.888C158.617 145.036 158.773 144.298 159.085 143.674C159.397 143.05 159.841 142.564 160.417 142.216C160.993 141.868 161.671 141.694 162.451 141.694C163.087 141.694 163.681 141.826 164.233 142.09C164.797 142.342 165.253 142.744 165.601 143.296C165.961 143.836 166.141 144.532 166.141 145.384C166.141 145.636 166.123 145.906 166.087 146.194C166.051 146.47 165.991 146.764 165.907 147.076H160.615C160.639 147.82 160.825 148.378 161.173 148.75C161.521 149.122 162.079 149.308 162.847 149.308C163.255 149.308 163.675 149.26 164.107 149.164C164.551 149.068 165.007 148.924 165.475 148.732L166.069 150.478ZM162.451 143.44C161.899 143.44 161.467 143.62 161.155 143.98C160.855 144.328 160.681 144.832 160.633 145.492H164.089C164.101 145.432 164.107 145.378 164.107 145.33C164.107 145.27 164.107 145.216 164.107 145.168C164.107 144.592 163.945 144.16 163.621 143.872C163.297 143.584 162.907 143.44 162.451 143.44ZM172.99 143.62C172.69 143.62 172.348 143.692 171.964 143.836C171.58 143.98 171.124 144.262 170.596 144.682V151H168.526V141.874H170.488V143.098C171.052 142.606 171.586 142.252 172.09 142.036C172.594 141.808 173.104 141.694 173.62 141.694C174.496 141.694 175.162 141.976 175.618 142.54C176.074 143.092 176.302 143.872 176.302 144.88V151H174.232V145.132C174.232 144.124 173.818 143.62 172.99 143.62ZM184.527 150.694C184.215 150.838 183.855 150.952 183.447 151.036C183.039 151.132 182.625 151.18 182.205 151.18C181.509 151.18 180.951 151.036 180.531 150.748C180.111 150.46 179.805 150.058 179.613 149.542C179.433 149.026 179.343 148.438 179.343 147.778V143.674H177.867V141.874H179.343V139.498H181.413V141.874H184.257V143.674H181.413V147.778C181.413 148.33 181.515 148.714 181.719 148.93C181.935 149.134 182.241 149.236 182.637 149.236C182.829 149.236 183.033 149.218 183.249 149.182C183.477 149.134 183.729 149.056 184.005 148.948L184.527 150.694ZM195.285 150.694C194.973 150.838 194.613 150.952 194.205 151.036C193.797 151.132 193.383 151.18 192.963 151.18C192.267 151.18 191.709 151.036 191.289 150.748C190.869 150.46 190.563 150.058 190.371 149.542C190.191 149.026 190.101 148.438 190.101 147.778V143.674H188.625V141.874H190.101V139.498H192.171V141.874H195.015V143.674H192.171V147.778C192.171 148.33 192.273 148.714 192.477 148.93C192.693 149.134 192.999 149.236 193.395 149.236C193.587 149.236 193.791 149.218 194.007 149.182C194.235 149.134 194.487 149.056 194.763 148.948L195.285 150.694ZM204.419 145.888V146.968C204.419 148.24 204.071 149.26 203.375 150.028C202.679 150.796 201.695 151.18 200.423 151.18C199.151 151.18 198.167 150.796 197.471 150.028C196.775 149.26 196.427 148.24 196.427 146.968V145.888C196.427 144.616 196.769 143.602 197.453 142.846C198.149 142.078 199.139 141.694 200.423 141.694C201.707 141.694 202.691 142.078 203.375 142.846C204.071 143.602 204.419 144.616 204.419 145.888ZM202.295 145.888C202.295 145.156 202.133 144.586 201.809 144.178C201.485 143.758 201.023 143.548 200.423 143.548C199.823 143.548 199.361 143.758 199.037 144.178C198.713 144.586 198.551 145.156 198.551 145.888V146.968C198.551 147.7 198.713 148.276 199.037 148.696C199.361 149.116 199.823 149.326 200.423 149.326C201.023 149.326 201.485 149.116 201.809 148.696C202.133 148.276 202.295 147.7 202.295 146.968V145.888ZM212.086 151V149.758C211.534 150.31 211.054 150.688 210.646 150.892C210.25 151.084 209.836 151.18 209.404 151.18C208.42 151.18 207.652 150.808 207.1 150.064C206.56 149.32 206.29 148.276 206.29 146.932V145.96C206.29 144.652 206.62 143.614 207.28 142.846C207.94 142.078 208.894 141.694 210.142 141.694C210.454 141.694 210.76 141.724 211.06 141.784C211.372 141.844 211.678 141.928 211.978 142.036V137.68H214.048V151H212.086ZM208.414 146.932C208.414 147.736 208.546 148.324 208.81 148.696C209.086 149.068 209.47 149.254 209.962 149.254C210.238 149.254 210.532 149.176 210.844 149.02C211.156 148.852 211.534 148.54 211.978 148.084V143.908C211.39 143.668 210.85 143.548 210.358 143.548C209.662 143.548 209.164 143.764 208.864 144.196C208.564 144.628 208.414 145.216 208.414 145.96V146.932ZM223.813 151.09C223.201 151.09 222.709 150.964 222.337 150.712C221.977 150.46 221.713 150.148 221.545 149.776C221.029 150.256 220.531 150.61 220.051 150.838C219.571 151.066 219.055 151.18 218.503 151.18C217.699 151.18 217.105 150.922 216.721 150.406C216.349 149.89 216.163 149.236 216.163 148.444C216.163 147.916 216.259 147.454 216.451 147.058C216.655 146.65 216.985 146.332 217.441 146.104C217.897 145.876 218.521 145.762 219.313 145.762C219.625 145.762 219.949 145.786 220.285 145.834C220.621 145.87 220.957 145.918 221.293 145.978V144.916C221.293 144.412 221.155 144.07 220.879 143.89C220.603 143.698 220.231 143.602 219.763 143.602C219.403 143.602 219.007 143.65 218.575 143.746C218.155 143.842 217.699 143.992 217.207 144.196L216.613 142.432C217.825 141.94 218.923 141.694 219.907 141.694C220.795 141.694 221.479 141.844 221.959 142.144C222.451 142.444 222.793 142.84 222.985 143.332C223.177 143.824 223.273 144.352 223.273 144.916V148.426C223.273 148.606 223.321 148.78 223.417 148.948C223.525 149.104 223.729 149.182 224.029 149.182H224.227V151.09H223.813ZM218.161 148.408C218.161 148.732 218.233 148.99 218.377 149.182C218.521 149.362 218.731 149.452 219.007 149.452C219.283 149.452 219.595 149.38 219.943 149.236C220.291 149.092 220.741 148.756 221.293 148.228V147.454C220.669 147.346 220.057 147.292 219.457 147.292C218.989 147.292 218.653 147.388 218.449 147.58C218.257 147.772 218.161 148.048 218.161 148.408ZM229.45 151.9C229.054 153.004 228.55 153.796 227.938 154.276C227.326 154.768 226.486 155.014 225.418 155.014V152.944C226.054 152.92 226.552 152.776 226.912 152.512C227.284 152.26 227.56 151.906 227.74 151.45L227.902 151.036L224.644 141.874H226.696L228.262 146.428L228.874 148.354L229.468 146.428L230.962 141.874H233.014L229.45 151.9Z" fill="black"/>
<circle cx="320" cy="144" r="6" fill="#C01F1F"/>
<path d="M342.208 151L341.452 148.606H337.258L336.502 151H334.36L338.446 138.76H340.354L344.458 151H342.208ZM338.428 144.862L337.87 146.626H340.822L340.264 144.862L339.364 141.766L338.428 144.862ZM353.919 146.914C353.919 148.222 353.595 149.26 352.947 150.028C352.299 150.796 351.351 151.18 350.103 151.18C348.807 151.18 347.493 150.82 346.161 150.1V137.68H348.231V143.08C348.783 142.528 349.257 142.162 349.653 141.982C350.049 141.79 350.457 141.694 350.877 141.694C351.837 141.694 352.581 142.066 353.109 142.81C353.649 143.554 353.919 144.598 353.919 145.942V146.914ZM350.319 143.62C350.031 143.62 349.725 143.704 349.401 143.872C349.089 144.04 348.699 144.37 348.231 144.862V148.948C348.555 149.08 348.849 149.176 349.113 149.236C349.389 149.296 349.659 149.326 349.923 149.326C350.595 149.326 351.075 149.11 351.363 148.678C351.651 148.246 351.795 147.658 351.795 146.914V145.942C351.795 145.138 351.663 144.55 351.399 144.178C351.147 143.806 350.787 143.62 350.319 143.62ZM358.861 149.38C359.305 149.38 359.671 149.308 359.959 149.164C360.247 149.008 360.391 148.78 360.391 148.48C360.391 148.216 360.295 148.012 360.103 147.868C359.923 147.712 359.593 147.574 359.113 147.454L358.087 147.184C357.295 146.98 356.707 146.638 356.323 146.158C355.951 145.678 355.765 145.108 355.765 144.448C355.765 143.668 356.035 143.014 356.575 142.486C357.115 141.958 357.949 141.694 359.077 141.694C359.533 141.694 360.013 141.748 360.517 141.856C361.021 141.964 361.549 142.138 362.101 142.378L361.507 144.142C361.003 143.902 360.547 143.734 360.139 143.638C359.731 143.542 359.371 143.494 359.059 143.494C358.207 143.494 357.781 143.782 357.781 144.358C357.781 144.586 357.853 144.766 357.997 144.898C358.153 145.03 358.435 145.15 358.843 145.258L359.869 145.528C360.745 145.756 361.381 146.104 361.777 146.572C362.185 147.04 362.389 147.628 362.389 148.336C362.389 149.176 362.101 149.86 361.525 150.388C360.961 150.916 360.067 151.18 358.843 151.18C357.799 151.18 356.701 150.94 355.549 150.46L356.107 148.75C356.671 148.978 357.181 149.14 357.637 149.236C358.093 149.332 358.501 149.38 358.861 149.38ZM371.444 150.478C370.82 150.73 370.232 150.91 369.68 151.018C369.128 151.126 368.606 151.18 368.114 151.18C366.758 151.18 365.732 150.796 365.036 150.028C364.34 149.26 363.992 148.24 363.992 146.968V145.888C363.992 145.036 364.148 144.298 364.46 143.674C364.772 143.05 365.216 142.564 365.792 142.216C366.368 141.868 367.046 141.694 367.826 141.694C368.462 141.694 369.056 141.826 369.608 142.09C370.172 142.342 370.628 142.744 370.976 143.296C371.336 143.836 371.516 144.532 371.516 145.384C371.516 145.636 371.498 145.906 371.462 146.194C371.426 146.47 371.366 146.764 371.282 147.076H365.99C366.014 147.82 366.2 148.378 366.548 148.75C366.896 149.122 367.454 149.308 368.222 149.308C368.63 149.308 369.05 149.26 369.482 149.164C369.926 149.068 370.382 148.924 370.85 148.732L371.444 150.478ZM367.826 143.44C367.274 143.44 366.842 143.62 366.53 143.98C366.23 144.328 366.056 144.832 366.008 145.492H369.464C369.476 145.432 369.482 145.378 369.482 145.33C369.482 145.27 369.482 145.216 369.482 145.168C369.482 144.592 369.32 144.16 368.996 143.872C368.672 143.584 368.282 143.44 367.826 143.44ZM378.365 143.62C378.065 143.62 377.723 143.692 377.339 143.836C376.955 143.98 376.499 144.262 375.971 144.682V151H373.901V141.874H375.863V143.098C376.427 142.606 376.961 142.252 377.465 142.036C377.969 141.808 378.479 141.694 378.995 141.694C379.871 141.694 380.537 141.976 380.993 142.54C381.449 143.092 381.677 143.872 381.677 144.88V151H379.607V145.132C379.607 144.124 379.193 143.62 378.365 143.62ZM389.902 150.694C389.59 150.838 389.23 150.952 388.822 151.036C388.414 151.132 388 151.18 387.58 151.18C386.884 151.18 386.326 151.036 385.906 150.748C385.486 150.46 385.18 150.058 384.988 149.542C384.808 149.026 384.718 148.438 384.718 147.778V143.674H383.242V141.874H384.718V139.498H386.788V141.874H389.632V143.674H386.788V147.778C386.788 148.33 386.89 148.714 387.094 148.93C387.31 149.134 387.616 149.236 388.012 149.236C388.204 149.236 388.408 149.218 388.624 149.182C388.852 149.134 389.104 149.056 389.38 148.948L389.902 150.694ZM400.66 150.694C400.348 150.838 399.988 150.952 399.58 151.036C399.172 151.132 398.758 151.18 398.338 151.18C397.642 151.18 397.084 151.036 396.664 150.748C396.244 150.46 395.938 150.058 395.746 149.542C395.566 149.026 395.476 148.438 395.476 147.778V143.674H394V141.874H395.476V139.498H397.546V141.874H400.39V143.674H397.546V147.778C397.546 148.33 397.648 148.714 397.852 148.93C398.068 149.134 398.374 149.236 398.77 149.236C398.962 149.236 399.166 149.218 399.382 149.182C399.61 149.134 399.862 149.056 400.138 148.948L400.66 150.694ZM409.794 145.888V146.968C409.794 148.24 409.446 149.26 408.75 150.028C408.054 150.796 407.07 151.18 405.798 151.18C404.526 151.18 403.542 150.796 402.846 150.028C402.15 149.26 401.802 148.24 401.802 146.968V145.888C401.802 144.616 402.144 143.602 402.828 142.846C403.524 142.078 404.514 141.694 405.798 141.694C407.082 141.694 408.066 142.078 408.75 142.846C409.446 143.602 409.794 144.616 409.794 145.888ZM407.67 145.888C407.67 145.156 407.508 144.586 407.184 144.178C406.86 143.758 406.398 143.548 405.798 143.548C405.198 143.548 404.736 143.758 404.412 144.178C404.088 144.586 403.926 145.156 403.926 145.888V146.968C403.926 147.7 404.088 148.276 404.412 148.696C404.736 149.116 405.198 149.326 405.798 149.326C406.398 149.326 406.86 149.116 407.184 148.696C407.508 148.276 407.67 147.7 407.67 146.968V145.888ZM417.461 151V149.758C416.909 150.31 416.429 150.688 416.021 150.892C415.625 151.084 415.211 151.18 414.779 151.18C413.795 151.18 413.027 150.808 412.475 150.064C411.935 149.32 411.665 148.276 411.665 146.932V145.96C411.665 144.652 411.995 143.614 412.655 142.846C413.315 142.078 414.269 141.694 415.517 141.694C415.829 141.694 416.135 141.724 416.435 141.784C416.747 141.844 417.053 141.928 417.353 142.036V137.68H419.423V151H417.461ZM413.789 146.932C413.789 147.736 413.921 148.324 414.185 148.696C414.461 149.068 414.845 149.254 415.337 149.254C415.613 149.254 415.907 149.176 416.219 149.02C416.531 148.852 416.909 148.54 417.353 148.084V143.908C416.765 143.668 416.225 143.548 415.733 143.548C415.037 143.548 414.539 143.764 414.239 144.196C413.939 144.628 413.789 145.216 413.789 145.96V146.932ZM429.188 151.09C428.576 151.09 428.084 150.964 427.712 150.712C427.352 150.46 427.088 150.148 426.92 149.776C426.404 150.256 425.906 150.61 425.426 150.838C424.946 151.066 424.43 151.18 423.878 151.18C423.074 151.18 422.48 150.922 422.096 150.406C421.724 149.89 421.538 149.236 421.538 148.444C421.538 147.916 421.634 147.454 421.826 147.058C422.03 146.65 422.36 146.332 422.816 146.104C423.272 145.876 423.896 145.762 424.688 145.762C425 145.762 425.324 145.786 425.66 145.834C425.996 145.87 426.332 145.918 426.668 145.978V144.916C426.668 144.412 426.53 144.07 426.254 143.89C425.978 143.698 425.606 143.602 425.138 143.602C424.778 143.602 424.382 143.65 423.95 143.746C423.53 143.842 423.074 143.992 422.582 144.196L421.988 142.432C423.2 141.94 424.298 141.694 425.282 141.694C426.17 141.694 426.854 141.844 427.334 142.144C427.826 142.444 428.168 142.84 428.36 143.332C428.552 143.824 428.648 144.352 428.648 144.916V148.426C428.648 148.606 428.696 148.78 428.792 148.948C428.9 149.104 429.104 149.182 429.404 149.182H429.602V151.09H429.188ZM423.536 148.408C423.536 148.732 423.608 148.99 423.752 149.182C423.896 149.362 424.106 149.452 424.382 149.452C424.658 149.452 424.97 149.38 425.318 149.236C425.666 149.092 426.116 148.756 426.668 148.228V147.454C426.044 147.346 425.432 147.292 424.832 147.292C424.364 147.292 424.028 147.388 423.824 147.58C423.632 147.772 423.536 148.048 423.536 148.408ZM434.825 151.9C434.429 153.004 433.925 153.796 433.313 154.276C432.701 154.768 431.861 155.014 430.793 155.014V152.944C431.429 152.92 431.927 152.776 432.287 152.512C432.659 152.26 432.935 151.906 433.115 151.45L433.277 151.036L430.019 141.874H432.071L433.637 146.428L434.249 148.354L434.843 146.428L436.337 141.874H438.389L434.825 151.9Z" fill="black"/>
<circle cx="525" cy="144" r="6" fill="#848484"/>
<path d="M549.35 143.584V146.158C549.35 147.718 548.96 148.948 548.18 149.848C547.4 150.736 546.26 151.18 544.76 151.18C543.248 151.18 542.102 150.736 541.322 149.848C540.554 148.948 540.17 147.718 540.17 146.158V143.584C540.17 142.024 540.554 140.8 541.322 139.912C542.102 139.024 543.248 138.58 544.76 138.58C546.26 138.58 547.4 139.024 548.18 139.912C548.96 140.8 549.35 142.024 549.35 143.584ZM547.136 143.584C547.136 142.6 546.944 141.862 546.56 141.37C546.176 140.866 545.576 140.614 544.76 140.614C543.944 140.614 543.344 140.866 542.96 141.37C542.576 141.862 542.384 142.6 542.384 143.584V146.158C542.384 147.142 542.576 147.886 542.96 148.39C543.344 148.894 543.944 149.146 544.76 149.146C545.576 149.146 546.176 148.894 546.56 148.39C546.944 147.886 547.136 147.142 547.136 146.158V143.584ZM556.4 143.62C556.1 143.62 555.758 143.692 555.374 143.836C554.99 143.98 554.534 144.262 554.006 144.682V151H551.936V141.874H553.898V143.098C554.462 142.606 554.996 142.252 555.5 142.036C556.004 141.808 556.514 141.694 557.03 141.694C557.906 141.694 558.572 141.976 559.028 142.54C559.484 143.092 559.712 143.872 559.712 144.88V151H557.642V145.132C557.642 144.124 557.228 143.62 556.4 143.62ZM565.997 148.426V137.68H568.067V148.426C568.067 148.606 568.109 148.78 568.193 148.948C568.289 149.104 568.469 149.182 568.733 149.182H569.021V151.09H568.517C567.833 151.09 567.311 150.958 566.951 150.694C566.591 150.43 566.339 150.094 566.195 149.686C566.063 149.278 565.997 148.858 565.997 148.426ZM577.956 150.478C577.332 150.73 576.744 150.91 576.192 151.018C575.64 151.126 575.118 151.18 574.626 151.18C573.27 151.18 572.244 150.796 571.548 150.028C570.852 149.26 570.504 148.24 570.504 146.968V145.888C570.504 145.036 570.66 144.298 570.972 143.674C571.284 143.05 571.728 142.564 572.304 142.216C572.88 141.868 573.558 141.694 574.338 141.694C574.974 141.694 575.568 141.826 576.12 142.09C576.684 142.342 577.14 142.744 577.488 143.296C577.848 143.836 578.028 144.532 578.028 145.384C578.028 145.636 578.01 145.906 577.974 146.194C577.938 146.47 577.878 146.764 577.794 147.076H572.502C572.526 147.82 572.712 148.378 573.06 148.75C573.408 149.122 573.966 149.308 574.734 149.308C575.142 149.308 575.562 149.26 575.994 149.164C576.438 149.068 576.894 148.924 577.362 148.732L577.956 150.478ZM574.338 143.44C573.786 143.44 573.354 143.62 573.042 143.98C572.742 144.328 572.568 144.832 572.52 145.492H575.976C575.988 145.432 575.994 145.378 575.994 145.33C575.994 145.27 575.994 145.216 575.994 145.168C575.994 144.592 575.832 144.16 575.508 143.872C575.184 143.584 574.794 143.44 574.338 143.44ZM587.324 151.09C586.712 151.09 586.22 150.964 585.848 150.712C585.488 150.46 585.224 150.148 585.056 149.776C584.54 150.256 584.042 150.61 583.562 150.838C583.082 151.066 582.566 151.18 582.014 151.18C581.21 151.18 580.616 150.922 580.232 150.406C579.86 149.89 579.674 149.236 579.674 148.444C579.674 147.916 579.77 147.454 579.962 147.058C580.166 146.65 580.496 146.332 580.952 146.104C581.408 145.876 582.032 145.762 582.824 145.762C583.136 145.762 583.46 145.786 583.796 145.834C584.132 145.87 584.468 145.918 584.804 145.978V144.916C584.804 144.412 584.666 144.07 584.39 143.89C584.114 143.698 583.742 143.602 583.274 143.602C582.914 143.602 582.518 143.65 582.086 143.746C581.666 143.842 581.21 143.992 580.718 144.196L580.124 142.432C581.336 141.94 582.434 141.694 583.418 141.694C584.306 141.694 584.99 141.844 585.47 142.144C585.962 142.444 586.304 142.84 586.496 143.332C586.688 143.824 586.784 144.352 586.784 144.916V148.426C586.784 148.606 586.832 148.78 586.928 148.948C587.036 149.104 587.24 149.182 587.54 149.182H587.738V151.09H587.324ZM581.672 148.408C581.672 148.732 581.744 148.99 581.888 149.182C582.032 149.362 582.242 149.452 582.518 149.452C582.794 149.452 583.106 149.38 583.454 149.236C583.802 149.092 584.252 148.756 584.804 148.228V147.454C584.18 147.346 583.568 147.292 582.968 147.292C582.5 147.292 582.164 147.388 581.96 147.58C581.768 147.772 581.672 148.048 581.672 148.408ZM596.526 141.874L593.286 151H591.396L588.156 141.874H590.244L591.81 146.428L592.404 148.318L592.98 146.428L594.474 141.874H596.526ZM605.008 150.478C604.384 150.73 603.796 150.91 603.244 151.018C602.692 151.126 602.17 151.18 601.678 151.18C600.322 151.18 599.296 150.796 598.6 150.028C597.904 149.26 597.556 148.24 597.556 146.968V145.888C597.556 145.036 597.712 144.298 598.024 143.674C598.336 143.05 598.78 142.564 599.356 142.216C599.932 141.868 600.61 141.694 601.39 141.694C602.026 141.694 602.62 141.826 603.172 142.09C603.736 142.342 604.192 142.744 604.54 143.296C604.9 143.836 605.08 144.532 605.08 145.384C605.08 145.636 605.062 145.906 605.026 146.194C604.99 146.47 604.93 146.764 604.846 147.076H599.554C599.578 147.82 599.764 148.378 600.112 148.75C600.46 149.122 601.018 149.308 601.786 149.308C602.194 149.308 602.614 149.26 603.046 149.164C603.49 149.068 603.946 148.924 604.414 148.732L605.008 150.478ZM601.39 143.44C600.838 143.44 600.406 143.62 600.094 143.98C599.794 144.328 599.62 144.832 599.572 145.492H603.028C603.04 145.432 603.046 145.378 603.046 145.33C603.046 145.27 603.046 145.216 603.046 145.168C603.046 144.592 602.884 144.16 602.56 143.872C602.236 143.584 601.846 143.44 601.39 143.44Z" fill="black"/>
<path d="M143.93 255V250.449L153.48 242.088C154.196 241.44 154.805 240.848 155.308 240.311C155.811 239.766 156.195 239.22 156.459 238.675C156.723 238.121 156.855 237.52 156.855 236.872C156.855 236.148 156.697 235.53 156.382 235.018C156.067 234.499 155.632 234.098 155.078 233.817C154.524 233.536 153.889 233.395 153.173 233.395C152.449 233.395 151.814 233.544 151.268 233.842C150.723 234.132 150.297 234.554 149.99 235.108C149.692 235.662 149.543 236.335 149.543 237.128H143.547C143.547 235.347 143.947 233.808 144.749 232.513C145.55 231.217 146.675 230.22 148.124 229.521C149.581 228.814 151.273 228.46 153.199 228.46C155.185 228.46 156.911 228.793 158.376 229.457C159.842 230.122 160.976 231.051 161.777 232.244C162.587 233.429 162.991 234.805 162.991 236.374C162.991 237.371 162.791 238.359 162.391 239.339C161.99 240.32 161.27 241.402 160.23 242.587C159.199 243.771 157.733 245.19 155.832 246.844L152.7 249.733V249.899H163.311V255H143.93ZM177.115 255.358C175.078 255.358 173.258 255.034 171.656 254.386C170.062 253.73 168.809 252.844 167.897 251.727C166.994 250.602 166.542 249.332 166.542 247.918C166.542 246.835 166.802 245.842 167.322 244.939C167.842 244.036 168.545 243.286 169.431 242.689C170.326 242.084 171.324 241.696 172.423 241.526V241.321C170.983 241.057 169.802 240.388 168.882 239.314C167.97 238.24 167.514 236.983 167.514 235.543C167.514 234.179 167.927 232.964 168.754 231.899C169.589 230.834 170.727 229.994 172.167 229.381C173.616 228.767 175.265 228.46 177.115 228.46C178.964 228.46 180.609 228.767 182.049 229.381C183.498 229.994 184.636 230.834 185.463 231.899C186.298 232.964 186.716 234.179 186.716 235.543C186.716 236.991 186.251 238.253 185.322 239.327C184.402 240.392 183.23 241.057 181.806 241.321V241.526C182.897 241.696 183.886 242.084 184.772 242.689C185.667 243.286 186.375 244.036 186.895 244.939C187.423 245.842 187.687 246.835 187.687 247.918C187.687 249.332 187.231 250.602 186.319 251.727C185.407 252.844 184.154 253.73 182.561 254.386C180.975 255.034 179.16 255.358 177.115 255.358ZM177.115 250.871C177.89 250.871 178.572 250.726 179.16 250.436C179.748 250.138 180.208 249.724 180.541 249.196C180.882 248.668 181.052 248.071 181.052 247.406C181.052 246.724 180.882 246.119 180.541 245.591C180.2 245.062 179.731 244.649 179.135 244.351C178.547 244.044 177.873 243.891 177.115 243.891C176.365 243.891 175.691 244.044 175.095 244.351C174.498 244.649 174.029 245.062 173.689 245.591C173.348 246.119 173.177 246.724 173.177 247.406C173.177 248.071 173.343 248.668 173.676 249.196C174.017 249.716 174.481 250.125 175.069 250.423C175.666 250.722 176.348 250.871 177.115 250.871ZM177.115 239.429C177.779 239.429 178.368 239.293 178.879 239.02C179.399 238.747 179.804 238.368 180.093 237.882C180.392 237.396 180.541 236.847 180.541 236.233C180.541 235.619 180.392 235.078 180.093 234.609C179.804 234.141 179.403 233.774 178.892 233.51C178.38 233.237 177.788 233.101 177.115 233.101C176.45 233.101 175.858 233.237 175.338 233.51C174.818 233.774 174.413 234.141 174.123 234.609C173.833 235.078 173.689 235.619 173.689 236.233C173.689 236.847 173.833 237.396 174.123 237.882C174.422 238.359 174.831 238.739 175.35 239.02C175.87 239.293 176.458 239.429 177.115 239.429ZM201.072 228.46C202.504 228.46 203.872 228.695 205.176 229.163C206.48 229.624 207.643 230.361 208.666 231.375C209.689 232.381 210.494 233.706 211.082 235.351C211.67 236.996 211.964 239.003 211.964 241.372C211.973 243.554 211.717 245.51 211.197 247.24C210.677 248.962 209.931 250.428 208.96 251.638C207.997 252.848 206.838 253.773 205.483 254.412C204.127 255.043 202.615 255.358 200.944 255.358C199.103 255.358 197.48 255.004 196.074 254.297C194.676 253.581 193.555 252.618 192.711 251.408C191.876 250.197 191.377 248.842 191.216 247.342H197.441C197.637 248.212 198.051 248.868 198.681 249.311C199.312 249.746 200.066 249.963 200.944 249.963C202.547 249.963 203.744 249.268 204.537 247.879C205.329 246.49 205.725 244.602 205.725 242.216H205.572C205.206 243 204.686 243.673 204.012 244.236C203.348 244.798 202.576 245.229 201.699 245.527C200.821 245.825 199.896 245.974 198.924 245.974C197.356 245.974 195.971 245.616 194.77 244.901C193.576 244.185 192.639 243.2 191.957 241.947C191.284 240.695 190.943 239.263 190.934 237.652C190.926 235.845 191.348 234.251 192.2 232.871C193.052 231.482 194.241 230.399 195.767 229.624C197.292 228.839 199.061 228.452 201.072 228.46ZM201.11 233.318C200.326 233.318 199.627 233.501 199.014 233.868C198.409 234.234 197.931 234.729 197.582 235.351C197.233 235.973 197.062 236.672 197.071 237.447C197.079 238.223 197.254 238.922 197.595 239.544C197.944 240.166 198.417 240.661 199.014 241.027C199.619 241.393 200.309 241.577 201.085 241.577C201.664 241.577 202.201 241.47 202.696 241.257C203.19 241.044 203.62 240.75 203.987 240.375C204.353 239.991 204.639 239.548 204.843 239.045C205.056 238.543 205.159 238.006 205.15 237.435C205.142 236.676 204.963 235.986 204.613 235.364C204.264 234.741 203.782 234.247 203.169 233.881C202.564 233.506 201.877 233.318 201.11 233.318Z" fill="black"/>
<path d="M541.432 281.136V276.75L550.966 261.727H554.864V267.682H552.602L547.023 276.523V276.705H560.83V281.136H541.432ZM552.67 285V279.795L552.784 277.875V261.727H558.045V285H552.67ZM563.778 285V280.955L572.267 273.523C572.903 272.947 573.445 272.42 573.892 271.943C574.339 271.458 574.68 270.973 574.915 270.489C575.15 269.996 575.267 269.462 575.267 268.886C575.267 268.242 575.127 267.693 574.847 267.239C574.566 266.777 574.18 266.42 573.688 266.17C573.195 265.92 572.631 265.795 571.994 265.795C571.35 265.795 570.786 265.928 570.301 266.193C569.816 266.451 569.438 266.826 569.165 267.318C568.9 267.811 568.767 268.409 568.767 269.114H563.438C563.438 267.53 563.794 266.163 564.506 265.011C565.218 263.86 566.218 262.973 567.506 262.352C568.801 261.723 570.305 261.409 572.017 261.409C573.782 261.409 575.316 261.705 576.619 262.295C577.922 262.886 578.93 263.712 579.642 264.773C580.362 265.826 580.722 267.049 580.722 268.443C580.722 269.33 580.544 270.208 580.188 271.08C579.831 271.951 579.191 272.913 578.267 273.966C577.35 275.019 576.047 276.28 574.358 277.75L571.574 280.318V280.466H581.006V285H563.778Z" fill="black"/>
<path d="M604.918 387.636V408H600.006V392.23H599.886L595.332 395.014V390.759L600.354 387.636H604.918ZM617.215 408.278C615.73 408.278 614.411 408.01 613.257 407.473C612.104 406.936 611.193 406.197 610.523 405.256C609.86 404.314 609.516 403.234 609.489 402.014H614.262C614.301 402.763 614.606 403.366 615.176 403.824C615.747 404.275 616.426 404.5 617.215 404.5C617.831 404.5 618.378 404.364 618.855 404.092C619.333 403.821 619.707 403.439 619.979 402.949C620.251 402.452 620.383 401.882 620.377 401.239C620.383 400.582 620.248 400.009 619.969 399.518C619.697 399.028 619.319 398.647 618.836 398.375C618.358 398.097 617.808 397.957 617.185 397.957C616.595 397.951 616.035 398.08 615.505 398.345C614.981 398.61 614.583 398.972 614.311 399.429L609.966 398.614L610.851 387.636H623.917V391.604H614.898L614.431 396.406H614.55C614.888 395.843 615.432 395.379 616.181 395.014C616.936 394.643 617.795 394.457 618.756 394.457C619.976 394.457 621.063 394.742 622.017 395.312C622.979 395.876 623.734 396.658 624.284 397.659C624.841 398.66 625.12 399.807 625.12 401.099C625.12 402.498 624.788 403.738 624.125 404.818C623.469 405.899 622.548 406.747 621.361 407.364C620.181 407.973 618.799 408.278 617.215 408.278Z" fill="black"/>
<defs>
<filter id="filter0_f_551_3" x="0" y="0" width="726" height="526" filterUnits="userSpaceOnUse" color-interpolation-filters="sRGB">
<feFlood flood-opacity="0" result="BackgroundImageFix"/>
<feBlend mode="normal" in="SourceGraphic" in2="BackgroundImageFix" result="shape"/>
<feGaussianBlur stdDeviation="30" result="effect1_foregroundBlur_551_3"/>
</filter>
<linearGradient id="paint0_linear_551_3" x1="83" y1="109.5" x2="643" y2="109.5" gradientUnits="userSpaceOnUse">
<stop stop-opacity="0"/>
<stop offset="0.15" stop-opacity="0.5"/>
<stop offset="0.5"/>
<stop offset="0.85" stop-opacity="0.5"/>
<stop offset="1" stop-opacity="0"/>
</linearGradient>
</defs>
</svg>
