<svg width="80" height="20" viewBox="0 0 80 20" fill="none" xmlns="http://www.w3.org/2000/svg">
<rect width="80" height="20" rx="6" fill="#F4F827" fill-opacity="0.2"/>
<rect x="0.075" y="0.075" width="79.85" height="19.85" rx="5.925" stroke="#484E00" stroke-opacity="0.8" stroke-width="0.15"/>
<path d="M26.4134 14L27.8622 5.27273H30.973C31.6491 5.27273 32.1889 5.39631 32.5923 5.64347C32.9986 5.89062 33.277 6.22727 33.4276 6.65341C33.581 7.07955 33.6136 7.56108 33.5256 8.09801C33.4347 8.63494 33.2415 9.1179 32.946 9.54688C32.6534 9.97301 32.2628 10.3111 31.7741 10.5611C31.2855 10.8082 30.7045 10.9318 30.0312 10.9318H27.8878L28.071 9.81534H30.0909C30.5199 9.81534 30.8807 9.74148 31.1733 9.59375C31.4688 9.44318 31.7003 9.23864 31.8679 8.98011C32.0355 8.71875 32.1449 8.42472 32.196 8.09801C32.25 7.76562 32.2358 7.47301 32.1534 7.22017C32.071 6.96449 31.9077 6.7642 31.6634 6.61932C31.4219 6.47443 31.0838 6.40199 30.6491 6.40199H28.9957L27.7301 14H26.4134ZM36.4454 14.1321C35.8033 14.1321 35.2721 13.9943 34.8516 13.7188C34.434 13.4403 34.1414 13.0497 33.9738 12.5469C33.8062 12.0412 33.7792 11.4489 33.8928 10.7699C34.0036 10.0994 34.2266 9.50852 34.5618 8.99716C34.8971 8.4858 35.3147 8.08665 35.8147 7.79972C36.3175 7.51278 36.8729 7.36932 37.4809 7.36932C37.8502 7.36932 38.1982 7.4304 38.5249 7.55256C38.8545 7.67472 39.1343 7.86648 39.3644 8.12784C39.5945 8.3892 39.7536 8.72869 39.8417 9.14631C39.9326 9.56108 39.9297 10.0653 39.8332 10.6591L39.7607 11.1108H34.5533L34.7025 10.1562H38.657C38.7167 9.82102 38.7011 9.52415 38.6101 9.26562C38.5192 9.00426 38.363 8.7983 38.1414 8.64773C37.9226 8.49716 37.6471 8.42188 37.3147 8.42188C36.9738 8.42188 36.6556 8.51136 36.3601 8.69034C36.0647 8.86932 35.8175 9.09801 35.6187 9.37642C35.4226 9.65199 35.2991 9.93608 35.2479 10.2287L35.0988 11.1023C35.0249 11.5795 35.0377 11.9631 35.1371 12.2528C35.2394 12.5426 35.4184 12.7528 35.6741 12.8835C35.9297 13.0142 36.2493 13.0795 36.6329 13.0795C36.88 13.0795 37.1087 13.0455 37.3189 12.9773C37.532 12.9062 37.7209 12.8026 37.8857 12.6662C38.0505 12.527 38.1883 12.3537 38.2991 12.1463L39.4667 12.3636C39.3104 12.7187 39.086 13.0298 38.7934 13.2969C38.5008 13.5611 38.1556 13.767 37.7579 13.9148C37.363 14.0597 36.9255 14.1321 36.4454 14.1321ZM42.3854 10.1136L41.7462 14H40.4721L41.563 7.45455H42.786L42.607 8.51989H42.688C42.8954 8.17045 43.178 7.89205 43.536 7.68466C43.8968 7.47443 44.3229 7.36932 44.8144 7.36932C45.2576 7.36932 45.6297 7.46307 45.9309 7.65057C46.2348 7.83523 46.4493 8.1108 46.5743 8.47727C46.7022 8.84375 46.7221 9.29687 46.634 9.83665L45.9351 14H44.661L45.33 9.99006C45.4067 9.51562 45.3442 9.14489 45.1425 8.87784C44.9437 8.60795 44.6269 8.47301 44.1922 8.47301C43.8968 8.47301 43.6226 8.53693 43.3698 8.66477C43.1198 8.79261 42.9081 8.98011 42.7348 9.22727C42.5644 9.47159 42.4479 9.76705 42.3854 10.1136ZM49.8414 14.1278C49.3102 14.1278 48.8599 13.9929 48.4906 13.723C48.1241 13.4503 47.8642 13.0625 47.7108 12.5597C47.5602 12.054 47.5431 11.4474 47.6596 10.7401C47.7789 10.0327 47.9991 9.42756 48.3201 8.92472C48.6412 8.42187 49.0304 8.03693 49.4877 7.76989C49.9451 7.50284 50.438 7.36932 50.9664 7.36932C51.3727 7.36932 51.688 7.4375 51.9125 7.57386C52.1397 7.70739 52.3073 7.86364 52.4153 8.04261C52.5233 8.22159 52.6042 8.37926 52.6582 8.51562H52.7306L53.2718 5.27273H54.546L53.0971 14H51.8528L52.0275 12.9815H51.921C51.8215 13.1207 51.6838 13.2798 51.5076 13.4588C51.3343 13.6378 51.1127 13.794 50.8429 13.9276C50.573 14.0611 50.2392 14.1278 49.8414 14.1278ZM50.2718 13.0412C50.6383 13.0412 50.9664 12.9446 51.2562 12.7514C51.5488 12.5554 51.7917 12.2841 51.9849 11.9375C52.1809 11.5909 52.3173 11.1875 52.394 10.7273C52.4707 10.2727 52.4693 9.875 52.3897 9.53409C52.3102 9.19318 52.1568 8.92756 51.9295 8.73722C51.7022 8.54687 51.4025 8.4517 51.0304 8.4517C50.6468 8.4517 50.313 8.55114 50.0289 8.75C49.7448 8.94886 49.5119 9.22017 49.3301 9.56392C49.1511 9.90767 49.0261 10.2955 48.9551 10.7273C48.8812 11.1648 48.8784 11.5582 48.9465 11.9077C49.0147 12.2571 49.1582 12.5341 49.3769 12.7386C49.5957 12.9403 49.894 13.0412 50.2718 13.0412ZM54.6714 14L55.7623 7.45455H57.0364L55.9455 14H54.6714ZM56.6657 6.43182C56.4441 6.43182 56.2566 6.35795 56.1032 6.21023C55.9526 6.05966 55.883 5.88068 55.8944 5.6733C55.9058 5.46307 55.9938 5.28409 56.1586 5.13636C56.3234 4.9858 56.5151 4.91051 56.7339 4.91051C56.9555 4.91051 57.1416 4.9858 57.2921 5.13636C57.4427 5.28409 57.5137 5.46307 57.5052 5.6733C57.4938 5.88068 57.4058 6.05966 57.241 6.21023C57.0791 6.35795 56.8873 6.43182 56.6657 6.43182ZM59.3373 10.1136L58.6981 14H57.4239L58.5148 7.45455H59.7379L59.5589 8.51989H59.6398C59.8472 8.17045 60.1299 7.89205 60.4879 7.68466C60.8486 7.47443 61.2748 7.36932 61.7663 7.36932C62.2094 7.36932 62.5816 7.46307 62.8827 7.65057C63.1867 7.83523 63.4012 8.1108 63.5262 8.47727C63.654 8.84375 63.6739 9.29687 63.5859 9.83665L62.887 14H61.6129L62.2819 9.99006C62.3586 9.51562 62.2961 9.14489 62.0944 8.87784C61.8955 8.60795 61.5788 8.47301 61.1441 8.47301C60.8486 8.47301 60.5745 8.53693 60.3217 8.66477C60.0717 8.79261 59.86 8.98011 59.6867 9.22727C59.5163 9.47159 59.3998 9.76705 59.3373 10.1136ZM66.6868 16.5909C66.164 16.5909 65.7265 16.5227 65.3743 16.3864C65.0248 16.25 64.7493 16.0696 64.5476 15.8452C64.3487 15.6207 64.2109 15.375 64.1342 15.108L65.3104 14.6562C65.3672 14.7812 65.4467 14.9134 65.549 15.0526C65.6513 15.1946 65.8033 15.3153 66.005 15.4148C66.2095 15.5142 66.4893 15.5639 66.8444 15.5639C67.3274 15.5639 67.7493 15.446 68.1101 15.2102C68.4709 14.9773 68.6939 14.6051 68.7791 14.0938L68.9794 12.8068H68.8984C68.8018 12.946 68.6683 13.1009 68.4979 13.2713C68.3274 13.4418 68.1072 13.5895 67.8373 13.7145C67.5675 13.8395 67.2322 13.902 66.8317 13.902C66.3146 13.902 65.8686 13.7812 65.4936 13.5398C65.1214 13.2955 64.8544 12.9361 64.6925 12.4616C64.5305 11.9844 64.5078 11.3977 64.6243 10.7017C64.7379 10.0057 64.9538 9.40909 65.272 8.91193C65.593 8.41477 65.9822 8.03409 66.4396 7.76989C66.8998 7.50284 67.3927 7.36932 67.9183 7.36932C68.3246 7.36932 68.6413 7.4375 68.8686 7.57386C69.0987 7.70739 69.2692 7.86364 69.38 8.04261C69.4908 8.22159 69.5717 8.37926 69.6229 8.51562H69.7166L69.8913 7.45455H71.1399L70.0319 14.1449C69.941 14.7074 69.7351 15.169 69.414 15.5298C69.0959 15.8906 68.6996 16.1577 68.2251 16.331C67.7535 16.5043 67.2408 16.5909 66.6868 16.5909ZM67.2663 12.8452C67.63 12.8452 67.9538 12.7599 68.2379 12.5895C68.5248 12.4162 68.7635 12.169 68.9538 11.848C69.1442 11.5241 69.2763 11.1364 69.3501 10.6847C69.424 10.2443 69.4197 9.85653 69.3373 9.52131C69.2578 9.18608 69.103 8.92472 68.8729 8.73722C68.6456 8.54687 68.3487 8.4517 67.9822 8.4517C67.5959 8.4517 67.2606 8.55114 66.9765 8.75C66.6925 8.94602 66.4609 9.21307 66.2819 9.55114C66.1058 9.8892 65.9822 10.267 65.9112 10.6847C65.843 11.1136 65.8444 11.4901 65.9155 11.8139C65.9893 12.1378 66.1371 12.3906 66.3587 12.5724C66.5802 12.7543 66.8828 12.8452 67.2663 12.8452Z" fill="#565801" fill-opacity="0.8"/>
<circle cx="14" cy="10" r="5.75" stroke="#565801" stroke-opacity="0.8" stroke-width="0.5"/>
<path d="M13.4148 11.3267L13.429 11.2443C13.4896 10.8996 13.571 10.625 13.6733 10.4205C13.7775 10.214 13.9025 10.0483 14.0483 9.9233C14.196 9.7964 14.3646 9.67992 14.554 9.57386C14.6771 9.50189 14.7917 9.4214 14.8977 9.33239C15.0038 9.24337 15.0928 9.14205 15.1648 9.02841C15.2386 8.91288 15.286 8.78409 15.3068 8.64205C15.3333 8.47348 15.3182 8.32765 15.2614 8.20455C15.2045 8.08144 15.1165 7.98674 14.9972 7.92045C14.8778 7.85227 14.7367 7.81818 14.5739 7.81818C14.4299 7.81818 14.286 7.84848 14.142 7.90909C13.9981 7.9697 13.8712 8.06439 13.7614 8.19318C13.6515 8.32008 13.5758 8.4839 13.5341 8.68466H12.6705C12.7386 8.34375 12.8712 8.05587 13.0682 7.82102C13.267 7.58428 13.5066 7.4053 13.7869 7.28409C14.0691 7.16288 14.3703 7.10227 14.6903 7.10227C15.0369 7.10227 15.3305 7.16761 15.571 7.2983C15.8116 7.42708 15.9848 7.60795 16.0909 7.84091C16.1989 8.07197 16.2273 8.34186 16.1761 8.65057C16.142 8.86269 16.0777 9.05398 15.983 9.22443C15.8883 9.39299 15.768 9.54356 15.6222 9.67614C15.4782 9.80871 15.3134 9.92519 15.1278 10.0256C14.9517 10.1222 14.8049 10.2244 14.6875 10.3324C14.572 10.4384 14.4782 10.5644 14.4062 10.7102C14.3362 10.8542 14.2822 11.0322 14.2443 11.2443L14.2301 11.3267H13.4148ZM13.6335 13.054C13.4744 13.054 13.3419 12.9991 13.2358 12.8892C13.1316 12.7794 13.0805 12.6449 13.0824 12.4858C13.0843 12.3286 13.143 12.197 13.2585 12.0909C13.3759 11.983 13.5123 11.929 13.6676 11.929C13.8229 11.929 13.9555 11.9839 14.0653 12.0938C14.1752 12.2036 14.2263 12.3343 14.2188 12.4858C14.2131 12.5919 14.1828 12.6884 14.1278 12.7756C14.0748 12.8608 14.0047 12.929 13.9176 12.9801C13.8305 13.0294 13.7358 13.054 13.6335 13.054Z" fill="#565801" fill-opacity="0.8"/>
</svg>
